<svg width="109" height="110" viewBox="0 0 109 110" fill="none" xmlns="http://www.w3.org/2000/svg">
<path fill-rule="evenodd" clip-rule="evenodd" d="M86.1 54.7803V54.5903L86.01 54.4103L85.92 54.1303L85.82 53.8503L85.64 53.3903L85.55 53.0203L85.45 52.5503L85.36 52.2803L85.17 51.8103L85.08 51.4403L84.99 51.0703L84.9 50.7903V50.6003L84.81 50.4203V50.3203L84.9 50.6003L84.99 50.7903L85.08 51.0703L85.27 51.2503L85.45 51.6203L85.55 51.8103L85.64 52.0903L85.82 52.3703L86.1 52.5503L86.29 52.8303L86.38 53.1103L86.66 53.3903L86.84 53.5703L87.12 53.8503L87.31 54.1303L87.59 54.4103L87.77 54.6903L88.05 54.9703L88.24 55.3403L88.51 55.5203L88.79 55.8003L89.07 56.0803L89.25 56.3603L89.63 56.6403L89.9 56.9203L90.18 57.1903L90.46 57.4703L90.74 57.6603L91.11 58.0303L91.39 58.3103L91.76 58.5903L92.04 58.7703H91.76H91.48H91.2H91.02H90.74L90.83 59.1403L91.02 59.4203L91.11 59.7003L91.2 59.9803L91.3 60.2603L91.39 60.5403L91.57 60.9103L91.76 61.0903L91.3 60.8103L91.02 60.4403L90.55 60.0703L90.18 59.7003L89.81 59.3303L89.53 58.9603L89.07 58.5903L88.79 58.1203L88.42 57.7503L88.05 57.3803L87.77 57.0103L87.4 56.5403L87.03 56.1703L86.75 55.7103L86.56 55.5203L86.47 55.2403L86.29 54.9703L86.1 54.7803Z" fill="black"/>
<path fill-rule="evenodd" clip-rule="evenodd" d="M71.0801 46.1501L70.8001 46.5201L70.6201 46.8901L70.3401 47.2601L70.1501 47.6301L69.8801 48.0001L69.7801 48.2801L69.5001 48.6601L69.3201 48.9301L69.1301 49.3101L69.0401 49.4901L68.9501 49.8601L68.7601 50.1401L68.5801 50.4201L68.4801 50.7001L68.3901 50.9801L68.3001 51.2501L68.2101 51.4401L68.0201 51.8101V52.0001V52.2801L67.8401 52.5501V52.7401V52.9301V53.2001L67.7401 53.3901V53.6701V53.8501V54.0401V54.5001L67.8401 54.8701V55.2401L67.9301 55.6201L68.0201 55.9901L68.2101 56.1701L68.3001 56.5401L68.4801 56.8201L68.6701 57.0101L68.9501 57.2901L69.1301 57.4701L69.3201 57.6601L69.5001 57.9401L69.7801 58.1201L70.0601 58.3101L70.3401 58.4001L70.6201 58.5901L70.8901 58.6801L71.0801 58.7701L71.4501 58.8701L71.7301 58.9601L72.1001 59.0501L72.5601 59.1401L72.8401 59.2401H73.2101H73.6801H74.0501H74.5101H74.7001H74.8801H75.1601L75.3501 59.1401L75.8101 59.0501L76.1801 58.9601H76.3701L76.6401 58.8701H76.9201L77.2001 58.7701L77.5701 58.5901L77.9401 58.4901L78.3101 58.3101L78.7801 58.1201L79.1501 57.9401L79.5201 57.6601L79.8901 57.4701L80.2601 57.1901L80.5401 56.9201L80.9101 56.6401L81.1901 56.1701L81.4701 55.9001L81.6501 55.5201L81.9301 55.1501L82.0201 54.8701V54.6901L82.1201 54.5001L82.2101 54.2201L82.3001 54.0401L82.3901 53.8501V53.5701V53.3001V53.1101V52.7401V52.4601V52.0901V51.9001V51.5301V51.2501V50.7901L82.3001 50.5101L82.2101 50.1401V49.7701V49.4001L82.0201 49.1201V48.6601L81.9301 48.2801L81.7401 48.0001V47.6301L81.5601 47.1701V46.8901L81.4701 46.4301L81.3701 46.0601L81.1901 45.6801L81.0901 45.3101L81.0001 44.9401L80.9101 44.5701L80.7201 44.2001L80.6301 43.7401L80.5401 43.3601L80.4501 43.0901L80.2601 42.7101L80.1701 42.3401L80.0701 42.0601L79.8901 41.6901L79.8001 41.3201L79.7001 40.9501L79.6101 40.6701L79.4201 40.3001L79.3301 40.0201L79.2401 39.7401L79.1501 39.4701L78.9601 39.1901L78.8701 38.8201L78.7801 38.6301V38.3501L78.5901 38.0701L78.5001 37.8901L78.4101 37.7001L78.3101 37.4201L78.2201 37.0501L78.1301 36.6801L77.9401 36.4901V36.3101L77.8501 36.2201V36.1301L74.7901 35.8501V36.0301H74.8801V36.2201L75.0701 36.4001L75.1601 36.6801L75.3501 37.0501L75.5301 37.3301L75.8101 37.7001V37.9801L75.9901 38.1701L76.0901 38.4501L76.1801 38.7201L76.3701 39.0001V39.1901L76.5501 39.5601L76.7401 39.8401L76.8301 40.1201L76.9201 40.3901L77.0201 40.6701L77.2901 40.9501L77.3901 41.2301L77.4801 41.6001L77.6601 41.8801L77.7601 42.2501L77.9401 42.5301L78.0301 42.9001L78.1301 43.2701L78.3101 43.5501L78.4101 43.9201L78.5901 44.2001L78.6801 44.5701L78.8701 44.9401L78.9601 45.2201L79.0601 45.5901L79.2401 45.9601V46.3301L79.4201 46.6101V46.9801L79.6101 47.2601L79.7001 47.6301V48.0001L79.8001 48.2801L79.8901 48.6601V48.9301L79.9801 49.3101L80.0701 49.5801V49.9501V50.2301V50.6001V50.7901V51.1601L80.1701 51.4401L80.0701 51.7201V51.9001V52.0901V52.3701V52.6501L79.8901 52.9301V53.2001L79.8001 53.3901L79.6101 53.8501L79.4201 54.1301L79.2401 54.5001L78.9601 54.8701L78.6801 55.1501L78.3101 55.4301L78.0301 55.7101L77.6601 55.9901L77.2901 56.1701L77.0201 56.3601L76.6401 56.4501L76.2701 56.6401L75.9001 56.7301L75.5301 56.8201H75.1601L74.7001 56.9201H74.4201H74.0501H73.6801L73.3101 56.8201H72.9401L72.5601 56.7301L72.2801 56.6401L72.0101 56.5401L71.7301 56.4501L71.4501 56.1701H71.0801L70.8901 55.9901L70.7101 55.8001L70.6201 55.5201L70.4301 55.3401L70.1501 55.1501L70.0601 54.8701L69.9701 54.5001V54.2201L69.8801 53.9501V53.5701V53.2001L69.7801 52.7401V52.4601L69.8801 52.0001V51.6201V51.2501L69.9701 50.7901V50.4201L70.1501 50.0501V49.6801L70.2501 49.3101L70.3401 48.9301L70.4301 48.5601V48.2801L70.5201 47.9101L70.6201 47.6301L70.7101 47.3501L70.8001 47.1701V46.8901L70.8901 46.7101L70.9901 46.5201L71.0801 46.3301V46.1501Z" fill="black"/>
<path fill-rule="evenodd" clip-rule="evenodd" d="M68.67 56.1703L68.58 56.4503L68.48 56.7303L68.3 57.0103L68.21 57.1903L68.02 57.4703L67.84 57.6603L67.65 57.9403L67.46 58.1203L67 58.5903L66.63 58.9603L66.16 59.4203L65.8 59.7903L65.52 60.0703L65.24 60.1703L65.05 60.3503L64.78 60.5403L64.5 60.7203L64.22 60.9103L63.94 61.0903L63.75 61.1803L63.39 61.3703L63.11 61.5603L62.83 61.7403L62.55 61.8403L62.27 62.0203L61.99 62.2103L61.72 62.3003L61.44 62.3903L61.07 62.5803L60.79 62.6703L60.42 62.8603L60.14 62.9503L59.77 63.0403L59.49 63.2303L59.12 63.3203L58.84 63.4103L58.47 63.5103L58.19 63.6903H57.82L57.54 63.7903L57.17 63.8803H56.89L56.52 63.9703L56.25 64.0603L55.87 64.1603H55.59L55.22 64.2503H54.95L54.58 64.3403H54.2H53.93H53.65H53.28H53H52.63H52.35H51.98H51.7H51.33L51.14 64.2503H51.05L50.87 64.0603L50.77 63.8803L50.68 63.6903L50.59 63.5103L50.5 63.2303L50.31 62.9503L50.22 62.6703L50.03 62.2103L49.94 61.9303L49.85 61.7403V61.5603L49.66 61.3703L49.57 61.0903V60.9103L49.48 60.6303L49.38 60.3503V60.0703L49.2 59.8903V59.6103V59.4203L49.11 59.1403L49.01 58.8703L48.92 58.5903V58.3103V58.0303L48.83 57.7503L48.73 57.4703V57.1903V56.8203L48.64 56.5403V56.1703V55.9903V55.6203V55.3403V54.9703V54.6903V54.3203V54.0403V53.5703V53.3003L48.73 52.9303V52.5503V52.2803L48.83 51.9003L48.92 51.4403V51.1603L49.01 50.7903L49.2 50.4203L49.29 50.0503L49.38 49.7703L49.48 49.3103L49.57 48.9303L49.66 48.6603L49.85 48.2803L49.94 47.9103L50.12 47.6303L50.22 47.2603L50.4 46.9803L50.5 46.6103L50.68 46.3303L50.87 45.9603L50.96 45.6803L51.14 45.4103L51.33 45.0303L51.52 44.7603L51.7 44.4803L51.89 44.2003L51.98 43.9203L52.16 43.6403L52.35 43.3603L52.63 43.0903L52.81 42.9003L53 42.5303L53.18 42.3403L53.37 42.0603L53.65 41.7903L53.83 41.6003L54.02 41.3203L54.2 41.0403L54.48 40.8603L54.76 40.5803L55.13 40.2103L55.59 39.8403L55.78 39.6503L55.97 39.4703L56.25 39.1903L56.43 39.0003L56.71 38.8203L56.89 38.7203L57.08 38.5403L57.36 38.3503L57.54 38.1703L57.73 38.0703L58.01 37.8903L58.19 37.7003L58.47 37.6103L58.66 37.5203L58.84 37.3303H59.12L59.3 37.1403L59.58 37.0503L59.77 36.8703L60.05 36.7703L60.42 36.6803L60.88 36.4003L61.07 36.3103L61.34 36.2203H61.53L61.72 36.1303H61.9L62.09 36.0303H62.36L62.55 35.9403H62.83L63.11 35.8503H63.29L63.57 35.7503H63.85H64.03H64.4L64.59 35.6603H64.87H65.24H65.52L65.8 35.5703H66.07H66.35H66.54H66.91H67.19H67.56H67.84H68.11H68.39H68.67H68.95H69.32L69.5 35.6603H69.88H70.15H70.43H70.71L70.99 35.7503H71.27H71.45H71.73H72.01H72.28H72.56L72.75 35.8503H72.94H73.21H73.4L73.86 35.9403H74.23L74.6 36.0303H74.88L75.16 36.1303H75.44H75.81H75.9L77.48 38.8203H77.39H77.2H76.92H76.64L76.37 38.7203H75.99L75.53 38.6303H75.35H75.16L74.88 38.5403H74.6H74.33L74.05 38.4503L73.77 38.3503H73.59H73.21H72.94H72.56L72.38 38.2603H72.01L71.73 38.1703H71.36H71.08H70.71H70.43H69.97L69.69 38.0703H69.32H69.04H68.67L68.3 37.9803H68.02H67.65H67.19H66.91H66.54H66.26H65.89H65.61H65.24H64.87H64.59H64.22L63.94 38.0703H63.66L63.29 38.1703H63.11H62.74H62.46L62.18 38.3503H61.99H61.72H61.44L61.16 38.4503L60.97 38.5403L60.79 38.6303L60.51 38.7203L60.33 38.8203H60.14L59.86 39.0003L59.67 39.0903L59.4 39.1903L59.21 39.3703L59.03 39.4703L58.75 39.6503L58.56 39.8403L58.38 39.9303L57.91 40.3003L57.54 40.5803L57.26 40.8603L56.99 41.0403L56.8 41.2303L56.62 41.4203L56.15 41.7903L55.78 42.2503L55.59 42.4403L55.41 42.7103L55.13 42.9903L54.95 43.1803L54.76 43.4603L54.67 43.7403L54.48 43.9203L54.3 44.1103L54.11 44.3903L53.93 44.6603L53.74 44.9403L53.65 45.1303L53.46 45.5003L53.28 45.6803L53.09 45.9603L53 46.2403L52.81 46.5203L52.63 46.7103L52.54 46.9803L52.35 47.2603L52.26 47.5403L52.16 47.8203L51.98 48.0003V48.2803L51.79 48.5603L51.7 48.8403L51.52 49.1203V49.3103L51.33 49.5803V49.8603L51.14 50.1403V50.3203L51.05 50.6003L50.96 50.7903L50.87 51.0703V51.2503V51.5303L50.77 51.8103V52.0003V52.2803L50.68 52.4603V52.7403V52.9303V53.2003V53.3903V53.5703V53.8503V54.0403V54.3203V54.5003V54.7803V54.9703V55.4303V55.8003V56.0803V56.3603V56.5403V56.8203V57.1903L50.87 57.5703V58.0303L50.96 58.3103V58.7703L51.14 59.0503V59.4203L51.24 59.8903L51.33 60.1703V60.4403V60.7203L51.52 61.0003V61.1803V61.3703L51.7 61.8403L51.79 62.1103V62.2103L51.89 62.3003H52.16H52.26L52.44 62.2103H52.63H53H53.18L53.46 62.0203H53.83L54.2 61.9303L54.58 61.8403L54.85 61.7403H55.32L55.69 61.5603H56.06L56.52 61.3703H56.89L57.36 61.1803L57.73 61.0903L58.19 61.0003L58.38 60.9103L58.66 60.8103H58.84L59.12 60.7203L59.49 60.5403L59.95 60.4403L60.33 60.2603L60.79 60.0703L61.16 59.8903L61.62 59.7003L61.99 59.6103L62.36 59.3303L62.64 59.2403L63.01 58.9603L63.29 58.7703L63.66 58.5903L63.94 58.3103L64.22 58.1203L64.5 57.9403L64.87 57.6603L65.05 57.4703L65.33 57.2903L65.7 57.0103L65.89 56.8203L66.16 56.6403L66.35 56.4503L66.63 56.1703L66.91 55.9903L67.19 55.6203L67.65 55.2403L67.93 54.8703L68.21 54.5903L68.39 54.4103L68.58 54.2203L68.67 54.1303V54.0403V56.1703Z" fill="black"/>
<path fill-rule="evenodd" clip-rule="evenodd" d="M55.7801 40.6702L55.5901 40.3902V40.1202L55.5001 39.8402V39.5602V39.3702V39.0002V38.8202V38.5402V38.3502V38.0702L55.5901 37.8902V37.6102L55.6901 37.4202L55.7801 37.1402V36.9602L55.9701 36.6802L56.1501 36.3102L56.3401 35.9402L56.6201 35.5702L56.9901 35.1002L57.2601 34.9202L57.6401 34.5502L58.0101 34.2702L58.4701 33.9902L58.8401 33.8002L59.3001 33.5302L59.4901 33.4302L59.7701 33.3402L60.0501 33.2502L60.3301 33.1502L60.5101 33.0602L60.7901 32.9702H61.0701L61.3401 32.7802H61.6201L61.8101 32.6902L62.1801 32.6002H62.4601H62.6401L63.0101 32.5002H63.2901L63.5701 32.4102H63.8501H64.2201H64.5001L64.7801 32.3202L65.0501 32.4102H65.4201H65.7001H66.0701H66.3501H66.6301H66.9101H67.2801L67.5601 32.5002L67.8401 32.6002H68.1101L68.4801 32.6902L68.6701 32.7802H68.9501L69.2301 32.8802L69.5001 32.9702H69.7801L69.9701 33.1502L70.1501 33.2502H70.4301L70.6201 33.3402L70.8901 33.4302L71.0801 33.5302L71.3601 33.6202L71.7301 33.9002L72.1001 34.0802L72.3801 34.2702L72.7501 34.4502L73.0301 34.7302L73.4001 34.9202L73.5901 35.1002L73.8601 35.2902L74.0501 35.5702L74.2301 35.7502L74.4201 36.0302L74.6001 36.2202L74.8801 36.4902L75.1601 36.8702L75.2501 37.1402L75.3501 37.3302L75.4401 37.5202H75.5301L77.6601 37.7002L77.8501 36.1302H77.7601V35.9402L77.6601 35.7502L77.5701 35.3802L77.2901 35.1002L77.0201 34.7302L76.8301 34.5502L76.7401 34.2702L76.4601 33.9902L76.2701 33.8002L75.9901 33.6202L75.7201 33.3402L75.3501 33.0602L74.9801 32.7802L74.5101 32.6002L74.1401 32.3202L73.8601 32.2302L73.6801 32.1302L73.4001 31.9502H73.2101L72.9401 31.7602L72.5601 31.6702L72.3801 31.5802L72.1001 31.4802L71.7301 31.3902L71.4501 31.3002L71.0801 31.2102L70.7101 31.1102L70.3401 31.0202L69.9701 30.9302L69.6001 30.8302L69.2301 30.7402L68.8501 30.6502H68.3901L68.0201 30.4602H67.6501H67.0901L66.7201 30.3702L66.2601 30.2802H65.8901H65.4201L65.0501 30.1802H64.6801H64.3101H63.9401H63.5701H63.2001H62.9201H62.5501H62.2701L61.9901 30.2802H61.7201L61.4401 30.3702L61.1601 30.4602H60.8801H60.6001L60.3301 30.5602L60.1401 30.6502L59.8601 30.6502L59.6701 30.7402L59.4001 30.8302H59.2101L58.9301 30.9302L58.7501 31.0202L58.3801 31.2102L58.0101 31.3002L57.7301 31.5802L57.3601 31.7602L57.0801 32.0402L56.8001 32.2302L56.5201 32.5002L56.2501 32.6902L56.0601 32.9702L55.8701 33.2502L55.5901 33.4302L55.5001 33.8002L55.3201 34.0802L55.1301 34.2702L54.9501 34.5502L54.8501 34.8202L54.7601 35.1002L54.6701 35.3802L54.4801 35.6602L54.3001 36.0302L54.2001 36.2202L54.1101 36.4902L54.0201 36.8702V37.0502L53.9301 37.4202V37.7002V37.9802V38.1702V38.5402V38.7202V39.0002V39.1902V39.4702V39.6502V39.9302V40.2102L54.0201 40.3902V40.5802L54.1101 40.9502L54.2001 41.2302V41.5102L54.3001 41.6902V41.7902H54.3901L55.7801 40.6702Z" fill="black"/>
<path fill-rule="evenodd" clip-rule="evenodd" d="M53.18 55.1502L53.37 54.5002L53.65 53.8502L53.83 53.2002L54.11 52.6502L54.48 52.0902L54.76 51.4402L55.13 50.8802L55.5 50.3202L55.78 49.8602L56.25 49.3102L56.62 48.9302L57.08 48.3802L57.45 47.9102L57.91 47.4502L58.38 46.9802L58.84 46.5202L59.3 46.2402L59.77 45.7802L60.23 45.5002L60.79 45.0302L61.25 44.7602L61.72 44.3902L62.27 44.0102L62.83 43.7402L63.29 43.4602L63.85 43.1802L64.4 42.9002L64.87 42.6202L65.42 42.4402L65.89 42.1602L66.54 41.8802L67 41.6002L67.56 41.5102L68.02 41.2302L68.48 41.1402L69.04 40.9502L69.5 40.7702L69.97 40.5802L70.52 40.3902L70.99 40.3002L71.36 40.1202L71.82 40.0202L72.28 39.8402H72.75L73.12 39.6502H73.49L73.86 39.5602L74.23 39.4702L74.6 39.3702L74.98 39.2802L75.25 39.1902H75.53H75.9L76.18 39.0902H76.37L76.64 39.0002H77.02L77.29 38.9102H77.48V38.8202L71.27 36.6802H71.08L70.8 36.7702L70.62 36.8702L70.43 36.9602L70.15 37.0502H69.88L69.5 37.3302H69.13L68.67 37.5202L68.3 37.7002L68.02 37.7902L67.84 37.8902L67.56 37.9802L67.37 38.0702L67.09 38.1702L66.91 38.3502H66.63L66.44 38.5402L66.16 38.6302L65.89 38.8202L65.61 38.9102L65.33 39.0002L65.05 39.1902L64.87 39.3702L64.59 39.4702L64.31 39.6502L64.03 39.8402L63.75 39.9302L63.48 40.1202L63.2 40.3002L62.92 40.4902L62.64 40.6702L62.36 40.7702L62.18 40.9502L61.81 41.1402L61.53 41.4202L61.25 41.6002L60.97 41.7902L60.79 42.0602L60.51 42.2502L60.23 42.4402L59.95 42.6202L59.67 42.9002L59.49 43.0902L59.21 43.2702L59.03 43.5502L58.75 43.7402L58.47 44.0102L58.28 44.2902L58.1 44.5702L57.82 44.8502L57.54 45.0302L57.36 45.4102L57.17 45.5902L56.99 45.8702L56.89 46.1502L56.71 46.4302L56.43 46.6102L56.25 46.9802L56.15 47.1702L55.97 47.3502L55.78 47.6302L55.69 47.9102L55.5 48.1002L55.41 48.3802L55.32 48.6602L55.13 48.9302L54.95 49.1202L54.85 49.3102L54.76 49.5802L54.58 50.0502L54.39 50.4202L54.2 50.7902L54.11 51.2502L53.93 51.6202L53.83 51.9002L53.65 52.3702V52.7402L53.46 53.0202V53.3002L53.28 53.5702V53.8502V54.1302V54.2202L53.18 54.6902V54.8702V55.1502Z" fill="black"/>
<path fill-rule="evenodd" clip-rule="evenodd" d="M59.6699 57.9401V57.5701L59.5799 57.1901L59.3999 56.9201L59.2099 56.6401L58.8399 56.4501L58.5599 56.1701H58.1899L57.9099 56.0801L57.5399 56.1701H57.1699L56.8899 56.4501L56.7099 56.6401L56.4299 56.9201L56.2499 57.1901L56.1499 57.5701V57.9401V58.3101L56.2499 58.5901L56.4299 58.9601L56.7099 59.2401L56.8899 59.4201L57.1699 59.6101L57.5399 59.7001H57.9099H58.1899L58.5599 59.6101L58.8399 59.4201L59.2099 59.2401L59.3999 58.9601L59.5799 58.5901L59.6699 58.3101V57.9401Z" fill="black"/>
<path fill-rule="evenodd" clip-rule="evenodd" d="M31.5801 102.95L31.4901 102.58L31.3901 102.3L31.3001 102.03L31.1201 101.75L30.7501 101.56L30.4701 101.38L30.1901 101.28H29.9101H29.5401L29.2601 101.38L28.8901 101.56L28.7001 101.75L28.4301 102.03L28.3301 102.3L28.2401 102.58V102.95V103.23L28.3301 103.6L28.4301 103.88L28.7001 104.07L28.8901 104.35L29.2601 104.53L29.5401 104.62H29.9101H30.1901L30.4701 104.53L30.7501 104.35L31.1201 104.07L31.3001 103.88L31.3901 103.6L31.4901 103.23L31.5801 102.95Z" fill="black"/>
<path fill-rule="evenodd" clip-rule="evenodd" d="M37.7899 40.6704L38.1599 40.7704L38.5299 40.8604L38.8999 41.0404L39.2799 41.2304L39.5499 41.6004L39.7399 42.0604L39.8299 42.4404L39.9199 42.8104L39.8299 43.0904V43.2704L39.7399 43.5504V43.7404L39.5499 44.1104L39.2799 44.3904L38.8999 44.6604L38.5299 44.8504L38.1599 45.0304H37.7899H37.5099H37.2399H36.9599L36.7699 44.8504L36.4899 44.6604L36.1199 44.3904L35.8399 44.1104L35.6599 43.7404L35.4699 43.5504V43.2704V43.0904V42.8104V42.4404L35.6599 42.0604L35.8399 41.6004L36.1199 41.2304L36.4899 41.0404L36.7699 40.8604L36.9599 40.7704H37.2399L37.5099 40.6704H37.7899Z" fill="black"/>
<path fill-rule="evenodd" clip-rule="evenodd" d="M36.9601 30.9302L37.3301 31.0202L37.6101 31.1102L37.9801 31.3002L38.2601 31.4802L38.4401 31.7602L38.6301 32.1302L38.7201 32.5002L38.8101 32.7802L38.7201 33.2502L38.6301 33.6202L38.4401 33.9902L38.2601 34.1702L37.9801 34.4502L37.6101 34.6402L37.3301 34.7302H36.9601H36.5901L36.2201 34.6402L35.8401 34.4502L35.6601 34.1702L35.4701 33.9902L35.2001 33.6202L35.1001 33.2502V32.7802V32.5002L35.2001 32.1302L35.4701 31.7602L35.6601 31.4802L35.8401 31.3002L36.2201 31.1102L36.5901 31.0202L36.9601 30.9302Z" fill="black"/>
<path fill-rule="evenodd" clip-rule="evenodd" d="M38.8103 20.1602H39.0903L39.4603 20.2502L39.7403 20.4402L40.0203 20.6202L40.2003 20.9002L40.3903 21.1802L40.4803 21.5502L40.5703 21.8302L40.4803 22.2002L40.3903 22.4802L40.2003 22.8502L40.0203 23.1302L39.7403 23.3102L39.4603 23.5002L39.0903 23.6002H38.8103H38.4403L38.0703 23.5002L37.7903 23.3102L37.5103 23.1302L37.3303 22.8502L37.1403 22.4802L36.9603 22.2002V21.8302V21.5502L37.1403 21.1802L37.3303 20.9002L37.5103 20.6202L37.7903 20.4402L38.0703 20.2502L38.4403 20.1602H38.8103Z" fill="black"/>
<path fill-rule="evenodd" clip-rule="evenodd" d="M41.4103 41.1402L48.9203 35.3802L40.1103 31.9502L48.9203 31.1102L41.8703 23.2202L55.7803 29.8102L55.6903 29.9102L55.4103 30.0002L55.2203 30.1802L55.0403 30.2802L54.8503 30.4602L54.6703 30.6502L54.3903 30.8302L54.1103 31.1102L53.9303 31.4802L53.8303 31.8502L53.6503 32.1302V32.3202L53.5603 32.5002V32.6902L53.4603 32.9702V33.2502V33.5302V33.8002V34.1702V34.4502L53.3703 34.7302V34.9202V35.2002V35.4802V35.6602V35.7502L53.2803 36.2202V36.4002L53.1803 36.6802V36.8702L53.0003 37.0502L53.0903 37.2402L41.4103 41.1402Z" fill="black"/>
<path fill-rule="evenodd" clip-rule="evenodd" d="M90.7399 91.8202V91.5402V91.2602L90.5499 91.0702V90.7902L90.3699 90.4202L89.9999 90.1502L89.7199 90.0502L89.5299 89.8702H89.3499L89.1599 89.7702L88.8799 89.6802H88.6999H88.4199H88.2399H87.9599L87.6799 89.7702L87.3999 89.8702H87.2099L86.9399 89.9602L86.7499 90.1502L86.4699 90.2402L86.2899 90.3302L85.9199 90.7902L85.7299 91.1702L85.6399 91.4402L85.5499 91.6302V91.9102V92.0902V92.4602L85.6399 92.7402L85.7299 93.1202L85.9199 93.3002L86.0999 93.6702L86.3799 93.9502L86.6599 94.2302L87.0299 94.5102L87.3099 94.7902L87.5899 95.0602L87.9599 95.2502L88.4199 95.5302L88.7899 95.7102L89.2499 95.8102L89.5299 95.9002H89.7199L89.8999 95.9902H90.1799L90.3699 96.0902H90.6399H90.9199H91.1099L91.2999 96.1802H91.5699L91.8499 96.0902H92.0399H92.3099H92.4999L92.6899 95.9902L92.9599 95.9002L93.2399 95.8102L93.4299 95.7102L93.7099 95.6202L93.9799 95.5302L94.3499 95.2502L94.8199 94.8802L94.9999 94.7902L95.1899 94.5102L95.3799 94.3202L95.5599 94.0402L95.7399 93.7602L95.9299 93.5802L96.1199 93.3002L96.2999 92.9302L96.3899 92.6502L96.5799 92.3702L96.7699 92.0002L96.9499 91.6302L97.0399 91.2602L97.1399 90.8902L97.2299 90.5202L97.3199 89.9602V89.4902V89.0302V88.5702L97.4199 88.0102L97.3199 87.4502V86.9002L97.2299 86.3402V85.7802L97.1399 85.1302L97.0399 84.5702L96.9499 83.9302L96.7699 83.2802L96.6699 82.6302L96.4899 81.9802L96.3899 81.3302L96.1199 80.5802L95.9299 79.8402L95.8399 79.1902L95.6499 78.5402L95.4699 77.8002L95.2799 77.0602L94.9999 76.4102L94.8199 75.6702L94.6299 74.9202L94.3499 74.1802L94.0799 73.4402L93.8899 72.7002L93.6099 71.9502L93.3299 71.2102L93.0599 70.5602L92.7799 69.8202L92.4999 69.0702L92.3099 68.4202L92.0399 67.5902L91.7599 66.9402L91.4799 66.2002L91.1999 65.5502L90.9199 64.9002L90.7399 64.1602L90.4599 63.5102L90.1799 62.8602L89.8999 62.2102L89.7199 61.5602L89.4399 60.9102L89.1599 60.3502L88.8799 59.7002L88.6999 59.2402L88.4199 58.5902L88.2399 58.1202L87.9599 57.5702L87.7699 57.0102L87.5899 56.5402L87.3999 56.0802L87.3099 55.6202L87.1199 55.1502L86.9399 54.7802L86.7499 54.4102L86.6599 54.0402L86.5599 53.6702L86.4699 53.3002L86.3799 53.0202L86.2899 52.7402L86.0999 52.4602V52.0902L85.9199 51.8102L85.8199 51.4402L85.7299 51.0702L85.6399 50.7902L85.5499 50.4202L85.4499 50.0502V49.7702L85.2699 49.3102L85.1699 48.9302V48.6602L85.0799 48.2802L84.9899 47.8202L84.8999 47.4502V47.1702L84.8099 46.7102L84.7099 46.4302L84.6199 46.0602L84.5299 45.6802V45.2202V44.8502L84.4299 44.4802L84.3399 44.1102V43.7402L84.2499 43.3602V42.9902L84.1599 42.6202V42.2502V41.7902L84.0599 41.5102V41.1402L83.9699 40.7702V40.3902L83.8799 40.1202V39.7402V39.4702V39.0002V38.7202V38.3502V38.0702V37.7002V37.5202V37.1402V36.8702V36.4902V36.2202V36.0302V35.6602V35.3802V35.1002L83.9699 34.9202L84.0599 34.7302V34.4502L84.1599 34.0802L84.2499 33.6202L84.3399 33.3402L84.4299 32.9702L84.5299 32.6902L84.7099 32.5002L84.8099 32.2302L84.9899 31.9502L85.0799 31.7602L85.1699 31.5802L85.3599 31.3002L85.5499 31.1102L85.8199 30.8302L86.0999 30.4602L86.3799 30.1802L86.7499 30.0002L86.9399 29.9102L87.2099 29.8102H87.5899H87.7699L88.0499 29.9102L88.2399 30.0002L88.4199 30.1802L88.6999 30.4602L88.7899 30.8302L88.8799 31.0202V31.3002V31.4802L88.6999 31.9502L88.4199 32.1302L88.0499 32.4102L87.7699 32.5002L87.5899 32.6002H87.3999L89.2499 33.3402V33.2502L89.5299 32.9702H89.7199L89.8099 32.6902L89.8999 32.4102L90.1799 32.1302L90.2699 31.9502L90.3699 31.5802V31.2102V30.8302L90.2699 30.4602L90.1799 30.0902L89.8999 29.7202L89.6299 29.3502L89.2499 29.0702L88.7899 28.7002L88.4199 28.5102L87.9599 28.4202L87.5899 28.3302L87.1199 28.2402L86.7499 28.4202L86.3799 28.5102L85.9199 28.7002L85.5499 28.8802L85.0799 29.2502L84.7099 29.5302L84.4299 29.8102L84.2499 30.0002L84.0599 30.1802L83.7799 30.4602L83.5999 30.7402L83.4099 31.0202L83.2299 31.3002L83.0399 31.5802L82.7599 31.9502L82.6699 32.3202L82.4899 32.6002L82.3899 32.7802V32.9702V33.2502L82.2099 33.4302V33.8002L82.1199 34.0802L82.0199 34.2702V34.6402V34.9202L81.9299 35.2002V35.4802V35.8502L81.8399 36.2202L81.7399 36.4902V36.8702V37.1402V37.5202V37.8902V38.2602V38.6302V39.0002V39.4702V39.8402V40.2102V40.4902L81.8399 40.9502L81.9299 41.3202V41.7902V42.1602V42.5302L82.0199 42.9902V43.3602V43.7402V44.2002L82.1199 44.5702V45.0302L82.2099 45.4102V45.7802L82.3899 46.2402V46.6102V46.9802L82.4899 47.3502L82.5799 47.8202L82.6699 48.1902V48.5602L82.7599 48.9302L82.8599 49.3102V49.7702L82.9499 50.1402L83.0399 50.4202L83.2299 50.7902V51.1602L83.3199 51.5302L83.4099 51.9002L83.4999 52.2802L83.5999 52.5502L83.6899 52.8302L83.7799 53.2002L83.8799 53.4802L83.9699 53.8502L84.0599 54.2202L84.1599 54.5902L84.3399 54.9702L84.4299 55.4302L84.6199 55.8002L84.8099 56.2702L84.9899 56.7302L85.1699 57.2902L85.4499 57.7502L85.6399 58.3102L85.8199 58.8702L86.0999 59.4202L86.2899 59.9802L86.4699 60.5402L86.7499 61.0902L87.0299 61.7402L87.3099 62.3902L87.5899 63.0402L87.7699 63.6902L88.0499 64.3402L88.3299 64.9902L88.6099 65.6402L88.8799 66.2902L89.0699 67.0302L89.4399 67.7802L89.7199 68.4202L89.8999 69.0702L90.1799 69.8202L90.4599 70.4702L90.7399 71.2102L91.0199 71.8602L91.2999 72.6002L91.5699 73.3402L91.7599 73.9902L92.0399 74.7402L92.3099 75.4802L92.4999 76.1302L92.6899 76.7802L92.9599 77.4302L93.1499 78.1702L93.3299 78.8202L93.6099 79.5602L93.7999 80.1202L93.9799 80.8602L94.0799 81.4202L94.2599 81.9802L94.4499 82.6302L94.5399 83.2802L94.6299 83.8302L94.8199 84.3902L94.9099 84.9502L94.9999 85.4102L95.0999 86.0602V86.4302L95.1899 86.9002V87.3602V87.8202L95.0999 88.2902V88.5702V89.0302L94.9999 89.3102L94.9099 89.6802V89.9602L94.8199 90.3302L94.6299 90.5202L94.5399 90.7902L94.4499 91.0702L94.2599 91.3502L94.1699 91.6302L94.0799 91.8202L93.9799 92.0002L93.6099 92.3702L93.4299 92.6502L93.1499 93.0202L92.9599 93.3002L92.5899 93.5802L92.3099 93.7602L92.0399 93.9502H91.8499L91.5699 94.1402L91.1999 94.2302H91.0199H90.7399L90.4599 94.3202H90.1799H89.8999L89.7199 94.2302H89.5299L89.2499 94.1402L89.0699 94.0402L88.8799 93.9502L88.4199 93.7602L88.1399 93.5802L87.7699 93.3002L87.5899 93.1202L87.2099 92.6502L87.1199 92.2802V92.0002L87.3099 91.6302L87.4899 91.4402L87.7699 91.1702L88.1399 91.0702L88.4199 90.9802L88.7899 91.0702L89.2499 91.1702L89.5299 91.2602L89.8999 91.4402L90.1799 91.6302H90.4599L90.6399 91.8202H90.7399Z" fill="black"/>
<path fill-rule="evenodd" clip-rule="evenodd" d="M89.4399 98.2202L89.0699 98.5002L88.8799 98.7802L88.6999 99.0602L88.4199 99.3302L88.2399 99.6102L88.0499 99.8902L87.8599 100.17L87.7699 100.45L87.5899 100.63L87.3999 101.01L87.3099 101.28L87.1199 101.47L87.0299 101.75L86.9399 101.93L86.8399 102.21L86.7499 102.4L86.6599 102.77L86.5599 102.95L86.4699 103.23V103.42L86.3799 103.7L86.2899 103.88V104.16V104.35L86.1999 104.62L86.0999 104.9V105.09V105.28V105.74V106.02V106.39V106.85V107.22L86.2899 107.5V107.87V108.15L86.3799 108.34L86.4699 108.62V108.8L86.5599 108.99L86.6599 109.27H86.7499V109.45L86.8399 109.54H87.0299L87.2099 109.45L87.4899 109.36L87.7699 109.27L88.1399 109.08L88.6099 108.8L88.9799 108.52L89.4399 108.15L89.8099 107.78L89.9999 107.59L90.1799 107.32L90.3699 107.04L90.5499 106.76L90.7399 106.48L90.9199 106.11L91.0199 105.83L91.1999 105.37L91.2999 105.09L91.3899 104.62V104.35L91.4799 104.07L91.5699 103.88L91.6699 103.6V103.23V102.77V102.4V102.03V101.75L91.5699 101.28V101.01L91.4799 100.63L91.3899 100.45L91.2999 100.17L91.1999 99.9802L91.1099 99.7002L90.9199 99.3302L90.7399 99.0602L90.4599 98.8702L90.1799 98.6802L89.8999 98.5002L89.8099 98.3102L89.5299 98.2202H89.4399Z" fill="black"/>
<path fill-rule="evenodd" clip-rule="evenodd" d="M92.5002 98.5002L92.5902 98.9602L92.6902 99.3302L92.7802 99.6102L92.9602 99.8902V100.17L93.1502 100.54L93.2402 100.82L93.4302 101.1L93.6102 101.28L93.7102 101.47L93.8902 101.75L94.0802 101.93L94.4502 102.4L94.8202 102.68L95.1902 102.95L95.6502 103.23L96.0202 103.51L96.4902 103.6L96.8602 103.88H97.3202L97.5102 104.07H97.7902H97.9702H98.2502H98.6202H99.0802H99.4502H99.9202H100.2H100.57L100.84 103.88H101.22L101.49 103.7L101.68 103.6L101.96 103.51L102.05 103.42L102.24 103.23V102.95L102.05 102.77L101.86 102.49L101.59 102.21L101.4 101.84L101.03 101.47L100.66 101.1L100.2 100.73L99.8302 100.26L99.5502 100.17L99.3602 99.8902L99.0802 99.7002L98.7102 99.5202L98.4302 99.3302L98.1602 99.1502L97.8802 98.9602L97.6002 98.7802L97.2302 98.6802L96.7702 98.5002L96.4902 98.3102L96.1202 98.1302L95.7402 98.0302L95.3802 97.8502H94.9102L94.5402 97.6602L92.5002 98.5002Z" fill="black"/>
<path fill-rule="evenodd" clip-rule="evenodd" d="M30.47 104.07L30.75 104.25H31.12H31.58H31.95L32.23 104.16L32.51 104.07L32.78 103.88L33.06 103.7L33.25 103.6L33.43 103.32L33.62 103.05L33.71 102.77L33.9 102.49L33.99 102.12V101.84L34.18 101.47L34.08 101.19V100.82L33.99 100.54L33.9 100.17L33.8 99.8001L33.71 99.5201L33.53 99.1501L33.43 98.8701L33.16 98.5901L32.88 98.3101L32.6 98.0301L32.32 97.8501L31.95 97.6601L31.58 97.4801L31.12 97.3901L30.75 97.2001H30.56H30.28H30.09H29.91H29.45H29.08H28.61H28.24L27.96 97.2901L27.59 97.3901L27.22 97.4801L26.85 97.5701L26.48 97.6601L26.2 97.8501L26.02 98.0301L25.64 98.1301L25.46 98.3101L25.27 98.5001L25 98.7801L24.72 99.0601L24.53 99.3301L24.44 99.5201L24.25 99.8001L24.16 100.17L24.07 100.45L23.97 100.73L23.88 101.1V101.47V101.84V102.21V102.58L23.97 102.95L24.07 103.42L24.16 103.88L24.25 104.07V104.25L24.44 104.53L24.53 104.62L24.72 105.09L25.09 105.37L25.37 105.74L25.83 106.02L26.02 106.11L26.2 106.2L26.48 106.39H26.76L27.04 106.57L27.31 106.67L27.5 106.76H27.78L28.06 106.85H28.33L28.61 106.95H28.98L29.26 107.04H29.63H29.91H30.28H30.56H30.93H31.3L31.58 106.95H31.95H32.23H32.6L32.97 106.85H33.34L33.62 106.76L33.99 106.67L34.36 106.57H34.64L35.01 106.39H35.38L35.75 106.2L36.03 106.11L36.4 106.02L36.77 105.83L37.14 105.74L37.33 105.55L37.7 105.46L37.98 105.28L38.35 105.09L38.63 104.9L38.9 104.72L39.28 104.62L39.55 104.35L39.74 104.25L40.02 104.07L40.39 103.79L40.57 103.51L40.85 103.32L41.13 103.05L41.31 102.86L41.59 102.58L41.78 102.4L41.97 102.12L42.15 101.84L42.33 101.47L42.52 101.19L42.7 100.82L42.8 100.45L42.98 100.17L43.17 99.8001V99.3301L43.36 98.9601L43.54 98.5901L43.63 98.2201L43.73 97.7601L43.82 97.2901L44 96.8301V96.3601L44.1 95.9001L44.19 95.5301L44.28 94.9701V94.5101L44.38 93.9501L44.47 93.5801V93.0201L44.56 92.4601L44.65 92.0001V91.4401V90.9801V90.4201L44.84 89.8701V89.4001V88.8401V88.3801L44.93 87.7301V87.3601V86.7101V86.2501L45.03 85.6901V85.2301V84.6701V84.2001V83.6501V83.1801L45.12 82.6301V82.1601V81.7001V81.2301V80.6801V80.2101V79.8401V79.3801L45.21 78.9101V78.5401L45.3 78.0801V77.7101V77.2401V76.7801V76.4101L45.39 76.1301L45.49 75.7601V75.3901V75.0101V74.6401L45.67 74.3701V74.1801L45.77 73.8101V73.6201L45.86 73.3401V73.0701L45.95 72.7901L46.04 72.5101L46.14 72.3201V72.0401L46.32 71.8601L46.41 71.5801L46.51 71.3001L46.6 71.1201L46.69 70.9301L46.78 70.6501L46.97 70.3701L47.16 70.1001L47.34 69.6301L47.53 69.2601L47.8 68.8901L47.99 68.6101L48.18 68.2401L48.45 67.9601L48.73 67.6801L48.92 67.4001L49.11 67.2201L49.29 66.9401L49.57 66.7601L49.85 66.4801L50.22 66.1001L50.5 65.9201L50.68 65.7301L50.87 65.6401H50.96H50.87H50.68L50.4 65.7301L50.03 65.8301H49.85L49.57 65.9201L49.38 66.1001H49.2L48.83 66.2901L48.55 66.4801L48.27 66.6601L48.08 66.7601L47.71 67.0301L47.44 67.3101L47.06 67.5901L46.78 67.8701L46.51 68.2401L46.14 68.6101L45.95 68.9801L45.67 69.2601L45.49 69.5401L45.3 69.8201L45.21 70.1001L45.12 70.2801L44.93 70.5601L44.84 70.8401L44.65 71.1201V71.4001L44.47 71.6701L44.38 72.0401L44.28 72.3201L44.19 72.6001L44 72.9701V73.3401L43.82 73.7201V73.9901L43.73 74.4601L43.63 74.8301L43.54 75.2901L43.45 75.6701L43.36 76.1301V76.5001L43.26 76.8701L43.17 77.3401V77.8001V78.2601L42.98 78.7301V79.1901V79.5601L42.89 80.0301L42.8 80.4901V80.9501L42.7 81.5101V81.9801L42.61 82.3501V82.9001L42.52 83.3701V83.9301V84.3001V84.8501L42.33 85.3201V85.7801V86.2501V86.7101L42.24 87.2701L42.15 87.7301V88.2001V88.5701L42.06 89.1201V89.5901L41.97 90.1501L41.87 90.5201V91.0701L41.78 91.5401V92.0001L41.69 92.4601V92.9301L41.5 93.3001L41.41 93.7601V94.2301L41.31 94.6001L41.22 95.0601V95.4301L41.13 95.8101L41.04 96.1801L40.94 96.6401L40.76 97.0101V97.3901L40.57 97.6601V98.0301L40.39 98.4101V98.6801L40.2 99.0601L40.02 99.3301L39.92 99.7001L39.83 99.8901L39.65 100.17L39.55 100.45L39.37 100.73L39.28 100.91L39.09 101.19L38.9 101.38L38.63 101.65L38.53 101.84L38.16 102.21L37.79 102.58L37.42 102.95L36.96 103.32L36.59 103.7L36.31 103.88L35.84 104.25L35.47 104.53L35.01 104.72L34.55 104.9L34.36 105L34.18 105.18H33.9L33.71 105.28L33.25 105.37L32.88 105.55H32.6H32.32L32.14 105.74H31.95L31.49 105.83H31.12H30.65H30.28H29.91H29.45H29.08L28.7 105.74L28.33 105.55L27.96 105.46L27.59 105.37L27.31 105.18L26.94 105L26.66 104.72L26.39 104.62L26.11 104.44L25.92 104.25L25.74 103.97L25.55 103.7L25.46 103.51L25.37 103.23L25.27 102.95L25.18 102.77V102.58V102.3L25.27 102.03V101.75L25.37 101.47L25.46 101.28L25.55 101.01L25.74 100.73L25.83 100.54L26.02 100.35L26.2 100.08L26.29 99.8901L26.48 99.7001L26.76 99.5201L27.04 99.3301L27.22 99.1501L27.5 99.0601L27.68 98.9601L27.96 98.8701L28.15 98.7801L28.43 98.6801H28.7H28.98H29.17H29.45H29.63H29.91L30.28 98.8701L30.75 98.9601L31.02 99.1501L31.39 99.3301L31.67 99.5201L31.95 99.7001L32.14 99.9801L32.32 100.17L32.41 100.45L32.51 100.73L32.6 101.01L32.69 101.19L32.6 101.47L32.51 101.65L32.41 101.93L32.23 102.12L32.04 102.21L31.95 102.4L31.49 102.58H31.12L30.75 102.68L30.47 102.58H30.28H30.19L30.47 104.07Z" fill="black"/>
<path fill-rule="evenodd" clip-rule="evenodd" d="M85.1699 26.0103L85.4499 26.1003L85.6399 26.2903L85.9199 26.3803H86.2899L86.4699 26.4703L86.7499 26.5603H87.0299H87.3099H87.5899H87.7699H87.9599H88.2399H88.4199H88.6999H88.9799H89.2499H89.4399H89.7199H89.8999H90.1799L90.5499 26.3803L91.0199 26.2903L91.3899 26.1903L91.8499 26.1003L92.1299 25.9103L92.5899 25.7303L92.8699 25.6403L93.1499 25.4503L93.4299 25.3603L93.7099 25.0803L94.0799 24.8003L94.4499 24.4303L94.5399 24.1503L94.6299 23.7803L94.4499 23.6003L94.1699 23.3103L93.7999 23.1303L93.4299 23.0403L93.0599 22.9503L92.6899 22.8503H92.3099H91.8499H91.5699L91.1999 22.7603L90.7399 22.8503H90.3699L89.8999 22.9503H89.5299L89.2499 23.0403H88.9799L88.7899 23.1303H88.6099L88.3299 23.2203H88.0499L87.7699 23.3103H87.5899H87.3099L87.1199 23.4103L86.8399 23.6003H86.6599L86.2899 23.7803L86.0999 23.9603L85.7299 24.2403L85.6399 24.4303L85.4499 24.6103L85.3599 24.8003L85.1699 25.0803V25.3603V25.5403V25.7303V25.9103V26.0103Z" fill="black"/>
<path fill-rule="evenodd" clip-rule="evenodd" d="M83.3199 25.0804L83.1299 24.8004L83.0399 24.6103L82.9499 24.3404L82.8599 24.0604L82.7599 23.7804V23.6004L82.6699 23.3104V23.0403V22.7604L82.5799 22.4804V22.2903V22.0203V21.8304V21.5504V21.3603V20.9904V20.8104V20.5304V20.3504L82.6699 20.1604V19.7003L82.7599 19.2304L82.8599 18.8604L82.9499 18.4904L83.1299 18.1204L83.3199 17.7504L83.4099 17.3704L83.4999 17.1004L83.6899 16.8204L83.8799 16.5404L84.0599 16.3504L84.2499 16.1704L84.3399 15.9804L84.5299 15.8004L84.8999 15.6104H85.1699L85.4499 15.8004L85.7299 15.9804L85.8199 16.3504L86.0099 16.7204L86.0999 17.1004L86.2899 17.5604V17.9304L86.3799 18.3004V18.5804V19.0504V19.5104L86.2899 19.8804V20.2504V20.7204L86.1999 20.9004L86.0999 21.1803V21.3603V21.6404V21.8304L86.0099 22.0203L85.9199 22.2903V22.5704L85.8199 22.8504V23.1304L85.7299 23.3104L85.6399 23.5004L85.4499 23.8704L85.2699 24.1504L85.0799 24.4303L84.8999 24.6103L84.6199 24.8004H84.4299L84.1599 24.9904L83.8799 25.0804H83.6899H83.5999H83.3199Z" fill="black"/>
<path fill-rule="evenodd" clip-rule="evenodd" d="M93.0601 97.6603L92.9601 97.3903V97.0103L92.6901 96.8303L92.5901 96.5503L92.3101 96.4603L92.0401 96.2703L91.8501 96.1803L91.5701 96.0903L91.2001 96.1803L90.9201 96.2703L90.6401 96.4603L90.4601 96.5503L90.2701 96.8303L90.1801 97.0103L90.0901 97.3903V97.6603V98.0303L90.1801 98.2203L90.2701 98.5003L90.4601 98.6803L90.6401 98.9603L90.9201 99.0603L91.2001 99.1503H91.5701H91.8501L92.0401 99.0603L92.3101 98.9603L92.5901 98.6803L92.6901 98.5003L92.9601 98.2203V98.0303L93.0601 97.6603Z" fill="black"/>
<path fill-rule="evenodd" clip-rule="evenodd" d="M70.71 76.4102L70.62 75.9402L70.52 75.5702L70.34 75.2002L70.06 74.8302L69.78 74.6402L69.32 74.3702L68.95 74.2702L68.58 74.1802L68.3 74.2702H68.02L67.84 74.3702H67.65L67.28 74.6402L67 74.8302L66.72 75.2002L66.54 75.5702L66.35 75.9402V76.4102V76.5902V76.8702V77.1502L66.54 77.2402L66.72 77.7102L67 77.9902L67.28 78.2602L67.65 78.4502L67.84 78.5402H68.02H68.3H68.58H68.95L69.32 78.4502L69.78 78.2602L70.06 77.9902L70.34 77.7102L70.52 77.2402L70.62 77.1502V76.8702L70.71 76.5902V76.4102Z" fill="black"/>
<path fill-rule="evenodd" clip-rule="evenodd" d="M80.4502 77.1502L80.3502 76.7802L80.2602 76.4102L80.0702 76.1302L79.8902 75.7602L79.5202 75.5702L79.2402 75.3902L78.8702 75.2902L78.5002 75.2002L78.1302 75.2902L77.7602 75.3902L77.3902 75.5702L77.2002 75.7602L76.9202 76.1302L76.7402 76.4102L76.6402 76.7802V77.1502V77.5202L76.7402 77.8902L76.9202 78.2602L77.2002 78.5402L77.3902 78.7302L77.7602 78.9102L78.1302 79.0102H78.5002H78.8702L79.2402 78.9102L79.5202 78.7302L79.8902 78.5402L80.0702 78.2602L80.2602 77.8902L80.3502 77.5202L80.4502 77.1502Z" fill="black"/>
<path fill-rule="evenodd" clip-rule="evenodd" d="M91.2002 75.2901V74.9201L91.1102 74.6401L90.9202 74.3701L90.7402 73.9901L90.4602 73.8101L90.1802 73.7201L89.8102 73.6201H89.5302H89.0702L88.7902 73.7201L88.4202 73.8101L88.2402 73.9901L87.9602 74.3701L87.8602 74.6401L87.7702 74.9201V75.2901V75.6701L87.8602 75.9401L87.9602 76.3201L88.2402 76.5001L88.4202 76.7801L88.7902 76.8701L89.0702 77.0601H89.5302H89.8102L90.1802 76.8701L90.4602 76.7801L90.7402 76.5001L90.9202 76.3201L91.1102 75.9401L91.2002 75.6701V75.2901Z" fill="black"/>
<path fill-rule="evenodd" clip-rule="evenodd" d="M70.1501 72.7001L75.9901 65.1801L79.3301 73.9901L80.2601 65.1801L88.1401 72.2301L81.5601 58.3101L81.4701 58.4001L81.3701 58.6801L81.1901 58.8701L81.0901 59.0501L80.9101 59.3301L80.7201 59.5101L80.4501 59.7001L80.2601 59.9801L79.8901 60.1701L79.5201 60.3501L79.2401 60.4401H79.0601L78.8701 60.5401H78.5901L78.3101 60.7201H78.1301H77.7601H77.4801H77.2001H76.8301H76.6401H76.3701L76.0901 60.8101H75.9001H75.7201H75.5301L75.1601 60.9101H74.8801L74.6001 61.0001H74.5101L74.2301 61.0901L74.0501 61.0001L70.1501 72.7001Z" fill="black"/>
<path fill-rule="evenodd" clip-rule="evenodd" d="M91.76 61.09L92.04 61.37L92.31 61.74L92.69 62.02L93.06 62.21L93.33 62.58L93.61 62.86L93.98 63.04L94.35 63.32L94.63 63.6L94.91 63.88L95.28 64.06L95.65 64.34L95.93 64.53L96.3 64.81L96.58 64.99L96.95 65.18L97.23 65.45L97.6 65.64L97.88 65.83L98.16 66.1L98.53 66.29L98.81 66.38L99.18 66.57L99.45 66.76L99.64 66.94L100.01 67.13L100.2 67.31L100.57 67.4L100.84 67.59L101.12 67.78L101.4 67.87L101.68 67.96L101.96 68.15L102.14 68.24L102.42 68.42H102.61L102.79 68.61L103.07 68.7L103.26 68.89H103.54L103.91 69.07L104.28 69.26L104.55 69.45L104.92 69.54L105.11 69.63L105.39 69.73H105.58H105.67H105.85V69.63L105.58 69.54L105.3 69.26L105.11 69.07L104.83 68.89L104.55 68.61L104.28 68.42L103.91 68.24L103.63 67.96L103.16 67.68L102.79 67.31L102.61 67.22L102.33 67.03L102.14 66.94L101.96 66.76L101.68 66.57L101.49 66.38L101.22 66.2L101.03 65.92L100.75 65.83L100.47 65.64L100.2 65.45L100.01 65.18L99.64 65.08L99.36 64.81L99.18 64.71L98.9 64.43L98.62 64.25L98.25 64.06L98.06 63.88L97.79 63.6L97.42 63.41L97.23 63.14L96.95 62.86L96.67 62.67L96.39 62.48L96.12 62.21L95.74 62.02L95.47 61.74L95.19 61.56L94.91 61.37L94.63 61.09L94.35 60.81L93.98 60.54L93.8 60.35L93.43 60.07L93.15 59.89L92.96 59.61L92.59 59.33L92.31 59.05L92.04 58.77L92.31 58.87H92.59L92.96 58.96H93.24L93.61 59.05L93.98 59.14L94.35 59.24L94.73 59.33L95.1 59.42L95.56 59.61H95.74L95.93 59.7L96.12 59.89H96.39L96.67 59.98L96.95 60.07L97.14 60.17L97.42 60.26L97.69 60.35L97.88 60.44L98.06 60.54L98.43 60.72L98.71 60.91L99.18 61.18L99.45 61.37L99.64 61.56L99.92 61.65L100.2 61.74L100.47 62.02L100.66 62.21L100.84 62.39L101.12 62.48L101.4 62.76L101.68 62.86L101.96 63.14L102.14 63.32L102.42 63.51L102.61 63.79L102.89 64.06L103.16 64.25L103.44 64.43L103.63 64.71L103.91 64.9L104.18 65.08L104.37 65.36L104.65 65.64L104.83 65.83L105.11 66.1L105.3 66.29L105.58 66.57L105.76 66.76L106.04 66.94L106.22 67.22L106.41 67.5L106.59 67.78L106.78 67.96L106.97 68.24L107.06 68.42L107.34 68.61L107.52 68.89L107.71 69.26L107.99 69.73L108.17 70.1L108.36 70.37L108.45 70.75L108.54 71.12V71.4V71.67L108.45 71.86L108.36 72.04L108.17 72.14L107.99 72.23L107.61 72.32H107.34H106.87H106.5H106.04H105.67H105.39H105.2L104.92 72.23L104.74 72.14H104.55L104.28 72.04H104L103.81 71.95L103.44 71.86L103.26 71.77L102.98 71.67L102.79 71.58L102.42 71.49L102.14 71.4L101.96 71.21L101.59 71.12L101.31 71.02L101.12 70.93L100.75 70.75L100.47 70.56L100.2 70.37L99.92 70.28L99.55 70.1L99.36 69.91L99.08 69.73L98.71 69.54L98.43 69.26L98.16 69.07L97.88 68.89L97.6 68.61L97.23 68.42L97.04 68.15L96.67 67.87L96.39 67.59L96.12 67.31L95.93 67.03L95.56 66.76L95.28 66.48L95 66.2L94.73 65.83L94.45 65.55L94.17 65.18L93.89 64.81L93.61 64.43L93.33 64.06L93.15 63.69L92.96 63.32L92.69 62.86L92.41 62.48L92.13 62.02L91.94 61.56L91.76 61.09Z" fill="black"/>
<path fill-rule="evenodd" clip-rule="evenodd" d="M55.0402 23.2204L55.1302 23.3104H55.4102L55.6902 23.4104L56.0602 23.6004L56.4302 23.6904L56.8002 23.7804L57.2602 23.8704L57.5402 23.9604L58.0102 24.0604L58.3802 24.2404L58.7502 24.3404L59.0302 24.4304L59.2102 24.5204H59.4002H59.4902L59.2102 24.4304H59.0302L58.7502 24.2404L58.4702 24.0604L58.1902 23.9604L58.0102 23.8704L57.7302 23.6904L57.5402 23.5004L57.2602 23.3104L56.9902 23.1304L56.7102 22.9504L56.4302 22.6704L56.2502 22.4804L55.9702 22.2904L55.6902 22.0204L55.4102 21.8304L55.1302 21.5504L54.8502 21.3604L54.5802 21.0904L54.3002 20.8104L54.0202 20.5304L53.7402 20.2504L53.4602 19.9704L53.2802 19.7004L52.9102 19.5104L52.6302 19.1404L52.3502 18.8604L52.1602 18.4904L51.7902 18.2104L51.5202 17.8404L51.3302 17.5604L51.0502 17.1904V17.5604V17.8404V18.2104V18.3004V18.5804L50.6802 18.4904L50.4002 18.4004L50.1202 18.3004L49.8502 18.2104L49.5702 18.0304L49.2002 17.9304L49.0102 17.7504L48.7302 17.6504L49.1102 18.0304L49.3802 18.4004L49.8502 18.8604L50.2202 19.1404L50.5002 19.5104L50.8702 19.8804L51.3302 20.2504L51.7002 20.5304L52.0702 20.9904L52.4402 21.3604L52.8102 21.6404L53.2802 22.0204L53.6502 22.2904L54.1102 22.5704L54.3002 22.7604L54.5802 22.9504L54.7602 23.1304L55.0402 23.2204Z" fill="black"/>
<path fill-rule="evenodd" clip-rule="evenodd" d="M18.0401 18.6702H18.3201H18.5001L18.7801 18.8602H19.0601L19.3401 19.0502L19.8001 19.4202V19.6002L19.9901 19.7902V20.0702L20.0801 20.2502V20.5302L20.1701 20.7202V20.9902V21.1802L20.0801 21.3602V21.6402L19.9901 21.9202V22.2002L19.8001 22.3902L19.7101 22.6702L19.5301 22.8502L19.4301 23.0402L19.2501 23.2202L19.0601 23.3102L18.8801 23.5002L18.6901 23.6002L18.4101 23.7802H18.1301H17.8601H17.6701H17.3001L17.0201 23.6902L16.7401 23.6002L16.4701 23.3102L16.0901 23.2202L15.8201 22.9502L15.5401 22.6702L15.2601 22.3902L15.0701 22.0202L14.8001 21.7402L14.6101 21.3602L14.4201 20.9002L14.2401 20.5302L14.0501 20.1602L13.9601 19.8802L13.8701 19.7002V19.4202V19.1402L13.7801 18.9502V18.6702V18.4902V18.3002L13.6801 18.0302V17.7502L13.7801 17.5602V17.2802V17.1002V16.9102L13.8701 16.6302L13.9601 16.3502L14.0501 16.1702L14.1501 15.8902L14.2401 15.6102L14.4201 15.4202L14.6101 14.9602L14.9801 14.5902L15.0701 14.4002L15.2601 14.2202L15.5401 14.0302L15.8201 13.7602L16.0901 13.6602L16.2801 13.4802L16.5601 13.2902L16.9301 13.0102L17.2101 12.9202L17.4801 12.7302L17.8601 12.6402L18.3201 12.3602H18.6001L18.9701 12.1802H19.3401L19.9001 11.9902H20.3601H20.8201H21.2901H21.9401H22.4001H22.9501L23.5101 12.1802H24.0701L24.7201 12.2702L25.3701 12.3602L26.0201 12.4602L26.6601 12.5502L27.3101 12.6402L27.9601 12.8302L28.6101 13.0102L29.2601 13.2002L30.0001 13.3802L30.6501 13.4802L31.3901 13.7602L32.1401 13.8502L32.7801 14.1302L33.5301 14.3102L34.2701 14.5902L35.0101 14.7802L35.6601 14.9602L36.4901 15.2402L37.1401 15.5202L37.9801 15.8002L38.6301 16.0802L39.2801 16.2602L40.0201 16.6302L40.7601 16.8202L41.4101 17.1002L42.1501 17.2802L42.9801 17.6502L43.6301 17.8402L44.2801 18.2102L44.9301 18.4002L45.6701 18.6702L46.3201 18.8602L46.9701 19.2302L47.6201 19.5102L48.2701 19.7002L48.9201 19.8802L49.4801 20.1602L50.0301 20.4402L50.6801 20.7202L51.2401 20.9002L51.7001 21.1802L52.2601 21.3602L52.8101 21.5502L53.2801 21.7402L53.7401 21.9202L54.2001 22.0202L54.6701 22.2902L55.0401 22.3902L55.4101 22.5702L55.7801 22.6702L56.1501 22.8502L56.5201 22.9502L56.7101 23.0402L57.0801 23.1302L57.3601 23.2202L57.7301 23.3102L58.0101 23.4102L58.3801 23.6002H58.6601L59.0301 23.6902L59.4001 23.7802L59.6701 23.8702L60.1401 23.9602L60.5101 24.0602L60.7901 24.1502L61.1601 24.2402H61.5301L61.9901 24.3402L62.2701 24.4302L62.6401 24.5202L63.0101 24.6102H63.3901L63.7501 24.7102L64.2201 24.8002H64.5901H64.9601L65.3301 24.8902L65.7001 24.9902L66.0701 25.0802H66.4401H66.8101L67.1901 25.1702L67.5601 25.2602H68.0201H68.3001L68.6701 25.3602H69.0401H69.3201L69.6901 25.4502H70.0601H70.4301H70.7101H71.0801H71.3601H71.7301H72.1001H72.3801H72.6601H72.9401H73.3101H73.5901H73.8601H74.0501H74.4201H74.6001L74.8801 25.3602H75.1601L75.3501 25.2602H75.8101L76.1801 25.0802H76.4601L76.8301 24.8902L77.0201 24.8002L77.2901 24.6102L77.5701 24.5202L77.7601 24.4302L78.0301 24.2402L78.2201 24.1502L78.4101 23.9602L78.6801 23.8702L78.9601 23.6002L79.3301 23.2202L79.6101 22.9502L79.8001 22.6702L79.8901 22.3902L80.0701 22.1102V21.8302V21.5502L79.9801 21.3602L79.8901 21.0902L79.6101 20.9002L79.4201 20.6202L79.0601 20.5302H78.7801H78.5901H78.3101L77.9401 20.7202L77.6601 20.9902L77.4801 21.3602L77.2901 21.6402V21.8302V22.0202L76.4601 20.1602L76.5501 20.0702L76.8301 19.7902L76.9201 19.7002L77.2001 19.5102L77.3901 19.3202L77.6601 19.2302L77.9401 19.1402L78.3101 19.0502H78.6801H78.9601L79.4201 19.1402L79.7001 19.2302L80.0701 19.5102L80.5401 19.7002L80.9101 20.1602L81.0901 20.5302L81.2801 20.9902L81.4701 21.3602V21.8302L81.5601 22.2002L81.4701 22.5702L81.3701 23.0402L81.1901 23.4102L80.9101 23.8702L80.6301 24.2402L80.3501 24.7102L80.0701 24.8902L79.8901 25.0802L79.6101 25.3602L79.4201 25.5402L79.1501 25.7302L78.8701 25.9102L78.5901 26.1902L78.3101 26.3802L77.9401 26.5602L77.5701 26.7502L77.2901 26.8402L77.1101 26.9402L76.8301 27.0302H76.6401L76.3701 27.1202L76.0901 27.2102H75.8101L75.5301 27.3102L75.2501 27.4002H74.9801H74.7001H74.4201L74.0501 27.4902L73.6801 27.5902H73.4001H73.0301L72.6601 27.6802H72.2801H71.9101H71.6401H71.2701H70.8001H70.4301H70.0601H69.6901L69.3201 27.5902H68.9501L68.4801 27.4902H68.0201H67.6501L67.2801 27.4002H66.9101H66.4401L66.0701 27.3102H65.7001L65.2401 27.2102H64.8701L64.4001 27.1202H64.0301L63.6601 27.0302H63.2001L62.8301 26.9402L62.4601 26.8402L62.0901 26.7502H61.6201L61.1601 26.6602L60.7901 26.5602H60.5101L60.1401 26.4702L59.6701 26.3802L59.4001 26.2902L59.0301 26.1902L58.6601 26.1002L58.2801 26.0102L57.9101 25.9102L57.5401 25.8202L57.2601 25.7302L56.8901 25.6402L56.6201 25.5402L56.3401 25.4502L55.9701 25.3602L55.5901 25.2602L55.2201 25.0802L54.8501 24.9902L54.4801 24.8002L54.0201 24.7102L53.5601 24.5202L53.0901 24.2402L52.6301 24.1502L52.0701 23.9602L51.5201 23.7802L50.9601 23.5002L50.4001 23.3102L49.8501 23.0402L49.2001 22.8502L48.7301 22.4802L48.0801 22.2902L47.4401 22.0202L46.7801 21.8302L46.1401 21.5502L45.4901 21.3602L44.8401 20.9902L44.1901 20.8102L43.5401 20.5302L42.8001 20.2502L42.0601 19.9702L41.4101 19.7002L40.7601 19.4202L40.0201 19.1402L39.2801 18.8602L38.6301 18.5802L37.9801 18.3002L37.2401 18.0302L36.4901 17.8402L35.8401 17.5602L35.1001 17.2802L34.3601 17.1002L33.7101 16.9102L33.0601 16.6302L32.4101 16.3502L31.6701 16.1702L31.0201 15.9802L30.2801 15.8002L29.7201 15.6102L29.0801 15.4202L28.4301 15.2402L27.8701 15.1502L27.3101 14.8702L26.6601 14.7802L26.0201 14.6802L25.4601 14.5902L24.9001 14.5002L24.4401 14.3102H23.8801H23.4201L22.9501 14.1302H22.4901H22.0301L21.5601 14.1302H21.2901L20.8201 14.3102H20.4501H20.1701L19.9001 14.4002L19.5301 14.5902L19.3401 14.6802L19.0601 14.7802L18.7801 14.9602L18.5001 15.0502L18.3201 15.1502L18.0401 15.3302L17.8601 15.4202L17.4801 15.7002L17.2101 15.9802L16.8401 16.2602L16.5601 16.4502L16.3701 16.7202L16.0901 17.0002L15.9101 17.2802L15.8201 17.5602L15.7201 17.8402L15.6301 18.1202L15.5401 18.4002V18.5802V18.8602V19.1402V19.4202L15.6301 19.7002V19.8802L15.7201 20.1602V20.3502L15.9101 20.5302L16.0901 20.9002L16.2801 21.1802L16.5601 21.5502L16.7401 21.7402L17.1101 22.1102L17.5801 22.2902H17.8601L18.1301 22.0202L18.4101 21.8302L18.6001 21.5502L18.6901 21.1802L18.7801 20.8102L18.6901 20.5302V20.1602L18.5001 19.7902L18.4101 19.5102L18.3201 19.1402L18.1301 18.8602L18.0401 18.7702V18.6702Z" fill="black"/>
<path fill-rule="evenodd" clip-rule="evenodd" d="M11.6401 19.9704L11.3601 20.2504L11.0901 20.5304L10.8101 20.7204L10.5301 20.9004L10.2501 21.1804L9.97014 21.2704L9.70014 21.4604L9.51014 21.6404L9.23014 21.8304L8.86014 22.0204H8.68014L8.40014 22.2004L8.12014 22.2904L7.84014 22.4804H7.56013L7.38014 22.5704L7.10014 22.6704L6.91014 22.8504L6.54014 22.9504H6.26014L6.08014 23.0404H5.80014L5.62014 23.1304H5.43014H5.15014L4.97014 23.2204H4.78014H4.59014H4.13014H3.67014H3.30014H2.93014L2.65014 23.1304H2.28014H1.91014L1.72014 23.0404L1.35014 22.9504L1.16014 22.8504H0.890137L0.700134 22.6704H0.610138L0.510132 22.5704H0.240143V22.4804V22.2904V22.1104L0.420135 21.8304L0.510132 21.5504L0.700134 21.1804L0.890137 20.8104L1.26013 20.3504L1.54015 19.9704L2.00014 19.5104L2.19014 19.3204L2.37014 19.1404L2.74014 18.9504L3.02014 18.7704L3.30014 18.5804L3.67014 18.4004L4.04014 18.3004L4.41014 18.1204L4.59014 18.0304H4.78014L4.97014 17.9304H5.15014L5.43014 17.8404H5.62014L5.89014 17.7504H6.08014H6.26014H6.54014H6.73014H7.01014H7.38014L7.75014 17.6504L8.12014 17.7504H8.49014L8.86014 17.8404H9.14014L9.42014 17.9304L9.60014 18.0304L9.88014 18.2104H10.1601L10.4401 18.4904L10.8101 18.6704L10.9901 18.8604L11.1801 19.1404L11.3601 19.4204L11.5501 19.5104L11.6401 19.8804V19.9704Z" fill="black"/>
<path fill-rule="evenodd" clip-rule="evenodd" d="M11.2702 16.8203H10.9002L10.5302 16.7203L10.1602 16.6303L9.8802 16.4503L9.60019 16.3503L9.23019 16.2603L9.05019 16.0803L8.7702 15.9803L8.49019 15.8003L8.21019 15.6103L8.03019 15.5203L7.84019 15.3303L7.47019 14.9603L7.10019 14.5003L6.73019 14.1303L6.54019 13.7603L6.26019 13.2903L6.17019 12.9203L6.08019 12.6403L5.99019 12.4603L5.89019 12.2703V11.9903L5.80019 11.8103V11.5303L5.80019 11.3403V11.0603L5.71019 10.6903V10.2303V9.86031V9.39031V9.11031L5.80019 8.74031L5.89019 8.46031L6.08019 8.09031V7.91031L6.17019 7.63031L6.26019 7.44031L6.4502 7.26031L6.73019 7.07031H6.91019L7.10019 7.26031L7.3802 7.44031L7.56019 7.72031L8.03019 8.00031L8.40019 8.37031L8.68019 8.74031L8.86019 8.93031L9.05019 9.11031L9.23019 9.30031L9.51019 9.49031L9.7002 9.86031L9.8802 10.0403L10.0702 10.3203L10.2502 10.6003L10.4402 10.8803L10.6202 11.1503L10.8102 11.5303L10.9902 11.7103L11.1802 12.1803L11.3602 12.4603L11.4602 12.8303L11.6402 13.2003L11.8302 13.6603L11.9202 13.9403L12.1102 14.3103L12.2002 14.7803L11.2702 16.8203Z" fill="black"/>
<path fill-rule="evenodd" clip-rule="evenodd" d="M12.1997 16.3501H12.4797L12.7597 16.4501L13.0297 16.6301L13.2197 16.8201L13.3997 17.0001L13.5897 17.2801V17.5601L13.6797 17.8401L13.5897 18.2101V18.4001L13.3997 18.6701L13.2197 18.8601L13.0297 19.1401L12.7597 19.2301L12.4797 19.3201H12.1997H11.8297L11.6397 19.2301L11.2697 19.1401L11.0897 18.8601L10.8997 18.6701L10.8097 18.4001L10.7197 18.2101V17.8401V17.5601L10.8097 17.2801L10.8997 17.0001L11.0897 16.8201L11.2697 16.6301L11.6397 16.4501L11.8297 16.3501H12.1997Z" fill="black"/>
<path fill-rule="evenodd" clip-rule="evenodd" d="M48.7298 17.6503L48.3598 17.2803L48.0798 17.0003L47.7998 16.7203L47.6198 16.3503L47.2498 16.0803L47.0598 15.7003L46.7798 15.4203L46.5098 14.9603L46.2298 14.7803L45.9498 14.4003L45.7698 14.1303L45.4898 13.7603L45.2998 13.4803L45.0298 13.1103L44.8398 12.8303L44.6498 12.3603L44.3798 12.1803L44.1898 11.8103L43.9998 11.5303L43.8198 11.1503L43.6298 10.8803L43.4498 10.6003L43.1698 10.2303L43.0798 9.95025L42.8898 9.67025L42.6998 9.39025L42.5198 9.11025L42.4298 8.74025L42.3298 8.56025L42.0598 8.28025L41.9698 8.00025L41.8698 7.63025L41.6898 7.44025L41.5898 7.26025L41.4098 6.98025L41.3098 6.70025L41.2198 6.51025L41.1298 6.24025L41.0398 6.05025L40.8498 5.87025L40.6698 5.49025L40.5698 5.12025L40.3898 4.75025V4.47025L40.1998 4.19025V4.01025L40.1098 3.82025V3.54025V3.45025H40.1998L40.3898 3.73025L40.5698 4.01025L40.6698 4.19025L40.8498 4.47025L41.1298 4.75025L41.4098 5.12025L41.6898 5.40025L41.8698 5.77025L42.1498 6.14025L42.5198 6.61025L42.6098 6.79025L42.7998 6.98025L42.9798 7.26025L43.1698 7.44025L43.2598 7.63025L43.4498 7.91025L43.6298 8.09025L43.8198 8.37025L43.9998 8.65025L44.2798 8.93025L44.3798 9.21025L44.6498 9.39025L44.7498 9.67025L45.0298 9.95025L45.1198 10.2303L45.3898 10.4103L45.5798 10.7803L45.7698 11.0603L45.9498 11.3403L46.2298 11.6203L46.5098 11.9003L46.6898 12.1803L46.9698 12.4603L47.2498 12.6403L47.4398 13.0103L47.7098 13.2903L47.8998 13.6603L48.0798 13.8503L48.2698 14.1303L48.5498 14.5003L48.8298 14.7803L49.0098 14.9603L49.2898 15.3303L49.5698 15.6103L49.8498 15.8903L50.0298 16.1703L50.2198 16.4503L50.4998 16.7203L50.6798 17.0003L51.0498 17.1903L50.9598 17.0003L50.8698 16.7203V16.4503V16.0803L50.6798 15.8003V15.4203V14.9603L50.4998 14.5903L50.3998 14.2203L50.3098 13.7603L50.2198 13.5703L50.1198 13.3803L50.0298 13.1103V12.9203L49.8498 12.6403V12.4603L49.6598 12.1803L49.5698 11.9903L49.4798 11.7103L49.3798 11.5303L49.2898 11.2503L49.1998 10.9703L48.9198 10.6003L48.7298 10.1403L48.5498 9.95025L48.3598 9.67025L48.1798 9.39025L48.0798 9.21025L47.8998 8.93025L47.7098 8.74025L47.5298 8.46025L47.3398 8.28025L47.1598 8.00025L46.9698 7.72025L46.6898 7.44025L46.5998 7.26025L46.3198 6.98025L46.1398 6.70025L45.8598 6.42025L45.6698 6.14025L45.3898 5.96025L45.2098 5.77025L44.9298 5.49025L44.7498 5.22025L44.4698 4.94025L44.2798 4.75025L43.9998 4.47025L43.8198 4.19025L43.5398 4.01025L43.3598 3.82025L43.0798 3.54025L42.8898 3.36025L42.6098 3.17025L42.3298 2.99025L42.1498 2.71025L41.8698 2.52025L41.6898 2.43025L41.4098 2.24025L41.2198 2.06025L41.0398 1.88025L40.7598 1.78025L40.5698 1.69025L40.3898 1.50025L40.1998 1.41025L39.7398 1.22025L39.4598 1.04025L39.0898 0.850254L38.7198 0.760254H38.4398L38.2598 0.760254L37.9798 0.850254L37.7898 1.04025L37.6998 1.22025L37.6098 1.41025L37.5098 1.78025V2.06025V2.52025V2.89025V3.27025V3.73025V3.92025L37.6098 4.19025V4.38025L37.6998 4.57025V4.85025L37.7898 5.12025V5.31025L37.8898 5.59025L37.9798 5.87025V6.14025L38.0698 6.42025L38.2598 6.61025V6.89025L38.4398 7.26025L38.5298 7.44025L38.6298 7.72025L38.8098 8.09025L38.8998 8.28025L39.0898 8.56025L39.2798 8.84025L39.3698 9.21025L39.5498 9.39025L39.7398 9.76025L39.9198 10.0403L40.0198 10.3203L40.2998 10.6003L40.4798 10.8803L40.6698 11.1503L40.8498 11.5303L41.1298 11.7103L41.4098 11.9903L41.6898 12.3603L41.8698 12.6403L42.1498 12.9203L42.4298 13.2003L42.6998 13.4803L42.9798 13.7603L43.3598 14.1303L43.6298 14.3103L43.9998 14.5903L44.2798 14.8703L44.6498 15.1503L45.0298 15.4203L45.3898 15.6103L45.7698 15.9803L46.1398 16.1703L46.5098 16.4503L46.9698 16.7203L47.3398 16.9103L47.7998 17.1903L48.2698 17.3703L48.7298 17.6503Z" fill="black"/>
<path fill-rule="evenodd" clip-rule="evenodd" d="M82.1199 25.7305L82.3899 25.8205L82.7599 25.9105L83.0399 26.1005L83.3199 26.2905L83.4999 26.5605L83.6899 26.7505L83.7799 27.2105L83.8799 27.4905L83.7799 27.8605L83.6899 28.2405L83.4999 28.5105L83.3199 28.7005L83.0399 28.9805L82.7599 29.1605L82.3899 29.2505H82.1199H81.7399L81.3699 29.1605L81.0899 28.9805L80.8199 28.7005L80.5399 28.5105L80.4499 28.2405L80.2599 27.8605V27.4905V27.2105L80.4499 26.7505L80.5399 26.5605L80.8199 26.2905L81.0899 26.1005L81.3699 25.9105L81.7399 25.8205L82.1199 25.7305Z" fill="black"/>
</svg>
