<svg width="172" height="48" viewBox="0 0 172 48" fill="none" xmlns="http://www.w3.org/2000/svg">
<path fill-rule="evenodd" clip-rule="evenodd" d="M90.41 21.06L89.46 20.66L88.51 20.27L87.56 19.87L86.61 19.47L85.66 19.07L84.78 18.68L83.83 18.28L82.96 17.88L80.67 16.85L78.37 15.9L75.92 14.86L73.46 13.83L71.01 12.79L68.48 11.84L65.86 10.81L63.25 9.92999L60.72 8.98L58.11 8.10001L55.49 7.31L52.88 6.59L50.35 5.88L47.81 5.31999L45.36 4.77L42.91 4.28999L40.53 3.97L38.23 3.73L36.02 3.56999L33.88 3.5L31.82 3.56999L29.92 3.81L28.1 4.13L26.36 4.61L24.86 5.31999L23.43 6.03999L22.09 6.99001L20.98 8.19L20.03 9.45999L19.23 10.97L18.68 12.64L18.29 14.46L18.13 16.53L18.29 18.44L18.68 20.19L19.31 21.86L20.11 23.37L21.14 24.72L22.24 25.99L23.51 27.1L24.22 27.66L24.86 28.14L25.49 28.61L26.2 29.09L26.91 29.57L27.71 29.88L28.5 30.28L29.37 30.52L30.56 31.08L31.74 31.55L33.09 31.79L34.43 32.03H35.78H37.13L38.47 31.87L39.66 31.55L40.77 31.16L41.72 30.6L42.59 30.04L43.22 29.25L43.62 28.45L43.78 27.5L43.62 26.47L43.22 25.35L41.8 25.43L40.77 25.19L40.21 24.64L39.98 23.92L40.05 23.13L40.37 22.33L40.85 21.7L41.48 21.3L42.11 20.98L42.91 20.9L43.7 21.06L44.49 21.38L45.2 22.02L45.76 22.89L46.07 24V25.35L45.91 26.31L45.76 27.26L45.44 28.21L45.04 29.09L44.57 29.88L44.01 30.68L43.38 31.39L42.59 32.03L41.64 32.51L40.61 32.98L39.42 33.3L38.16 33.46L36.65 33.54L35.07 33.38L33.33 33.14L31.35 32.74L29.05 32.03L26.84 30.92L24.7 29.65L22.72 28.06L20.9 26.39L19.31 24.4L17.97 22.41L16.94 20.27L16.15 18.04L15.75 15.9V13.67L16.15 11.52L17.02 9.38L18.36 7.47L20.26 5.64L22.72 3.97L24.3 3.17999L25.88 2.45999L27.55 1.83L29.21 1.27L30.95 0.869995L32.77 0.550003L34.59 0.319992L36.49 0.0800018L38.47 0H40.45L42.43 0.160004L44.49 0.319992L46.63 0.550003L48.84 0.789993L51.06 1.19L53.28 1.67L55.57 2.22L57.95 2.78L60.4 3.42L62.86 4.13L65.31 4.92999L67.92 5.72L70.54 6.59L73.15 7.55L75.84 8.58L78.61 9.62L81.38 10.73L84.23 11.84L87.16 13.03L90.09 14.23L93.1 15.5L96.11 16.77L90.41 21.06Z" fill="black"/>
<path fill-rule="evenodd" clip-rule="evenodd" d="M90.41 21.0598L92.54 21.9298L94.68 22.7298L96.9 23.5298L99.03 24.3198L101.25 25.1098L103.39 25.8298L105.61 26.4698L107.74 27.0998L109.88 27.7398L112.02 28.2898L114.16 28.8498L116.21 29.3298L118.27 29.7198L120.25 30.1198L122.23 30.4398L124.21 30.6798L126.11 30.9198L127.93 31.0798L129.75 31.1598H131.49L133.16 31.0798L134.82 30.9998L136.32 30.7598L137.83 30.5198L139.25 30.1198L140.6 29.7198L141.78 29.2498L142.97 28.6098L144 27.9798L144.95 27.1798L145.82 26.3098L146.61 25.3498L148.43 21.9298L149.23 18.7598L149.07 15.8198L148.2 13.0298L146.77 10.6498L145.03 8.57983L142.97 6.82983L140.99 5.55983L138.14 4.20982L135.21 3.09984L132.2 2.37984L129.2 1.98984L126.19 1.82983L123.1 1.98984L119.94 2.29984L116.85 2.93983L113.68 3.72983L110.51 4.76984L107.35 5.95982L104.1 7.30983L100.94 8.73984L97.77 10.3298L94.68 12.0798L91.51 13.8298L90.25 14.5398L88.98 15.3398L87.63 16.1298L86.29 16.9298L84.86 17.7998L83.44 18.5998L82.01 19.4698L80.59 20.3498L79.08 21.2198L77.58 22.0898L76 23.0498L74.41 23.9198L72.83 24.7998L71.25 25.6698L69.66 26.5398L68 27.4198L70.22 28.2098L72.99 26.6998L75.84 25.1098L78.69 23.5998L81.54 22.0898L84.47 20.5798L87.32 19.0698L90.25 17.6398L93.1 16.2098L96.03 14.8598L98.88 13.5098L101.73 12.3198L104.58 11.1298L107.35 10.0098L110.12 8.97983L112.81 8.09984L115.5 7.22983L118.11 6.51984L120.65 5.95982L123.1 5.47983L125.48 5.15984L127.77 4.92982H129.99L132.13 5.00983L134.19 5.23984L136.08 5.71983L137.91 6.35983L139.57 7.14983L141.15 8.18983L142.58 9.37984L143.84 10.8098L144.95 12.4798L145.98 14.3098L146.85 16.7698L146.93 18.9898L146.38 20.8998L145.19 22.4898L143.45 23.8398L141.39 24.9598L138.86 25.7498L136.08 26.3898L133 26.6998L129.83 26.8598H126.66L123.42 26.5398L120.25 26.1498L117.24 25.5098L114.39 24.7198L111.94 23.7598L110.91 23.2898L109.88 22.8098L108.85 22.4098L107.9 21.9298L106.87 21.4598L105.84 21.0598L104.89 20.5798L103.86 20.1898L102.91 19.7098L101.89 19.3098L100.94 18.9098L99.98 18.4398L98.96 18.0398L98.01 17.6398L97.06 17.1698L96.11 16.7698L90.41 21.0598Z" fill="black"/>
<path fill-rule="evenodd" clip-rule="evenodd" d="M68 27.42L65.47 28.69L62.94 29.96L60.4 31.16L57.79 32.27L55.18 33.38L52.56 34.49L49.87 35.45L47.18 36.32L44.49 37.2L41.8 37.91L39.11 38.55L36.41 39.02L33.72 39.42L31.03 39.74L28.34 39.9H25.73L23.51 39.82L21.29 39.58L19.16 39.34L17.02 38.94L14.88 38.55L12.9 37.91L11 37.28L9.26 36.48L7.60001 35.53L6.17001 34.49L4.91 33.38L3.8 32.03L3.01 30.6L2.37 29.01L2.06001 27.26V25.35L2.29 23.76L2.85001 22.25L3.64001 20.82L4.67001 19.55L5.86 18.36L7.28001 17.25L8.79 16.29L10.53 15.5L12.35 14.78L14.25 14.15L16.15 13.67L18.13 13.35L20.18 13.11L22.16 13.03L24.14 13.11L26.04 13.27L28.42 13.59L30.71 13.99L33.01 14.38L35.23 14.86L37.44 15.34L39.66 15.82L41.8 16.37L43.94 16.93L45.99 17.56L48.05 18.2L50.11 18.84L52.09 19.47L54.15 20.19L56.13 20.82L58.11 21.62L60.08 22.33L62.06 23.05L63.96 23.84L65.94 24.64L67.92 25.43L69.9 26.23L71.88 27.1L73.86 27.9L75.84 28.77L77.82 29.57L79.8 30.44L81.86 31.31L83.91 32.19L85.97 33.06L88.11 33.86L90.25 34.73L92.38 35.61L93.18 35.92L93.89 36.16L94.68 36.48L95.47 36.8L96.26 37.04L97.06 37.35L97.93 37.59L98.72 37.83L99.59 38.15L100.38 38.39L101.25 38.63L102.12 38.94L102.99 39.18L103.86 39.42L104.73 39.66L105.61 39.9L108.38 35.13L107.35 34.81L106.4 34.49L105.45 34.1L104.5 33.78L103.55 33.38L102.6 33.06L101.73 32.67L100.86 32.35L97.85 31L94.76 29.65L91.43 28.29L88.11 26.86L84.55 25.43L80.98 24L77.26 22.57L73.54 21.22L69.74 19.87L65.94 18.52L62.06 17.25L58.19 16.05L54.31 14.94L50.51 13.91L46.71 13.03L42.91 12.16L39.19 11.52L35.54 10.97L32.06 10.57L28.66 10.33L25.33 10.25L22.16 10.33L19.08 10.65L16.23 11.13L13.54 11.84L11.08 12.79L8.79 13.99L6.73 15.34L4.83 17.09L3.24001 18.99L1.9 21.22L0.870003 23.76L0.310005 25.75L0 27.66V29.49L0.230003 31.08L0.710007 32.67L1.42001 34.02L2.37 35.37L3.56001 36.48L4.91 37.51L6.49001 38.47L8.23 39.26L10.13 39.98L12.19 40.53L14.4 41.01L16.78 41.33L19.23 41.57L21.77 41.73H24.46L27.23 41.65L30.08 41.41L33.01 41.09L35.94 40.69L38.95 40.14L41.95 39.5L45.04 38.71L48.13 37.83L51.22 36.88L54.23 35.84L57.23 34.65L60.24 33.38L63.17 32.03L66.1 30.52L66.58 30.28L67.13 29.96L67.61 29.72L68.16 29.41L68.71 29.09L69.19 28.77L69.74 28.53L70.22 28.21L68 27.42Z" fill="black"/>
<path fill-rule="evenodd" clip-rule="evenodd" d="M105.61 39.9L107.74 40.46L109.88 41.01L112.1 41.49L114.31 41.97L116.53 42.44L118.83 42.84L121.12 43.16L123.34 43.55L125.64 43.87L127.93 44.11L130.15 44.35L132.44 44.51L134.66 44.67L136.88 44.75L139.09 44.83H141.23L143.37 44.75L145.43 44.67L147.48 44.51L149.46 44.35L151.44 44.03L153.34 43.71L155.16 43.32L156.91 42.92L158.57 42.36L160.23 41.81L161.73 41.17L163.16 40.46L164.51 39.66L165.77 38.79L166.96 37.91L167.99 36.88L169.1 35.53L170.05 34.1L170.68 32.59L171.16 31L171.31 29.33L171.23 27.74L171 26.07L170.44 24.48L169.73 22.97L168.7 21.54L167.51 20.19L166.09 18.99L164.43 17.96L162.53 17.01L160.47 16.37L158.09 15.9L154.77 15.5L151.6 15.26H148.43L145.43 15.34L142.42 15.58L139.57 15.97L136.8 16.53L134.03 17.09L131.41 17.88L128.8 18.68L126.27 19.63L123.81 20.58L121.36 21.62L118.98 22.73L116.69 23.84L114.39 25.03L113.2 25.67L111.94 26.39L110.59 27.1L109.09 27.98L107.51 28.85L105.92 29.72L104.18 30.68L102.36 31.63L100.54 32.67L98.56 33.62L96.58 34.65L94.52 35.61L92.46 36.64L90.25 37.59L88.03 38.55L85.81 39.5L83.52 40.38L81.14 41.25L78.77 42.04L76.39 42.76L73.94 43.4L71.48 44.03L69.03 44.51L66.58 44.91L64.12 45.3L61.59 45.54L59.14 45.62H56.6L54.15 45.54L51.69 45.22L49.24 44.91L46.79 44.35L46.15 43.32L45.52 42.52L44.81 41.97L44.09 41.57L43.46 41.49H42.83L42.27 41.73L41.8 42.2L41.48 42.76V43.4L41.64 44.03L41.95 44.67L42.43 45.3L42.98 45.78L43.62 46.18L44.17 46.5L45.2 46.81L46.39 47.13L47.58 47.37L48.92 47.53L50.27 47.69L51.77 47.77H53.28H54.86L56.52 47.69L58.26 47.53L60.01 47.37L61.91 47.13L63.73 46.81L65.7 46.42L67.69 46.02L69.74 45.54L71.8 45.07L73.94 44.51L76.08 43.87L78.29 43.24L80.51 42.52L82.73 41.73L85.02 40.93L87.32 39.98L89.61 39.1L91.91 38.07L94.28 37.04L96.58 35.92L98.96 34.81L101.33 33.62L103.71 32.35L106.08 31.08L108.46 29.8L110.91 28.53L113.44 27.34L115.98 26.23L118.59 25.19L121.2 24.24L123.81 23.29L126.43 22.49L129.04 21.7L131.65 21.06L134.26 20.42L136.8 19.87L139.33 19.47L141.78 19.07L144.24 18.76L146.53 18.6L148.83 18.52L151.05 18.44L153.18 18.52L155.24 18.68L157.14 18.99L158.96 19.31L160.63 19.79L162.21 20.35L163.64 20.98L164.9 21.7L166.01 22.57L166.96 23.53L167.75 24.64L168.31 25.83L168.7 27.1L168.94 28.53V29.72L168.7 30.92L168.31 32.03L167.67 32.98L166.88 33.94L165.85 34.81L164.66 35.61L163.4 36.4L161.89 37.04L160.31 37.67L158.57 38.15L156.75 38.63L154.77 39.02L152.63 39.34L150.49 39.66L148.28 39.82L145.9 39.98L143.53 40.06L141.07 40.14L138.62 40.06L136.08 39.98L133.47 39.82L130.94 39.58L128.33 39.34L125.71 39.02L123.18 38.63L120.57 38.15L118.04 37.67L115.58 37.12L113.13 36.48L110.67 35.84L108.38 35.13L105.61 39.9Z" fill="black"/>
</svg>
