<svg width="83" height="82" viewBox="0 0 83 82" fill="none" xmlns="http://www.w3.org/2000/svg">
<path fill-rule="evenodd" clip-rule="evenodd" d="M64.97 32.7798L65.1099 32.7099L65.3199 32.5699L65.46 32.4299L65.6099 32.3599L65.6799 32.1399L65.89 31.9299L66.03 31.7899L66.1799 31.4999L66.3199 31.2899L66.39 31.0799L66.53 30.8599V30.5799L66.46 30.3699L66.3199 30.0799L66.2499 29.8699L66.1799 29.5799L65.96 29.4399L65.7499 29.2299L65.53 29.0099L65.3199 28.8699L65.0399 28.7299L64.7499 28.5898L64.47 28.5199L64.1799 28.4499H63.89H63.5399H63.2499L62.97 28.5898L62.6799 28.6599L62.4 28.7999L62.1099 29.0099L61.9 29.2999L61.5399 29.4399L61.2599 29.6599L60.97 29.9399L60.6899 30.2199L60.33 30.5799L59.97 30.8599L59.83 31.0799L59.7599 31.2899L59.5399 31.4999L59.47 31.7199L59.33 31.9999L59.2599 32.2899L59.1199 32.4999L58.97 32.7798L58.9 33.1399L58.83 33.4199L58.6899 33.7798V34.0599V34.2798L58.6199 34.4199V34.6299L58.5499 34.8499V35.0599V35.1999L58.4799 35.4199V35.6999V35.9099V36.1299L58.5499 36.3398V36.5499V36.8398L58.6199 36.9799V37.1899V37.4099L58.6899 37.6199L58.7599 37.8299L58.83 38.0499L58.9 38.1899L58.97 38.4699V38.6899L59.1199 38.8299L59.1899 39.0399L59.2599 39.2599L59.33 39.4699L59.47 39.6099L59.5399 39.8998L59.7599 40.1799L59.97 40.6099L60.1199 40.7499L60.1899 40.9599L60.33 41.1799L60.4 41.3199L60.6899 41.7499L60.83 42.0298L61.1099 42.3899L61.33 42.7399L61.6099 43.1699L61.83 43.4499L62.1099 43.8099L62.33 44.0898L62.5399 44.4499L62.7499 44.7299L62.9 45.0898L63.1799 45.4399L63.4 45.7299L63.47 46.0099L63.6799 46.2999L63.8199 46.5799L63.89 46.8699L64.0399 47.1498V47.4299L64.1799 47.7899L64.2499 47.9999V48.2899V48.5699V48.7899V49.0699L64.1799 49.2798V49.4999L64.1099 49.7099L64.0399 49.9199L63.97 50.1399L63.7499 50.4899L63.47 50.7798L63.1799 51.0599L62.9 51.1999L62.6799 51.2798L62.47 51.3499L62.33 51.4899H62.1099H61.9H61.6799H61.47H61.1799L60.97 51.4199L60.6899 51.3499L60.47 51.2798L60.1899 51.0599H59.97L59.6899 50.8499L59.47 50.6399L59.1899 50.3499L58.97 50.0699L58.6899 49.7099L58.5499 49.6399L58.4799 49.3599L58.2599 49.1399L58.1899 48.9999L58.0499 48.7899L57.9 48.5699V48.3599L57.6899 48.1498L57.6199 47.9299L57.4799 47.7198L57.33 47.4299L57.26 47.1498L57.1199 46.9399L57.0499 46.6498L56.91 46.4399L56.76 46.1599L56.6899 45.9399L56.6199 45.5898L56.4799 45.3699L56.34 45.0898L56.26 44.7999L56.1899 44.5199V44.3099L56.0499 44.0199L55.9799 43.7399L55.91 43.4499L55.84 43.1699L55.6899 42.8799L55.6199 42.5999L55.5499 42.3099V42.0999L55.41 41.7499L55.34 41.5298V41.2499L55.27 40.9599L55.1899 40.6799V40.4599L55.1199 40.1799V39.8998L55.0499 39.6099V39.3998V39.1799L54.9799 38.8998V38.6899V38.4699V38.1899V38.0499L54.91 37.7599V37.6199V37.4099V37.1899V36.9799L54.9799 36.6999L55.0499 36.3398L55.1199 35.9799V35.6999L55.1899 35.4199L55.27 35.1299L55.34 34.8499V34.5599L55.4799 34.2798L55.5499 34.0599L55.6199 33.8499V33.5699L55.76 33.3499L55.84 33.1399L55.91 32.8499V32.6399L56.0499 32.4299L56.1899 32.2899L56.26 32.0699L56.34 31.7899L56.4799 31.4999L56.6899 31.0799L56.91 30.7899L57.1199 30.4399L57.33 30.1498L57.6199 29.7999L57.9 29.5099L58.0499 29.2999L58.1899 29.0099L58.33 28.7999L58.4799 28.4499L58.5499 28.2999L58.4799 28.2299H58.4L58.1899 28.4499L57.9 28.6599L57.6899 28.7999L57.4799 29.0099L57.33 29.2999L57.0499 29.5099L56.76 29.8699L56.4799 30.1498L56.26 30.3699L56.1199 30.5799L55.9799 30.7199L55.84 30.9299L55.6199 31.2199L55.5499 31.4999L55.34 31.7899L55.1899 32.0699L55.1199 32.4299L54.9799 32.7099L54.84 33.0699L54.7 33.4199L54.6199 33.6399L54.5499 33.8499V34.0599L54.41 34.2099V34.4199L54.34 34.6299L54.27 34.8499L54.2 35.0599V35.3398L54.1299 35.5599L54.0499 35.7699L53.9799 35.9799V36.2699L53.91 36.5499V36.7699L53.84 36.9799V37.3299L53.77 37.5499V37.9099L53.7 38.1199V38.3998V38.6899V38.8998V39.1799L53.77 39.4699L53.84 39.6799V39.9699V40.1799L53.91 40.4599V40.7499L53.9799 40.9599V41.2499L54.0499 41.4599V41.7499L54.2 41.9599V42.2399L54.27 42.4599L54.34 42.6699L54.41 42.9499V43.1699L54.5499 43.3799V43.5898L54.7 43.8099V44.0898L54.84 44.3099V44.4499L54.9799 44.6599V44.8699L55.1199 45.1599V45.2999L55.27 45.5099L55.34 45.7299L55.41 45.9399L55.4799 46.0799L55.5499 46.2999L55.6199 46.5099L55.84 46.8699L55.91 47.2198L56.1199 47.5099L56.1899 47.8599L56.34 48.1498L56.4799 48.4999L56.6199 48.7899L56.6899 48.9299L56.76 49.1399L56.91 49.3599L56.9799 49.5699V49.6399L57.0499 49.9199L57.1199 50.2798V50.5599V50.8499V51.1299V51.3499L57.0499 51.6299L56.91 51.8398L56.76 52.1299L56.6199 52.3398L56.41 52.4799L56.1199 52.6299L55.84 52.7699L55.4799 52.8398L55.27 52.9799H55.0499H54.84H54.5499H54.34H54.1299H53.91H53.6299L53.41 52.9099L53.1299 52.8398L52.91 52.7699L52.6299 52.6999L52.41 52.6299L52.1299 52.4799L51.9899 52.4099L51.7 52.2699L51.4899 52.1299L51.2 51.9899L50.9899 51.8398L50.77 51.6299L50.5599 51.4899L50.3499 51.2798L50.1299 51.0599L49.9899 50.7798L49.77 50.4899L49.5599 50.2099L49.4199 49.9199L49.21 49.6399L49.0599 49.2798L48.9199 48.9299V48.7899L48.8499 48.5699L48.71 48.3599L48.6299 48.1498V47.9299L48.5599 47.7899V47.5799L48.4199 47.3599V47.1498V46.8699L48.3499 46.6498L48.28 46.3699V46.2198L48.21 45.9399V45.7299V45.4399V45.2299L48.1299 45.0199V44.7999V44.5199V44.3799L48.0599 44.0898V43.8099V43.5898V43.3799V43.1699V42.9499L47.9899 42.6699L48.0599 42.3899V42.1699V41.9599V41.7499V41.5298V41.2499V40.9599V40.7499L48.1299 40.5399V40.3199V40.1099V39.8199L48.21 39.6099V39.3299L48.28 39.0399V38.8299L48.4199 38.6199V38.3998L48.4899 38.1199L48.5599 37.9099L48.6299 37.6199V37.4099L48.78 37.1199L48.8499 36.9099L48.9199 36.6999L48.9899 36.4099L49.0599 36.1999L49.1299 35.9799L49.21 35.6999L49.3499 35.4199L49.4199 35.1999L49.4899 34.9199L49.6299 34.6999L49.77 34.4199L49.8499 34.2798L49.9899 33.9899L50.1299 33.7798L50.27 33.4999L50.3499 33.2099L50.4899 32.9299L50.6299 32.7798L50.8499 32.4999L50.9899 32.2899L51.1299 31.9999L51.27 31.7899L51.4899 31.4999L51.6299 31.2899L51.77 31.0099L51.9899 30.7899L52.1299 30.5799L52.27 30.3699L52.4899 30.1498L52.7 29.8699L52.84 29.6599L53.1299 29.4399L53.27 29.2299L53.41 29.0099L53.7 28.7999L53.91 28.6599L54.0499 28.4499L54.27 28.2299L54.41 28.0199L54.6199 27.8799L54.84 27.5898L55.0499 27.5199L55.1899 27.3099L55.41 27.1699L55.6199 27.0199L55.84 26.8099L56.0499 26.6699L56.26 26.5199L56.4799 26.3799L56.6899 26.2399L56.91 26.0999L57.0499 25.9599L57.33 25.8899L57.4799 25.7399L57.6899 25.5999L57.9 25.5298L58.1199 25.3899L58.4 25.3199L58.5499 25.1699L58.7599 25.0999L58.97 25.0298L59.2599 24.9599L59.4 24.8899L59.6199 24.8199L59.83 24.7499H60.1199L60.33 24.6799L60.47 24.5999L60.6899 24.5298H60.97H61.1099H61.33L61.5399 24.4599L61.83 24.5298H61.97H62.1799H62.4H62.6099H62.83L63.0399 24.5999H63.2499L63.47 24.6799L63.6799 24.7499L63.89 24.8199H64.0399L64.3199 24.9599L64.5399 25.0298L64.6799 25.0999H64.89L65.1099 25.3199L65.3199 25.3899L65.46 25.5298L65.6799 25.5999L65.96 25.8899L66.2499 26.0298L66.6099 26.3099L66.8199 26.5199L67.03 26.8099L67.1699 27.0898L67.39 27.3099L67.53 27.5898L67.6699 27.8799L67.7499 28.1599L67.8199 28.4499L67.96 28.6599V28.9399V29.2299V29.5099V29.7299V30.0099V30.2199L67.89 30.5099L67.8199 30.7199L67.7499 30.9299L67.6699 31.1498L67.5999 31.3599L67.46 31.5699L67.39 31.7899L67.2499 31.8599L66.96 32.2099L66.6799 32.3599L66.46 32.6399H66.2499L66.03 32.8499H65.8199L65.53 32.9299H65.3199L65.1099 32.8499L64.97 32.7798Z" fill="black"/>
<path fill-rule="evenodd" clip-rule="evenodd" d="M62.7497 59.3799H62.8997H63.0397H63.2497H63.5397L63.8197 59.45H64.1097L64.3897 59.5299H64.6797H65.0397H65.3197H65.6797L65.8897 59.45H66.1797L66.3897 59.3799L66.5297 59.2399L66.6797 59.0999L66.8197 58.8099V58.46L66.6097 58.2499L66.3897 57.89L66.2497 57.7499L66.1797 57.46L66.1097 57.3199L65.9597 57.1099V56.89V56.5399V56.3999V56.2499V56.0399V55.83L66.2497 55.4699L66.4597 55.1899L66.6097 54.9699L66.8197 54.76L66.9597 54.6199L67.0997 54.4099L67.3897 54.26L67.5997 54.1199L67.8197 53.9799L68.0297 53.8399L68.2497 53.6899L68.5297 53.5499L68.8097 53.4799L69.0297 53.3399L69.3897 53.27H69.6697H70.0297L70.3097 53.2L70.5997 53.27H70.8797H71.2397H71.5197L71.8097 53.4799L72.1697 53.5499L72.3797 53.77L72.6697 53.9099L72.9497 54.1199L73.2397 54.4099L73.5197 54.6199L73.7397 54.8999L74.0197 55.26L74.2397 55.6099L74.4497 55.9699L74.6597 56.3199L74.8797 56.6099L75.0897 56.89L75.2297 57.1799L75.3797 57.46L75.5197 57.7499L75.7297 58.0999L75.7997 58.39L75.9497 58.6699L76.0897 58.96L76.1597 59.1699L76.2997 59.45L76.3697 59.6699L76.5197 59.95L76.5897 60.2399L76.7997 60.3799L76.8697 60.5899L77.0197 60.8099L77.1597 61.0899L77.2297 61.2299L77.3697 61.3799L77.6597 61.7999L77.9397 62.0899L78.2997 62.3699L78.5897 62.5099L78.7997 62.58L79.0097 62.7299H79.2297H79.3697L79.6497 62.8699L79.9397 62.7999L80.2997 62.7299H80.5097L80.7297 62.58L80.8697 62.4399L81.2197 62.1599L81.4397 61.8699L81.6497 61.5899L81.8697 61.52L81.9397 61.5899H82.0097L82.1497 61.7999V61.9399L82.2197 62.2299V62.4399V62.7299L82.1497 63.0099L82.0797 63.3699L81.9397 63.6499L81.7897 64.0099L81.5097 64.2199L81.3697 64.3599L81.2197 64.4299L81.0097 64.58L80.7997 64.6499L80.5797 64.7199L80.2997 64.7899L80.0097 64.8599H79.7297L79.4397 64.9299H79.1497L78.8697 64.9999L78.5097 65.1499L78.1597 65.21L77.7997 65.3599L77.4397 65.4999L77.0897 65.5699L76.7297 65.7899L76.2997 65.9299L76.0197 66.0699L75.6597 66.2799L75.2997 66.4199L74.9497 66.64L74.7297 66.71L74.5197 66.7799L74.3797 66.9199H74.1597L73.8097 67.21L73.4497 67.3499L73.0897 67.4899L72.7397 67.7L72.3797 67.8499L72.0997 68.0599L71.8097 68.2L71.4497 68.27L71.1697 68.4899L70.8097 68.5599L70.5297 68.7L70.2397 68.77L70.0297 68.8399L69.7397 68.9099L69.5297 68.9799H69.3097H69.0997L68.8897 69.0599H68.7397L68.5297 68.9799H68.2497H68.0997L67.8897 68.9099L67.6697 68.8399L67.3197 68.77L66.9597 68.6299L66.6097 68.4899L66.2497 68.2L65.9597 68.0599L65.6797 67.7799L65.4597 67.4899L65.1797 67.21L65.0397 66.8499L64.8897 66.4999L64.8197 66.14L64.6797 65.7899V65.4999V65.0699L64.7497 64.7199V64.3599L64.8897 64.0099V63.6499L65.0397 63.3699L65.1797 63.0099L65.3197 62.7999L65.4597 62.5099L65.6797 62.3699L65.8197 62.0899L66.1097 61.9399L66.3197 61.7999L66.6797 61.7299L66.9597 61.6599L67.1697 61.7299H67.3897H67.5997L67.7497 61.7999L67.9597 61.8699H68.1697H68.3897L68.5297 61.9399L68.8097 62.0899L69.0297 62.1599L69.2397 62.2299L69.4597 62.2999L69.6697 62.4399H69.8797L70.1697 62.58L70.3797 62.6599L70.6697 62.7299L70.8797 62.8699L71.0997 62.9399L71.3097 63.0099L71.5997 63.1499L71.8797 63.2199L72.0997 63.2999L72.3097 63.3699L72.5197 63.5099L72.7397 63.58H73.0197L73.2397 63.6499H73.4497L73.6597 63.7199H73.8797H74.0897H74.3797H74.5197H74.7297H74.9497H75.2997H75.5897H75.8797H76.0897H76.2997L76.4497 63.6499H76.7997L76.8697 63.58L77.0197 63.4399V63.2999H76.9497H76.6597H76.5897H76.2997H76.0897L75.7997 63.2199H75.5897H75.2997H74.9497L74.6597 63.1499L74.3797 63.0099H73.9497L73.5897 62.8699L73.2397 62.7299L72.8797 62.58L72.4497 62.4399H72.3097L72.1697 62.3699L71.9497 62.2299L71.7397 62.1599L71.3797 62.0899L71.0297 61.8699H70.8097L70.6697 61.7999L70.4597 61.7299L70.2397 61.5899L69.8797 61.52L69.5997 61.3799L69.2397 61.2999L68.8897 61.1599L68.5997 61.0899L68.2497 61.02L68.0297 60.95L67.7497 60.8799H67.4597L67.2497 60.8099H66.9597H66.6097L66.3897 60.8799L66.1097 60.95H65.8197L65.5297 61.02L65.3897 61.0899L65.1797 61.1599L64.8897 61.2999L64.6797 61.3799L64.4697 61.45L64.2497 61.5899H64.0397L63.8197 61.7299L63.5397 61.9399L63.1797 62.1599L62.8997 62.4399L62.6097 62.5099L62.4697 62.7299H62.3297L62.1797 62.8699L62.1097 62.7999L62.0397 62.7299H61.9697V62.5099V62.2999V62.0899V61.7999L62.0397 61.45L62.1097 61.1599V60.8799L62.2497 60.5899L62.3297 60.3099L62.3997 60.02L62.4697 59.8799L62.6097 59.6699V59.5299L62.7497 59.3799Z" fill="black"/>
<path fill-rule="evenodd" clip-rule="evenodd" d="M57.2601 61.5199H57.1901H57.05L56.9101 61.5898H56.6901H56.48H56.1901L55.9101 61.7299H55.6201L55.3401 61.7999L55.1201 61.8699H54.9101H54.6201H54.4101L54.2701 61.7999L54.05 61.7299L53.9101 61.5898L53.7001 61.3799V61.0898L53.8401 60.8799L53.98 60.5898L54.05 60.5199V60.3099L54.2001 60.0898V59.8799V59.6699L54.1301 59.3799L54.05 59.0999L53.9101 58.6699L53.7701 58.3899L53.55 58.0298L53.2701 57.7499L52.8401 57.4599H52.7001L52.4901 57.3199L52.2701 57.1799L52.0601 57.1099H51.8401L51.6301 56.9599H51.3401L51.1301 56.8899H50.92H50.6301L50.35 56.9599H50.1301L49.85 57.0399L49.6301 57.1099L49.42 57.1799L49.1301 57.2499L48.92 57.3899L48.6301 57.4599L48.42 57.7499L48.2101 57.8199L47.9901 58.0298L47.7801 58.2499L47.5601 58.4599L47.35 58.7399L47.2801 59.0298L47.0601 59.3099L46.9901 59.5999L46.7801 59.8099L46.7101 60.1699L46.5701 60.3799L46.42 60.6599L46.2801 60.8799L46.2101 61.1599L46.1401 61.4499V61.7299L46.0001 61.9399L45.92 62.1599L45.85 62.4399L45.7801 62.7299L45.6401 62.8699L45.5701 63.1498L45.5001 63.3699V63.5799L45.35 63.7899L45.2801 64.0099L45.2101 64.2198L45.0701 64.4299L45.0001 64.5799L44.7801 64.9299L44.5701 65.2099L44.36 65.4999L44.0001 65.6399L43.7101 65.8599L43.36 65.9999L43.1401 66.0699H42.86H42.7201H42.4301L42.2201 65.9299L42.0001 65.7899L41.7201 65.6399L41.4301 65.4299L41.2201 65.2099L41.0801 65.1498L41.0001 65.2099V65.2899L40.9301 65.4299L40.86 65.5699V65.7899V66.0699L40.9301 66.2798L41.0001 66.5699L41.1501 66.8499L41.29 67.0599L41.5001 67.2798L41.7201 67.4899L41.9301 67.5599L42.0001 67.6999L42.2201 67.7798H42.36L42.5701 67.8499H42.79H43.0701H43.2201H43.5701H43.86L44.1401 67.9199L44.4301 67.9899L44.7101 68.0599H45.0001L45.2801 68.1299L45.6401 68.1999L46.0001 68.2699L46.35 68.4199L46.6401 68.5599L46.9901 68.6299L47.2801 68.7699L47.6401 68.8398L47.92 68.9799L48.2801 69.1299L48.6301 69.1999L48.92 69.3398L49.2101 69.4099L49.5601 69.5499L49.92 69.6999L50.2001 69.7699L50.4901 69.9099L50.7701 69.9799L51.1301 70.0499L51.3401 70.1899L51.6301 70.2699H51.7701H52.0601L52.2701 70.3398H52.4901H52.6301H53.0601L53.4101 70.2699H53.7001L54.05 70.1199L54.3401 69.9799L54.7001 69.7699L54.98 69.6299L55.1901 69.4099L55.48 69.1299L55.6201 68.9099L55.9101 68.6999L55.98 68.3499L56.1201 68.0599L56.1901 67.7798L56.2601 67.4899V67.2099V66.9199V66.5699L56.1901 66.2798L56.1201 65.9299L56.05 65.6399L55.9101 65.3599L55.8401 65.1498L55.6201 64.8599L55.55 64.6498L55.3401 64.4299L55.1201 64.2899L54.98 64.0799L54.7701 64.0099L54.48 63.8599H54.2001H53.9101H53.6301L53.2701 64.0099L52.98 64.1498L52.5601 64.2899L52.2701 64.4299L51.9101 64.6498L51.7701 64.7198L51.4901 64.8599L51.2701 64.9299L51.1301 64.9999L50.92 65.1498L50.7001 65.2099L50.5601 65.2899L50.35 65.4299L50.1301 65.4999L49.9901 65.6399L49.7701 65.7899H49.4901L49.35 65.9299L49.2101 66.0699H48.92H48.7101L48.5601 66.2099L48.42 66.2798H48.1301H47.92L47.6401 66.3499L47.2801 66.4199H46.9901H46.7101L46.5701 66.4999H46.2801H46.1401H45.92H45.7801L45.5701 66.4199L45.5001 66.3499L45.42 66.2798L45.5701 66.2099L45.7101 66.1399H45.85H46.0001L46.2101 66.0699H46.42H46.7101H46.9901L47.2801 65.9999L47.4901 65.8599L47.7801 65.7899L48.0601 65.6399L48.35 65.5699L48.6301 65.3599L48.92 65.2099L49.2101 64.9999L49.4901 64.9299L49.85 64.7198L50.1301 64.6498L50.4901 64.4299L50.7701 64.2899L51.0601 64.1498L51.3401 64.0099L51.7001 63.8599L51.9901 63.7899L52.2001 63.6498L52.4901 63.5799L52.7001 63.4399L52.9101 63.3699L53.1301 63.2999L53.4101 63.2198L53.6301 63.1498H53.9101L54.1301 63.0799L54.3401 63.1498H54.55H54.8401H55.05L55.2701 63.2198H55.48L55.6201 63.2999H55.8401L56.05 63.3699L56.2601 63.4399L56.48 63.5799H56.55L56.9101 63.7198L57.1901 63.8599L57.48 64.0799L57.6901 64.1498L57.9001 64.2899L58.05 64.3599L58.1901 64.4299V64.3599H58.3301V64.2198V64.0799L58.2601 63.8599V63.7198L58.1901 63.5099V63.2198L58.05 62.9399L57.98 62.7299L57.9001 62.4399L57.7601 62.2299L57.6901 62.0199L57.6201 61.8699L57.48 61.7299L57.3301 61.5898L57.2601 61.5199Z" fill="black"/>
<path fill-rule="evenodd" clip-rule="evenodd" d="M59.6199 51.6999L56.9799 52.6299L57.0499 52.6999V52.8398L57.2599 53.1299L57.4099 53.4799L57.5499 53.6899L57.6199 53.9099L57.7599 54.1899L57.8999 54.4099L58.0499 54.7599L58.1199 55.0499L58.2599 55.3998L58.3999 55.6899L58.4799 55.8998L58.5499 56.0399L58.6199 56.3199L58.6899 56.4699V56.6099L58.8299 56.8899L58.8999 57.1099V57.2499L58.9699 57.4599L59.0499 57.7499L59.1199 57.8899L59.1899 58.0999L59.2599 58.3199V58.5298L59.3299 58.8099V59.0298L59.3999 59.2399L59.4699 59.4499L59.5399 59.7399V59.9499L59.6199 60.2399L59.6899 60.4499V60.7299V60.9499L59.7599 61.1599L59.8299 61.4499V61.7299V61.9399V62.2299V62.4399V62.7299V63.0099V63.3699V63.8599V64.1498V64.5799V64.9299V65.3599L59.7599 65.7899L59.6899 66.0699L59.6199 66.4999L59.5399 66.8499V67.2099L59.3999 67.5599L59.2599 67.9899L59.1899 68.2699L59.0499 68.6299L58.8999 68.9799L58.7599 69.3398L58.6199 69.6999L58.4799 69.9799L58.3299 70.2699L58.1899 70.6899L58.0499 70.9799L57.8299 71.2599L57.6199 71.5499L57.4099 71.8998L57.2599 72.1899L57.0499 72.4698L56.7599 72.6799L56.5499 73.0399L56.3399 73.2499L56.1199 73.4698L55.8399 73.6799L55.6199 73.9599L55.3399 74.1799L55.1199 74.4599L54.8399 74.5999L54.5499 74.8199L54.3399 75.0298L54.0499 75.2399L53.6999 75.3099L53.4099 75.5298L53.1299 75.6699L52.8399 75.8099L52.5599 75.9499L52.2699 76.0999L51.9899 76.1699L51.6299 76.2399L51.2699 76.3099L50.9899 76.3799L50.6299 76.4499L50.3499 76.5199H49.9899L49.6999 76.5999H49.3499H48.9899L48.6299 76.5199H48.3499L47.9199 76.4499H47.5599L47.2799 76.3799L46.9199 76.3099L46.4999 76.1699L46.1399 76.0999L45.7799 75.8799L45.4199 75.8099L45.1399 75.6699L44.7799 75.5298L44.4999 75.2399L44.2099 75.0999L43.9299 74.8899L43.6399 74.6799L43.2899 74.4599L43.0699 74.1799L42.7899 73.8899L42.4999 73.6799L42.2199 73.3998L41.9299 73.1799L41.7199 72.8998L41.4999 72.6099L41.2899 72.3299L41.1499 72.1099L40.8599 71.8998L40.7199 71.6899L40.5799 71.3998L40.4299 71.1899L40.2199 70.9099L40.0799 70.7599L39.9999 70.5499L39.7199 70.2699L39.5799 69.9799L39.5099 69.7699L39.4299 69.6999V69.7699H39.2199L39.1499 69.8398L39.0099 69.9099H38.8599H38.5799L38.4399 69.9799H38.2199L38.0799 70.0499H37.7899L37.5099 70.1199H37.2199L37.0099 70.1899H36.7299L36.9399 70.5499L37.0799 70.9099L37.2199 71.2599L37.3699 71.5499L37.5799 71.8998L37.7899 72.1899L37.9399 72.4698L38.0799 72.7499L38.3699 73.1099L38.5799 73.3998L38.7899 73.6099L39.0099 73.8899L39.2199 74.1799L39.4299 74.4599L39.7199 74.6799L39.9299 74.8899L40.2199 75.0999L40.4999 75.3099L40.7899 75.5298L40.9999 75.8099L41.3599 76.0298L41.6399 76.1699L41.9299 76.3799L42.2199 76.5999L42.4999 76.8099L42.8599 76.9499L43.2199 77.1599L43.5699 77.3099L43.9299 77.5199L44.2099 77.7299L44.6399 77.7999L44.9999 78.0199L45.2799 78.1599L45.5699 78.2999L45.8499 78.3699L46.1399 78.4399L46.4999 78.5898H46.7799H47.0599H47.3499H47.7099H47.9899H48.2799H48.4899H48.8499H49.0599H49.2799L49.4899 78.4399H49.7699H50.0599L50.1999 78.3699H50.3499H50.6299L50.8499 78.2999L50.9899 78.2299L51.1299 78.1599L51.3399 78.0898H51.5599H51.7699V78.1599L51.6299 78.2299L51.4899 78.3699L51.1999 78.4399L50.9199 78.5898L50.6299 78.7299L50.3499 78.8699H50.1999L49.9899 79.0099H49.6999L49.4899 79.1599H49.2099L48.9899 79.2299H48.7099L48.4199 79.2999L48.2099 79.3699H47.8499H47.5599H47.2799H46.9899H46.7099L46.3499 79.2999L46.0699 79.2299L45.7799 79.1599H45.4199L45.0699 79.0099L44.7799 78.9399L44.4999 78.8699L44.2099 78.7999L43.9299 78.5898H43.6399L43.2899 78.3699L42.9999 78.2999L42.7199 78.0898L42.4299 77.9499L42.1399 77.7999L41.8599 77.6599L41.5699 77.4499L41.2899 77.2299L40.9999 77.0898L40.7899 76.8799L40.4999 76.6699L40.2899 76.4499L39.9999 76.3099L39.7899 76.0999L39.5799 75.8099L39.3599 75.6699L39.1499 75.5298L38.9299 75.2399L38.7199 75.0298L38.5799 74.8899L38.3699 74.7499L38.2199 74.4599L38.0799 74.2499L37.8699 74.1099L37.7899 73.8899L37.5799 73.7499L37.4399 73.5399L37.2899 73.3199L37.1499 73.0399L36.9399 72.8299L36.7999 72.6099L36.7299 72.3998L36.5799 72.1899L36.4399 71.9698L36.2999 71.7599L36.0799 71.3998L35.7999 71.0499L35.6499 70.7599L35.5099 70.4099L35.2999 70.4799H35.0799L34.8699 70.5499H34.7299H34.5099L34.2999 70.6199L34.1599 70.6899H33.9399L33.7299 70.7599H33.5199H33.3699H33.2999V70.8299L33.3699 70.9099L33.4499 71.1899L33.5199 71.3998L33.5899 71.6199L33.6599 71.7599L33.7299 71.9698L33.8699 72.1899L33.9399 72.3998L34.0899 72.6099L34.1599 72.8299L34.2999 73.1099L34.5099 73.3998L34.7299 73.6799L34.8699 73.9599L35.0799 74.3199L35.3699 74.6799L35.5799 74.9599L35.9399 75.3099L36.1499 75.5999L36.3699 75.8099L36.5799 76.0298L36.7299 76.1699L36.9399 76.3799L37.1499 76.5999L37.3699 76.7399L37.5099 76.9499L37.7199 77.1599L37.9399 77.3099L38.1499 77.5199L38.3699 77.7999L38.5799 77.9499L38.8599 78.0898L39.1499 78.3699L39.3599 78.5898L39.6499 78.7299L40.2199 79.1599L40.7899 79.5099L41.3599 79.9399L41.9299 80.2198L42.4999 80.5099L42.9999 80.7899L43.5699 81.0099L44.0699 81.1498L44.6399 81.4299H45.2099L45.7799 81.6498H46.2799L46.7799 81.7198H47.2799H47.8499H48.3499H48.8499L49.3499 81.5699L49.8499 81.4299L50.3499 81.3599L50.9199 81.1498L51.3399 81.0099L51.7699 80.8599L52.2699 80.5799L52.6999 80.3599L53.1299 80.0799L53.5499 79.7999L53.9799 79.5099L54.4099 79.1599L54.8399 78.8699L55.1899 78.5199L55.5499 78.0898L55.9799 77.7999L56.3399 77.3099L56.7599 76.9499L57.0499 76.5199L57.4099 76.0999L57.7599 75.6699L58.0499 75.2399L58.3999 74.7499L58.6899 74.1799L58.9699 73.7499L59.2599 73.1799L59.4699 72.6799L59.6899 72.1899L59.8999 71.6899L60.1199 71.1199L60.3299 70.5499L60.4699 69.9799L60.6899 69.4099L60.8299 68.8398L60.9699 68.2699L61.0399 67.7798L61.1799 67.2099L61.2599 66.6399V65.9999L61.3299 65.4299L61.3999 64.7899V64.2899V63.6498V63.0799L61.3299 62.4399L61.2599 61.8699L61.1799 61.2999V61.0898L61.1099 60.8099V60.5898L61.0399 60.2399L60.9699 59.9499V59.6699V59.4499V59.3099L60.8999 59.0999L60.8299 58.8899V58.7399L60.7599 58.5298V58.3199L60.6899 58.0999V57.9599V57.7499V57.5298L60.5399 57.3199V57.1799V56.8899L60.4699 56.6799V56.5399L60.3999 56.3199V56.1099V55.8998L60.3299 55.6899L60.2599 55.3299L60.1899 54.9699V54.7599L60.1199 54.6199V54.4099V54.1899L60.0399 53.9099L59.9699 53.5499L59.8999 53.2699L59.8299 52.9799V52.6999L59.7599 52.4099V52.2699L59.6899 52.1299V51.8398L59.6199 51.6999Z" fill="black"/>
<path fill-rule="evenodd" clip-rule="evenodd" d="M28.8097 16.2099L31.3797 17.3499L31.4497 17.1399L31.5897 17.0699V16.9199V16.7798V16.4999L31.7297 16.2798L31.7997 16.0699L31.8797 15.8599L31.9497 15.4999L32.1597 15.2198L32.2297 14.8599L32.3797 14.5799L32.4497 14.2198L32.6597 13.9399L32.7997 13.5099L32.9497 13.3699L33.0197 13.1498L33.0897 12.9399L33.1597 12.7299L33.2997 12.5799L33.3697 12.2999L33.5197 12.1599L33.5897 11.9399L33.6597 11.7299L33.7997 11.5199L33.8697 11.2999L34.0097 11.1599L34.1597 10.8799L34.2997 10.6699L34.4397 10.5199L34.5097 10.3099L34.7297 10.0999L34.7997 9.87988L34.9397 9.66986L35.0097 9.4599L35.2297 9.23987L35.4397 9.02985L35.5797 8.81989L35.7297 8.66986L35.8697 8.38989L36.0097 8.24988L36.1497 8.02985L36.3697 7.81989L36.6497 7.53986L36.9397 7.24988L37.1497 6.96985L37.4397 6.74988L37.7197 6.46985L38.0097 6.25989L38.2897 6.03986L38.5797 5.75989L38.8597 5.60987L39.1497 5.3299L39.4297 5.11987L39.7897 4.96985L40.0797 4.75989L40.4297 4.54987L40.7197 4.40985L40.9997 4.18988L41.3597 4.11988L41.6397 3.90985L41.9297 3.83985L42.2897 3.68988L42.6397 3.61988L42.9297 3.47986L43.2897 3.40985L43.6397 3.33985L43.9297 3.19989L44.2097 3.12988H44.6397L44.9297 3.04987H45.2797L45.5697 2.97986H45.8497L46.1397 2.90985L46.5697 2.97986H46.9197H47.2797L47.5597 3.04987L47.8497 3.12988H48.1297L48.4197 3.19989H48.7797L49.0597 3.33985L49.4197 3.40985L49.6997 3.47986L50.0597 3.61988L50.3497 3.7699L50.6297 3.83985L50.9197 3.97986L51.1297 4.11988L51.4897 4.3299L51.7697 4.47986L51.9897 4.75989L52.2697 4.89984L52.4897 5.11987L52.7697 5.3299L52.9097 5.60987L53.1297 5.75989L53.4097 6.03986L53.6297 6.3299L53.8397 6.60987L53.9797 6.81989L54.2697 7.17987L54.4097 7.4599L54.5497 7.81989L54.7697 8.09986L54.9797 8.38989L55.1197 8.73987L55.1897 9.09985L55.3397 9.37988L55.4097 9.73987L55.5497 10.0999L55.6197 10.3799V10.6699L55.7597 11.0199V11.3799L55.8397 11.7299V12.0199L55.9097 12.2999V12.5799V12.8699V13.1498V13.4399V13.7198V14.0099V14.2198V14.5099V14.7899V14.9999L55.8397 15.1498V15.4999V15.7099V15.9299L55.9097 16.0699L56.0497 16.2099L56.2597 16.4299L56.4797 16.6399L56.7597 16.9199L56.9797 17.2798L57.1197 17.4199L57.2597 17.5599L57.4097 17.7798L57.5497 17.9199L57.6897 17.6399L57.8297 17.2798L57.8997 16.9999L57.9797 16.6399L58.1197 16.3499L58.1897 15.9999V15.6399L58.2597 15.3599L58.3297 14.9999L58.3997 14.6498V14.3599V14.0099V13.6498V13.3699V13.0099L58.2597 12.6599V12.2999V12.0199L58.1897 11.7299L58.1197 11.3799V11.0199L57.9797 10.6699L57.8997 10.3099L57.7597 10.0199L57.6897 9.73987L57.6197 9.30988L57.4797 9.02985L57.3297 8.66986L57.1897 8.31989L57.0497 7.88989L56.9797 7.74988L56.8397 7.53986L56.7597 7.31989L56.6197 7.17987L56.4797 6.89984L56.4097 6.67987L56.2597 6.39984L56.1197 6.17987L55.9097 5.89984L55.7597 5.60987L55.5497 5.39984L55.3397 5.11987L55.1897 4.96985L54.9797 4.75989L54.8397 4.61988L54.5497 4.47986L54.3397 4.25989L54.1997 4.11988L53.9797 3.90985L53.6997 3.7699L53.4097 3.61988L53.0597 3.33985L52.7697 3.12988L52.4097 2.97986L52.2697 2.83985L52.0597 2.7699L51.9897 2.69989L51.9097 2.55988H51.9897H52.0597H52.2697L52.5597 2.69989L52.8397 2.83985L53.1297 2.90985L53.4097 3.04987L53.5497 3.12988L53.6997 3.19989L53.9097 3.33985L54.1997 3.40985L54.3397 3.61988L54.5497 3.68988L54.8397 3.83985L55.0497 3.97986L55.2697 4.18988L55.4797 4.3299L55.6197 4.54987L55.9097 4.75989L56.1197 4.96985L56.3397 5.18988L56.4797 5.39984L56.7597 5.60987L56.9797 5.89984L57.1197 6.17987L57.2597 6.39984L57.4797 6.67987L57.6197 6.96985L57.8297 7.24988L57.8997 7.53986L58.1197 7.81989L58.1897 8.09986L58.2597 8.38989L58.3997 8.66986L58.4797 8.9599L58.6197 9.23987L58.6897 9.59985L58.7597 9.87988L58.8997 10.1699V10.4499L58.9697 10.8099V11.0199L59.0497 11.3799L59.1197 11.6599L59.1897 12.0199L59.2597 12.2999V12.5799V12.7999V13.0799V13.2999V13.6498V13.8599V14.1498V14.3599V14.5799V14.7899V14.9999V15.1498V15.4999L59.1897 15.7099V15.9999L59.1197 16.2099L59.0497 16.4999L58.9697 16.7798V16.9999L58.8997 17.1399V17.4199L58.8297 17.5599V17.8499L58.7597 17.9899L58.6897 18.3499L58.6197 18.6299L58.6897 18.9199L58.8297 19.1299L58.9697 19.3398L59.0497 19.5599L59.1897 19.8398L59.2597 19.9799L59.3997 20.1899L59.4697 20.4099L59.6897 20.6899L59.7597 20.9099L59.8297 21.1199H59.8997L59.9697 20.9099L60.0397 20.8299L60.1197 20.6899L60.1897 20.6199L60.2597 20.4099L60.3997 20.1899V19.9799L60.5397 19.7699L60.6197 19.4799L60.6897 19.1999L60.8297 18.9199L60.8997 18.5599L60.9697 18.1299V18.0599L61.0397 17.8499L61.1097 17.6399L61.1797 17.4199V17.2798L61.2597 17.0699V16.8499V16.6399V16.4299L61.3297 16.2099V15.9299V15.7099L61.3997 15.4999V15.2198V14.9999V14.7198L61.4697 14.5099V14.2198V14.0099V13.7198V13.4399L61.3997 13.1498V12.8699L61.3297 12.5799V12.2999V12.0199L61.2597 11.7299V11.4499L61.1797 11.1599L61.1097 10.8099V10.5199L60.9697 10.1699L60.8997 9.52985L60.7597 8.88989L60.5397 8.31989L60.3997 7.67987L60.1197 7.17987L59.8997 6.60987L59.6897 6.10987L59.3297 5.60987L59.1197 5.11987L58.8297 4.68988L58.4797 4.25989L58.1897 3.83985L57.8997 3.47986L57.4797 3.12988L57.0497 2.7699L56.6897 2.40985L56.2597 2.12989L55.9097 1.83985L55.4797 1.62989L55.0497 1.34986L54.6197 1.13989L54.1997 0.919863L53.6997 0.779849L53.1997 0.559878L52.7697 0.489871L52.2697 0.349856L51.7697 0.279849L51.2697 0.139895H50.7697L50.2697 0.0698878L49.7697 -0.000119553H49.2097L48.7097 0.0698878H48.2097L47.7097 0.139895L47.2097 0.209902L46.7097 0.279849L46.1397 0.349856L45.6397 0.489871L45.0697 0.559878L44.6397 0.779849L44.0697 0.919863L43.5697 1.13989L43.0697 1.27985L42.5697 1.48987L42.0697 1.69989L41.5697 1.98987L40.9997 2.19989L40.5797 2.55988L40.0797 2.83985L39.6497 3.12988L39.1497 3.40985L38.6497 3.7699L38.2197 4.04987L37.7897 4.40985L37.3697 4.75989L36.9397 5.11987L36.5797 5.53986L36.1497 5.89984L35.7997 6.39984L35.4397 6.81989L35.0097 7.24988L34.7297 7.67987L34.3697 8.09986L34.2297 8.31989L34.0897 8.52985L33.9397 8.73987L33.7297 9.02985L33.5897 9.30988L33.3697 9.59985L33.2297 9.87988L32.9497 10.1699L32.7297 10.5199L32.5197 10.8799L32.3797 11.1599L32.0897 11.5199L31.8797 11.8699L31.5897 12.2299L31.3797 12.5799L31.0897 12.8699L30.9497 13.2299L30.7397 13.5799L30.5197 13.8599L30.3097 14.2198L30.1597 14.5099L29.9497 14.7899L29.7397 14.9999L29.5197 15.2198L29.3797 15.4299L29.3097 15.6399L29.1697 15.8599L29.0997 15.9299L28.8797 16.2099H28.8097Z" fill="black"/>
<path fill-rule="evenodd" clip-rule="evenodd" d="M47.28 17.4898L47.42 17.4198L47.56 17.2098L47.85 16.9198L48.13 16.5698L48.35 16.4298L48.56 16.2798L48.78 16.1398L48.99 15.9998L49.21 15.9298H49.49H49.7H49.99L50.2 15.9998L50.49 16.1398L50.7 16.2798L50.92 16.4998L51.13 16.7798L51.27 16.9198L51.49 17.1398L51.56 17.4198L51.77 17.7098V18.0598L51.91 18.3498V18.6298V18.9198L51.77 19.1998V19.5598L51.49 19.7698L51.41 20.1198L51.2 20.4098L50.99 20.6898L50.85 21.0498L50.63 21.3998L50.35 21.7598L50.06 22.0398L49.7 22.3298L49.56 22.6098L49.35 22.6798L49.21 22.8998L48.92 23.0398L48.71 23.1798L48.42 23.3198L48.21 23.4698L47.92 23.5398L47.64 23.6798L47.28 23.7498L46.99 23.8898L46.64 23.9598H46.42L46.28 24.0398L46.14 24.1098H45.85L45.64 24.1798H45.5L45.28 24.2498H45H44.78L44.64 24.3198H44.43H44.21H44H43.78L43.57 24.2498H43.36H43.07H42.93L42.72 24.1798L42.5 24.1098H42.29L42.07 23.9598H41.93L41.64 23.8898L41.5 23.8198L41.29 23.7498H41.15L40.86 23.6098L40.65 23.5398L40.5 23.4698L40.29 23.3998L40 23.2498L39.86 23.1798L39.72 23.1098L39.51 22.9698L39.29 22.8998L39.15 22.7598L38.86 22.6798L38.72 22.6098L38.51 22.3998L38.15 22.2598L37.79 22.0398L37.44 21.8298L37.08 21.6198L36.73 21.4698L36.37 21.1898L36.01 21.0498L35.65 20.8298L35.3 20.6198L34.94 20.4798L34.66 20.3398L34.3 20.1198H34.01L33.66 19.9098L33.37 19.8398L33.02 19.6998H32.8L32.52 19.6298H32.23H31.95L31.73 19.6998H31.52H31.3L31.02 19.7698L30.81 19.8398L30.59 19.9098L30.45 20.0498L30.24 20.1198L29.88 20.3398L29.59 20.6198L29.38 20.9098L29.17 21.2598V21.4698L29.1 21.6898V21.8998L29.02 22.0398V22.3298V22.5398L29.1 22.7598V22.9698L29.17 23.1798L29.24 23.4698L29.38 23.6798L29.45 23.8898L29.67 24.1798L29.88 24.3898L30.09 24.5998L30.38 24.8198L30.52 24.9598L30.74 25.0998L30.88 25.2498L31.09 25.3198L31.3 25.3898L31.45 25.5298L31.59 25.6698L31.8 25.7398L32.09 25.8898L32.3 25.9598L32.52 26.0298L32.73 26.1698L33.02 26.2398L33.3 26.3798L33.52 26.5198H33.73L34.01 26.6698L34.3 26.7398L34.59 26.8098L34.8 26.8798L35.08 27.0198L35.37 27.0898H35.65L35.87 27.1698L36.15 27.3098H36.44L36.8 27.3798L37.08 27.4498L37.37 27.5198L37.65 27.5898H37.94L38.22 27.6598L38.51 27.7298L38.79 27.7998H39.08L39.36 27.8798H39.65H39.86L40.15 27.9498H40.43H40.72L40.93 28.0198H41.22H41.43H41.72H41.93H42.22H42.43H42.64H42.86H43.07L43.29 27.9498H43.5H43.64L43.86 27.8798H44L44.36 27.7998L44.71 27.7298L45 27.6598L45.28 27.5898L45.64 27.5198L45.92 27.3798L46.14 27.3098H46.42L46.71 27.1698L46.99 27.0898H47.28L47.42 26.9498L47.71 26.8098L47.85 26.7398L48.13 26.6698L48.28 26.5198H48.49L48.71 26.3798L48.92 26.2398L49.06 26.1698L49.42 25.9598L49.77 25.6698L50.06 25.5298L50.35 25.2498L50.63 24.9598L50.92 24.6798L51.27 24.4598L51.49 24.2498L51.77 24.0398L51.91 23.8898L52.27 23.7498L52.41 23.6098L52.49 23.6798V23.7498L52.27 23.9598L52.06 24.2498L51.99 24.4598L51.77 24.6798L51.63 24.9598L51.34 25.1698L51.13 25.5298L50.77 25.8898L50.63 26.0298L50.35 26.2398L50.2 26.3798L49.99 26.5198L49.77 26.7398L49.49 26.8798L49.21 27.0898L48.92 27.2398L48.63 27.3798L48.42 27.5898L48.06 27.7298L47.64 27.8798L47.28 28.0898L46.92 28.1598L46.71 28.2998L46.5 28.4498H46.28H46.07L45.85 28.5898L45.57 28.6598L45.35 28.7298H45.14L44.85 28.7998L44.64 28.8698L44.36 28.9398L44.07 29.0098L43.86 29.0798H43.57L43.29 29.2298H43.07L42.79 29.2998H42.5H42.22H41.93H41.72H41.43H41.22H40.93H40.72H40.43H40.22L39.93 29.2298H39.72H39.43H39.22L38.93 29.1598L38.72 29.0798H38.51L38.29 29.0098H38.01L37.79 28.9398L37.51 28.8698L37.29 28.7998L37.08 28.7298H36.87L36.65 28.6598H36.37L36.08 28.5198L35.94 28.4498H35.73H35.51L35.3 28.2998H35.16L34.94 28.1598H34.73L34.51 28.0198L34.16 27.9498L33.8 27.8798L33.45 27.6598L33.09 27.5898L32.8 27.5198L32.52 27.3798L32.23 27.3098L31.95 27.1698L31.8 27.0898H31.59L31.38 27.0198L31.16 26.8798H30.88H30.59H30.31H30.02L29.81 26.9498L29.52 27.0198L29.31 27.0898L29.02 27.1698L28.81 27.3798L28.67 27.5898L28.52 27.7998L28.31 28.0898V28.2298L28.24 28.4498V28.5898V28.7298V29.0098L28.17 29.2298V29.3698L28.1 29.5798L28.17 29.8698L28.24 30.1498V30.3698V30.5798L28.31 30.8598L28.38 31.0798L28.52 31.2898V31.4998L28.74 31.7898L28.81 32.0698L28.95 32.2898L29.1 32.4998L29.31 32.6398L29.45 32.9298L29.67 33.1398L29.81 33.2798L30.02 33.4998L30.24 33.7798L30.52 33.9198L30.81 34.0598L31.09 34.2798L31.3 34.4198L31.59 34.5598L31.95 34.6998L32.38 34.8498L32.73 34.9898L33.02 35.0598L33.37 35.1298L33.66 35.1998H33.87L34.09 35.2698H34.3L34.51 35.3398H34.73H34.94H35.16L35.44 35.4198H35.65H35.87H36.08H36.37H36.65H36.87H37.08H37.37H37.51H37.79H38.08H38.29H38.51H38.72L38.93 35.3398H39.22H39.43H39.72L39.93 35.2698H40.15L40.43 35.1998L40.65 35.1298H40.86H41.15L41.36 35.0598L41.64 34.9898L41.79 34.9198L42.07 34.8498H42.29L42.5 34.7798L42.79 34.6298H43.07L43.29 34.5598L43.5 34.4898L43.71 34.3498L43.93 34.2798H44.21L44.43 34.1398L44.64 34.0598L44.93 33.9198L45.14 33.8498L45.35 33.7798L45.57 33.6398L45.85 33.4998L46.14 33.4198L46.35 33.2798L46.57 33.1398L46.78 33.0698L46.99 32.9298L47.28 32.7798L47.49 32.6398L47.71 32.4998L47.92 32.3598L48.21 32.1398L48.42 31.9998L48.63 31.8598L48.92 31.7198L49.06 31.4998L49.28 31.3598L49.49 31.2198L49.77 30.9298L49.99 30.7198L50.2 30.5798L50.42 30.4398L50.63 30.1498L50.92 30.0098L51.13 29.7998L51.34 29.5798L51.49 29.3698L51.77 29.2298L51.99 29.0098L52.13 28.7298L52.34 28.5898L52.56 28.3698L52.7 28.1598L52.91 27.9498L53.06 27.7298L53.2 27.5198L53.41 27.3098L53.55 27.0898L53.7 26.8798L53.91 26.6698L53.98 26.5198L54.2 26.2398L54.34 26.0298L54.41 25.8098L54.55 25.5998L54.7 25.3898L54.84 25.0998L54.91 24.8898L55.05 24.6798L55.12 24.4598L55.19 24.2498L55.34 23.9598V23.7498L55.48 23.6098L55.55 23.3998L55.62 23.1798V22.8998L55.76 22.6798L55.84 22.5398L55.91 22.3298V22.0398V21.8298L55.98 21.6198V21.4698V21.1898V20.9798V20.7698V20.5498V20.3398V20.1198V19.8398V19.6998L55.91 19.4798V19.2698L55.84 19.0598V18.8398L55.76 18.6298L55.69 18.4198L55.62 18.1998L55.55 18.0598L55.41 17.8498L55.34 17.5598L55.27 17.4198L55.12 17.2098L55.05 16.9998L54.84 16.7098L54.55 16.3498L54.34 16.0698L54.05 15.7898L53.84 15.4998L53.55 15.2898L53.27 15.0698L52.91 14.8598L52.7 14.7898L52.41 14.6498L52.13 14.5798L51.84 14.5098H51.56L51.27 14.3598H50.99H50.7H50.49L50.2 14.4298L49.99 14.5098H49.7L49.49 14.5798L49.21 14.6498L48.99 14.7898H48.78L48.63 14.9998L48.42 15.0698L48.28 15.1498L48.13 15.2898L47.85 15.5698L47.56 15.7898L47.49 16.1398L47.35 16.2798L47.28 16.4998V16.7098L47.21 16.9998L47.14 17.2098L47.28 17.4198V17.4898Z" fill="black"/>
<path fill-rule="evenodd" clip-rule="evenodd" d="M20.97 21.9698L21.0399 21.8998V21.7598V21.5498L20.97 21.2598V21.0498L20.8199 20.6898V20.4098L20.7499 20.1198V19.8398L20.6799 19.4798V19.1998V18.9198L20.7499 18.6998V18.4198L20.8199 18.1998L20.97 17.9898L21.2499 17.8498L21.6099 17.9198L21.89 18.0598L22.2499 18.1998L22.39 18.3498L22.6799 18.4198L22.89 18.5598H23.0999L23.39 18.6298L23.5999 18.5598H23.89L24.2499 18.4198H24.46L24.5999 18.2798L24.8199 18.1298L24.96 18.0598L25.1699 17.8498L25.3099 17.7098L25.46 17.5598L25.6699 17.2798L25.8099 17.0698L25.96 16.8498L26.0999 16.6398L26.2399 16.3498L26.3099 16.1398L26.46 15.8598L26.53 15.5698L26.5999 15.2198V14.9998V14.7198L26.6699 14.3598L26.5999 14.0798V13.7898V13.4398L26.53 13.1498L26.3799 12.8698L26.3099 12.5798L26.0999 12.2998L25.96 12.0198L25.7399 11.7298L25.46 11.4498L25.2399 11.1598L24.89 10.9498L24.53 10.6698L24.2499 10.5198L23.89 10.3098L23.53 10.1698L23.2499 9.94983L22.89 9.80982L22.6099 9.59979L22.2499 9.52979L21.89 9.30982L21.6099 9.23981L21.3199 9.09979L21.0399 9.02979L20.7499 8.88983L20.47 8.73981L20.1799 8.6698L19.89 8.59979L19.6099 8.45984L19.33 8.38983L19.1099 8.31983L18.9 8.24982L18.6799 8.09979L18.47 8.02979L18.2599 7.95984L18.0399 7.81983L17.83 7.67981L17.47 7.5398L17.1099 7.17981L17.0399 7.0398L16.83 6.89978L16.6899 6.74982L16.5399 6.46979L16.4 6.17981L16.2599 5.82984V5.5398L16.1899 5.18982L16.2599 4.96979V4.68982L16.4 4.4798L16.47 4.18982L16.7599 3.90979L17.0399 3.61981L17.2599 3.40979L17.33 3.19983V3.12982L17.1899 3.04981H17.1099L16.83 2.9798H16.6199H16.33H16.0399L15.6899 3.04981L15.4 3.12982L15.1199 3.33979L14.9 3.54981L14.6199 3.76984L14.5499 3.90979L14.4799 4.11981L14.33 4.32984L14.26 4.4798V4.75983L14.1899 5.04981L14.1199 5.32984V5.5398V5.89978V6.17981L14.0499 6.5398V6.89978L13.9799 7.24982L13.83 7.6098L13.76 7.95984L13.6199 8.31983L13.5499 8.45984L13.4799 8.6698V8.95984L13.41 9.09979L13.26 9.45984L13.1899 9.80982L13.0499 10.0198L12.9799 10.2398L12.91 10.3798L12.84 10.5898L12.6899 10.9498L12.5499 11.2998L12.4799 11.5198L12.41 11.7298L12.34 11.9398L12.26 12.0898L12.1199 12.4398L11.9799 12.7998L11.84 13.1498L11.6899 13.5098L11.5499 13.8598L11.4799 14.2198L11.41 14.5098L11.27 14.7898L11.2 15.1498L11.0499 15.3598V15.6398L10.9799 15.9298L10.91 16.1398V16.3498V16.5698V16.7798V16.9998L10.9799 17.1398L11.0499 17.3498L11.1199 17.5598V17.7798L11.2 17.9198L11.34 18.3498L11.4799 18.6998L11.77 18.9898L11.91 19.2698L12.1899 19.5598L12.4799 19.8398L12.76 20.1198L13.0499 20.2698L13.41 20.4098L13.76 20.4798L14.1199 20.6198H14.4H14.6199H14.83H14.9799H15.1199H15.5399L15.9 20.4798L16.2599 20.4098L16.5399 20.2698L16.9 20.1198L17.1899 19.9798L17.47 19.8398L17.6799 19.6298L17.9 19.4098L18.0399 19.1998L18.1799 18.9198L18.33 18.6298L18.4 18.3498L18.33 17.9198V17.6398L18.2599 17.2798L18.1799 17.0698V16.9198L18.0399 16.7098L17.97 16.4998L17.9 16.2798L17.83 16.0698L17.6799 15.8598L17.6099 15.6398L17.5399 15.4298L17.4 15.2198L17.33 14.9998L17.1899 14.7198L17.1099 14.5098L16.97 14.2198L16.83 14.0098L16.7599 13.7898L16.6199 13.5798L16.5399 13.3698L16.4 13.1498L16.2599 12.8698V12.6598L16.1899 12.4398L16.1199 12.2298L15.97 12.0198V11.7298L15.9 11.5198L15.83 11.2998L15.76 11.0198V10.8798L15.6899 10.6698V10.5198V10.3098V9.94983L15.6199 9.59979V9.37982V9.1698V8.95984V8.73981L15.6899 8.45984V8.31983L15.76 8.17981L15.83 8.09979L15.97 8.24982V8.45984L16.0399 8.6698V8.81983L16.1199 9.09979V9.23981L16.1899 9.59979L16.2599 9.87982V10.1698V10.5198L16.4 10.8798L16.5399 11.1598L16.6199 11.5198L16.7599 11.7998L16.83 12.0198L16.97 12.2298L17.1099 12.4398V12.5798L17.33 12.9398L17.47 13.2998L17.6799 13.6498L17.9 14.0098L18.0399 14.4298L18.1799 14.7198L18.33 15.0698L18.47 15.4298L18.6099 15.7898L18.7499 15.9998L18.83 16.3498L18.97 16.6398L19.0399 16.8498V17.0698L19.1799 17.3498L19.2499 17.7098L19.33 17.9898V18.2798V18.5598V18.8398V19.0598L19.1799 19.2698V19.5598L19.1099 19.8398V20.1198L19.0399 20.2698L18.9 20.4798L18.83 20.6898L18.7499 20.9098L18.6099 21.1198L18.5399 21.2598L18.47 21.4698L18.4 21.6898L18.2599 21.8298L18.1099 22.1198L17.9 22.3298L17.83 22.6098L17.6799 22.7598L17.6099 22.8998V22.9698L17.6799 23.1098H17.83L18.0399 23.1798L18.1799 23.1098H18.47L18.7499 23.0398L19.0399 22.9698L19.33 22.8998L19.6099 22.7598L19.89 22.6798L20.1799 22.6098L20.47 22.4698L20.6799 22.3298L20.7499 22.2598L20.97 22.1198V21.9698Z" fill="black"/>
<path fill-rule="evenodd" clip-rule="evenodd" d="M19.3297 27.5898L19.4697 27.6599V27.8799V28.0898L19.3997 28.2299V28.5199L19.3297 28.7299V29.0099V29.2999V29.5799L19.2496 29.8699V30.1498V30.3699L19.3297 30.5799V30.7199L19.4697 30.9299L19.5396 31.0099L19.8896 31.2199L20.1096 31.1498L20.3196 31.0799L20.6096 30.8599L20.7496 30.7899L20.8896 30.7199H21.1096L21.2496 30.6498H21.5396L21.8196 30.5799L22.1096 30.6498L22.3896 30.7199L22.6096 30.7899L22.8196 30.9299L22.9597 31.0099L23.1796 31.0799L23.5297 31.3599L23.7496 31.7199L23.8896 31.8599L24.0297 32.0699L24.0996 32.3599L24.2496 32.4999L24.3896 32.7099V32.9299L24.4597 33.2099V33.4199L24.5297 33.6399L24.5996 33.9199V34.2099V34.4199V34.6999L24.5297 34.9199L24.4597 35.1999L24.3896 35.4199L24.3196 35.6999L24.0996 35.9799L24.0297 36.1999L23.8196 36.3398L23.6696 36.6199L23.4597 36.8398L23.2496 37.0499L22.9597 37.1899L22.6796 37.4099L22.4597 37.6199L22.2496 37.7599L21.9597 37.9099L21.7496 38.1199L21.4597 38.2599L21.2496 38.3998L20.9697 38.4698L20.6796 38.6199L20.4697 38.7599L20.1796 38.8299L19.8896 38.9698L19.6796 39.0399L19.4697 39.1799L19.2496 39.3299H18.9697L18.7496 39.4698L18.5396 39.5399L18.3297 39.6099L18.1096 39.7499L17.8997 39.8998L17.6796 39.9698L17.5396 40.1099L17.3997 40.1799L17.1096 40.3899L16.7596 40.6099L16.5396 40.9599L16.2596 41.2499L16.1896 41.5298L16.0396 41.8199V42.1699V42.3899V42.6699L16.1196 42.8799L16.2596 43.0298V43.2399L16.5396 43.5199L16.8297 43.7399L17.0396 43.8799L17.1096 44.0199L17.0396 44.1599L16.6896 44.3099L16.5396 44.3799H16.2596H16.0396L15.6896 44.3099L15.4697 44.2299L15.2596 44.0898L14.9796 43.8799L14.7596 43.6699L14.5496 43.3799L14.3297 43.0298V42.8799L14.2596 42.6699V42.3899L14.1896 42.0999V41.8899V41.5999L14.1196 41.3199L14.0496 40.9599V40.7499L13.8997 40.4599L13.7596 40.1799L13.6896 39.8199L13.5496 39.5399L13.4796 39.1799L13.3397 38.8998L13.1896 38.5499L13.0496 38.1899L12.9097 37.9099L12.7596 37.6199L12.6196 37.2699L12.4796 36.9799L12.3397 36.6199L12.1896 36.3398L12.0496 35.9799L11.9097 35.7699L11.7697 35.4199L11.6196 35.1299L11.4796 34.8499L11.4097 34.6299L11.2697 34.3499L11.1996 34.0599L11.1196 33.8499L11.0496 33.6399L10.9796 33.4199L10.9097 33.2099V32.9299V32.6399V32.2899L10.9796 31.9299L11.0496 31.5699L11.1996 31.2899L11.3397 30.9299L11.4796 30.7199L11.6196 30.4399L11.9097 30.1498L12.1196 29.8699L12.3397 29.7299L12.6196 29.5799L12.9097 29.3699L13.1896 29.2999L13.4796 29.2299L13.7596 29.0799H14.1196H14.4796L14.7596 29.1599L15.1196 29.2299L15.3997 29.2999H15.6896L15.9697 29.4399L16.1896 29.5799L16.4697 29.7299L16.6196 29.8699L16.8297 30.0099L17.0396 30.1498L17.1896 30.4399L17.2596 30.7199L17.3297 30.9299V31.2199V31.4999L17.2596 31.7899L17.1896 32.1399L17.0396 32.4999V32.7099L16.8997 32.9299L16.8297 33.1399L16.7596 33.2798L16.6896 33.4999L16.5396 33.7099L16.4697 33.9199L16.3997 34.0599L16.2596 34.2798V34.4899L16.1896 34.6999L16.0396 34.8499L15.9697 35.1299L15.8997 35.3398L15.8297 35.4899L15.6896 35.6999V35.9799L15.6196 36.1299L15.5396 36.3398L15.4697 36.5499L15.3997 36.7699V36.9099V37.1199L15.3297 37.2699V37.4799V37.6899V37.9099V37.9698V38.3299V38.5499V38.8299V39.0399V39.1799V39.3299L15.3997 39.6099V39.6799L15.4697 39.8199H15.6196L15.6896 39.7499V39.5399V39.4698V39.2599V39.0399V38.8299L15.7596 38.6199L15.8297 38.3299V38.1199L15.8997 37.7599L15.9697 37.5499L16.0396 37.1899L16.1196 36.9099L16.2596 36.5499L16.3997 36.2699L16.5396 35.9799L16.6896 35.6999L16.8297 35.3398L16.8997 34.9899L17.1096 34.6999L17.1896 34.3499L17.3297 34.0599L17.3997 33.7798L17.5396 33.4999L17.6096 33.2099L17.6796 32.8499L17.8297 32.6399L17.8997 32.3599L17.9697 32.1399V31.8599L18.0396 31.6498L18.1096 31.4299V31.2199V30.9299V30.7199V30.5099L18.0396 30.2199L17.9697 30.0099V29.8699L17.8997 29.5799V29.4399L17.7596 29.2299L17.6096 28.8699L17.3997 28.4499L17.1896 28.1599L17.0396 27.8799L16.8297 27.6599L16.6896 27.3799L16.5396 27.3099L16.4697 27.0898V27.0199L16.3997 26.8799H16.5396V26.8099H16.7596H16.8997H17.1896L17.3997 26.8799H17.6096L17.8997 26.9499L18.1796 27.0898H18.3997L18.6796 27.1699L18.8297 27.3099H19.0396L19.2496 27.3799L19.3297 27.5199V27.5898Z" fill="black"/>
<path fill-rule="evenodd" clip-rule="evenodd" d="M28.8101 24.3898L28.2401 27.1698H28.17L27.9501 27.0898H27.8801L27.7401 27.0198L27.6 26.9498L27.3801 26.8098H27.17L26.9601 26.7398L26.7401 26.5998L26.3801 26.5198L26.1 26.3798L25.8101 26.2398H25.4601L25.1 26.0298L24.7501 25.9598L24.3901 25.8898H24.17L23.9601 25.7398H23.7501L23.5301 25.6698H23.3201L23.1801 25.5998H22.9601L22.6801 25.5298H22.4601L22.2501 25.4598L21.9601 25.3898H21.7501H21.54L21.2501 25.3198H21.04L20.8201 25.2498H20.61H20.3201L20.11 25.1698L19.8201 25.0998H19.54H19.3301H19.04H18.7501H18.4701H18.1801H17.9701H17.61L17.3301 25.2498H16.9001L16.54 25.3198L16.1201 25.3898H15.7601L15.4001 25.5298L15.0501 25.5998L14.6201 25.6698L14.2601 25.8098L13.98 25.9598L13.5501 26.0298L13.1901 26.1698L12.9101 26.2398L12.5501 26.4498L12.1901 26.5198L11.8401 26.7398L11.48 26.8798L11.2001 27.0898L10.9101 27.3098L10.5501 27.3798L10.2701 27.5898L9.98004 27.8798L9.63007 28.0198L9.34009 28.1598L9.13007 28.4498L8.84009 28.7298L8.56006 28.9398L8.27008 29.1598L8.06006 29.3698L7.84009 29.5798L7.56006 29.8698L7.35004 30.1498L7.13007 30.4398L6.92005 30.7198L6.77008 30.9298L6.49005 31.2198L6.42005 31.4998L6.20008 31.7898L6.06006 32.0698L5.92005 32.3598L5.78009 32.6398L5.63007 32.9998L5.49005 33.2798L5.35004 33.6398V33.9198L5.21009 34.2798L5.13007 34.5598L5.06006 34.8498V35.1998L4.99005 35.5598V35.9098V36.1998V36.5498V36.8398L5.06006 37.1898V37.5498L5.13007 37.9098L5.21009 38.1898L5.35004 38.5498V38.8998L5.49005 39.3298L5.63007 39.6098L5.78009 39.9698L5.92005 40.2498L6.13007 40.6098L6.27008 40.9598L6.49005 41.2498L6.70008 41.5298L6.92005 41.8198L7.20008 42.0998L7.42005 42.3898L7.63007 42.6698L7.99005 42.9498L8.20008 43.1698L8.49005 43.4498L8.77008 43.6698L9.13007 43.8798L9.34009 44.0898L9.63007 44.3098L9.9101 44.4498L10.2001 44.6598L10.48 44.8698L10.7701 45.0198L10.9101 45.1598L11.2001 45.2998L11.48 45.4398L11.6201 45.5098L11.8401 45.6598L12.1901 45.8698L12.4101 45.9398L12.6201 46.0098V46.0798V46.2998V46.5798V46.8698V47.1498L12.5501 47.3598V47.5798V47.7898V48.0698L12.48 48.2898L12.4101 48.5698V48.7898L12.0501 48.7198L11.7701 48.5698L11.4101 48.4998L11.0501 48.2898L10.7001 48.2198L10.4101 47.9998L10.1301 47.8598L9.77008 47.7198L9.48004 47.5098L9.20008 47.3598L8.9101 47.1498L8.56006 46.9398L8.34009 46.7198L8.06006 46.5798L7.77008 46.2998L7.49005 46.0098L7.27008 45.8698L7.06006 45.5898L6.77008 45.3698L6.56006 45.0898L6.35004 44.7998L6.13007 44.5198L5.92005 44.2298L5.63007 43.8798L5.42005 43.6698L5.21009 43.3098L4.99005 43.0298L4.78009 42.6698L4.56006 42.3898L4.35004 41.9598L4.28009 41.8198L4.21009 41.5998L4.06006 41.4598L3.92005 41.2498L3.85004 40.9598L3.71009 40.6798L3.56006 40.4598L3.42005 40.1098V39.8198L3.35004 39.5398L3.21009 39.2598L3.14008 38.8998V38.6898V38.3998V38.1198L3.07007 37.8298V37.6198V37.3298V37.1198V36.8398L3.14008 36.5498V36.3398V36.1998V35.9798L3.21009 35.7698V35.5598L3.28009 35.4198V35.1998L3.35004 34.9898V34.7798V34.6298L3.21009 34.5598L3.14008 34.6998L3.07007 34.8498L2.92005 35.1298L2.85004 35.2698V35.4198V35.6298L2.71009 35.7698V35.9798L2.64008 36.1998L2.57007 36.4798V36.6198V36.9098L2.50006 37.1198L2.42005 37.4098V37.6898V37.9698V38.2598V38.5498V38.8298V39.1098L2.50006 39.4698L2.57007 39.7498V40.0398L2.64008 40.3198L2.71009 40.6798L2.85004 40.9598V41.2498L2.99005 41.5298L3.14008 41.8198L3.28009 42.1698L3.42005 42.4598L3.56006 42.7398L3.78009 43.0298L3.92005 43.3098L4.06006 43.5198L4.28009 43.8798L4.49005 44.1598L4.71009 44.4498L4.85004 44.5898L5.06006 44.8698L5.28009 45.1598L5.49005 45.4398L5.63007 45.5898L5.92005 45.8698L6.13007 46.0798L6.35004 46.2998L6.56006 46.5098L6.77008 46.7198L7.06006 46.8698L7.20008 47.0798L7.42005 47.2198L7.63007 47.4298L7.84009 47.5798L8.06006 47.7898L8.27008 47.8598L8.49005 47.9998L8.70008 48.1498L8.84009 48.2198L8.99005 48.3598L9.27008 48.4998L9.56006 48.6398L9.84009 48.7898L9.98004 48.9298L10.2701 49.0698L10.48 49.1398L10.7001 49.2798L10.9101 49.3598L11.1201 49.4998L11.2701 49.6398L11.48 49.7098L11.6901 49.7798L12.0501 49.9198L12.3401 49.9998V50.2098V50.4898V50.7098L12.2601 50.9198V51.2798L12.1901 51.5598V51.8398V52.1298V52.1998H12.1201H12.0501H11.8401L11.48 52.1298H11.4101L11.2001 52.0598L10.98 51.9898L10.7701 51.8398H10.6301L10.3401 51.6998L10.1301 51.6298L9.77008 51.4898L9.48004 51.3498L9.20008 51.1998L8.84009 51.0598L8.49005 50.7798L8.20008 50.5598L7.84009 50.3498L7.63007 50.2098L7.49005 50.1398L7.27008 49.9198L7.06006 49.7798L6.92005 49.7098L6.70008 49.5698L6.49005 49.3598L6.27008 49.1398L6.06006 49.0698L5.92005 48.7898L5.63007 48.6398L5.42005 48.4298L5.28009 48.2198L5.06006 47.9998L4.78009 47.8598L4.56006 47.5798L4.35004 47.4298L4.13007 47.1498L3.85004 46.8698L3.64008 46.6498L3.21009 46.0798L2.78009 45.5898L2.35004 45.0898L2.00006 44.5898L1.71009 44.0898L1.43006 43.5198L1.14008 42.9498L0.86005 42.3898L0.710086 41.8898L0.500064 41.3898L0.36005 40.8898L0.280094 40.3898L0.140079 39.8998L0.0700718 39.3298V38.8298L6.44696e-05 38.2598L0.0700718 37.7598V37.2698L0.140079 36.8398L0.280094 36.2698L0.36005 35.7698L0.500064 35.3398L0.710086 34.8498L0.86005 34.2798L1.07007 33.8498L1.21009 33.4198L1.50006 32.9298L1.71009 32.4998L2.00006 32.0698L2.28009 31.5698L2.64008 31.2198L2.92005 30.7198L3.35004 30.3698L3.71009 29.9398L4.06006 29.5798L4.49005 29.2298L4.92005 28.7998L5.35004 28.4498L5.78009 28.1598L6.20008 27.7298L6.63007 27.3798L7.13007 27.0898L7.63007 26.8098L8.13007 26.5198L8.63007 26.2398L9.13007 25.9598L9.63007 25.6698L10.1301 25.3898L10.7001 25.2498L11.2001 25.0298L11.7701 24.8198L12.3401 24.5998L12.9101 24.5298L13.48 24.3198L14.0501 24.2498L14.5501 24.1098L15.1901 23.9598H15.7601L16.4001 23.8198L16.9001 23.7498H17.54H18.04H18.6801H19.1801H19.4701L19.6801 23.8198H20.04H20.3201L20.6801 23.8898H21.04L21.3201 23.9598H21.6801H21.8901H22.11H22.3201H22.4601H22.6801H22.8901H23.1H23.2501L23.5301 24.0398H23.67L23.8901 24.1098H24.1H24.3201H24.5301H24.67H24.8901L25.1 24.1798H25.3101L25.4601 24.2498H25.7401H26.1H26.4601H26.8101L27.17 24.3198H27.4501H27.7401H27.9501L28.2401 24.3898H28.3801H28.5201H28.8101Z" fill="black"/>
<path fill-rule="evenodd" clip-rule="evenodd" d="M63.4 13.0098L63.47 12.9398L63.61 12.7998L63.75 12.7298L63.97 12.5098L64.18 12.2998L64.39 12.1598L64.68 11.9398L64.89 11.7298L65.18 11.5198L65.39 11.2998L65.53 11.1598L65.68 10.8798L65.89 10.6698L65.96 10.4498V10.2398V10.0198V9.80982L65.89 9.73981L65.82 9.59979L65.68 9.52979H65.53L65.39 9.45984H65.18L64.97 9.37982H64.75L64.54 9.30982L64.32 9.23981L64.04 9.09979L63.89 9.02979L63.68 8.73981L63.47 8.59979L63.18 8.24982V8.09979L63.11 7.81983V7.67981L63.04 7.45984V7.24982L62.97 6.96979V6.74982V6.46979L63.04 6.17981L63.11 5.89978L63.18 5.68982V5.32984L63.25 5.11981L63.4 4.82984L63.54 4.54981L63.61 4.25983L63.82 4.04981L64.04 3.83978L64.18 3.61981L64.39 3.40979L64.61 3.19983L64.89 2.9798L65.18 2.83978L65.39 2.55982H65.68L65.96 2.33978L66.25 2.26984L66.61 2.19983L66.96 2.12982L67.32 2.05982L67.53 2.12982H67.67H67.96H68.1L68.25 2.19983L68.53 2.26984H68.74H68.89L69.1 2.33978H69.31L69.53 2.48981H69.67L70.03 2.55982L70.38 2.62982L70.74 2.76984L71.03 2.83978L71.31 2.9798L71.67 3.04981L71.95 3.12982L72.24 3.26984L72.6 3.40979L72.81 3.4798L73.09 3.61981H73.31L73.59 3.76984L73.81 3.83978L74.09 3.90979L74.38 3.9798L74.59 4.11981L74.81 4.18982L75.02 4.25983H75.23L75.45 4.32984H75.66H75.8H76.02H76.3L76.45 4.25983L76.66 4.18982L76.87 4.11981H77.09L77.3 3.9798L77.44 3.90979L77.59 3.83978L77.87 3.61981L78.01 3.40979L78.23 3.19983L78.3 2.90979L78.44 2.69983V2.48981V2.26984V1.98981V1.83978V1.62982V1.27979V1.13983H78.73L79.01 1.27979L79.23 1.4198L79.37 1.62982L79.65 1.83978L79.8 1.98981L80.01 2.33978L80.08 2.55982L80.23 2.9798L80.15 3.33978V3.4798L80.08 3.68982L80.01 3.90979L79.94 4.11981L79.87 4.32984L79.65 4.54981L79.58 4.75983L79.37 4.96979L79.15 5.25983L79.01 5.5398L78.87 5.82984L78.59 6.1098L78.51 6.46979L78.3 6.74982L78.16 7.0398L78.01 7.38983L77.94 7.6098L77.8 7.81983V7.95984L77.73 8.09979L77.66 8.38983L77.59 8.52979L77.44 8.73981V8.95984L77.37 9.09979L77.3 9.23981L77.23 9.52979L77.16 9.6698L77.02 10.0998L76.87 10.3798L76.8 10.5898L76.73 10.8098L76.66 11.0198L76.59 11.1598V11.3798L76.52 11.5898L76.45 11.7298L76.3 11.9398V12.2998L76.09 12.6598L76.02 13.0098L75.8 13.2998L75.73 13.6498L75.59 13.9398L75.52 14.2198L75.38 14.5098L75.23 14.7198L75.09 14.9298L74.95 15.1498L74.81 15.2898L74.59 15.6398L74.24 15.9298L73.95 16.1398L73.59 16.3498L73.24 16.5698L72.88 16.6398L72.67 16.7798H72.45H72.31H72.1L71.74 16.9198H71.31H71.17H71.03H70.81L70.6 16.7798H70.31L69.96 16.6398L69.6 16.4998L69.31 16.2098L69.03 15.9998L68.81 15.7898L68.53 15.4998L68.32 15.2198L68.17 14.9298L67.96 14.6498L67.82 14.2898L67.67 14.0098L67.6 13.7198L67.53 13.4398V13.1498L67.46 12.7998L67.6 12.5098L67.67 12.2998L67.82 12.0198L68.03 11.7298L68.32 11.4498L68.6 11.2998L68.81 11.1598L68.96 11.0898L69.17 10.9498L69.31 10.8798L69.6 10.7398L69.81 10.5898L70.03 10.5198L70.17 10.3798L70.46 10.3098L70.67 10.2398L70.88 10.0998L71.1 10.0198L71.38 9.87982L71.6 9.80982L71.88 9.73981L72.1 9.59979L72.31 9.52979L72.6 9.37982L72.74 9.23981H72.95L73.24 9.09979L73.45 8.95984L73.59 8.81983L73.81 8.6698L74.24 8.38983L74.52 8.09979L74.88 7.81983L75.16 7.6098L75.38 7.38983L75.59 7.17981L75.8 6.96979L75.95 6.74982L76.09 6.67981L76.16 6.46979L76.3 6.25983L76.37 6.1098V5.96979L76.3 5.89978H76.23L76.02 6.0398L75.8 6.25983L75.45 6.5398L75.23 6.74982L75.02 6.96979L74.81 7.17981L74.52 7.31983L74.24 7.5398L73.88 7.74982L73.59 7.88983L73.24 8.02979L72.88 8.24982L72.45 8.38983L72.17 8.59979L71.81 8.6698L71.45 8.88983L71.03 9.02979L70.74 9.23981L70.31 9.37982L70.03 9.52979L69.67 9.73981L69.31 9.87982L69.03 10.0198L68.81 10.1698L68.53 10.3098L68.25 10.4498L68.03 10.5898L67.82 10.8098L67.6 10.9498L67.39 11.1598L67.17 11.3798L67.03 11.5898L66.82 11.7298L66.68 12.0198L66.53 12.1598L66.46 12.4398L66.32 12.5798L66.25 12.8698L66.11 13.0798L66.03 13.2998L65.96 13.4398L65.89 13.6498L65.82 13.9398L65.75 14.0798L65.68 14.2898V14.5098V14.7198V15.0698L65.53 15.3598V15.6398L65.46 15.7898L65.39 15.9298H65.32H65.18L64.89 15.6398L64.68 15.4998L64.54 15.3598L64.32 15.0698L64.18 14.7898L64.04 14.5098L63.89 14.2198L63.75 14.0098L63.61 13.7198L63.54 13.5798L63.47 13.3698V13.1498L63.4 13.0098Z" fill="black"/>
<path fill-rule="evenodd" clip-rule="evenodd" d="M69.2397 51.3499L67.7498 49.0699H67.8198L68.0298 48.9999L68.2498 48.9299L68.3198 48.8599L68.5298 48.7899L68.6697 48.7198L68.8898 48.6399L69.1697 48.4999L69.3898 48.4299L69.6697 48.2198L69.9598 48.1498L70.2397 47.9299L70.5298 47.7899L70.8098 47.5799L71.1697 47.4299L71.5198 47.2198L71.8798 47.0099L72.2397 46.7999L72.3798 46.6498L72.5997 46.5799L72.8098 46.4399L72.9498 46.2999L73.3798 46.0099L73.7397 45.7299L73.8798 45.5898L74.0898 45.4399L74.3798 45.2999L74.5198 45.1599L74.6598 44.9499L74.8798 44.7999L75.0898 44.5898L75.2297 44.4499L75.6598 44.0898L76.0198 43.7399L76.1598 43.5199L76.2997 43.3099L76.5198 43.1699L76.6598 42.9499L76.9498 42.6699L77.1598 42.3899L77.4398 42.0999L77.6598 41.8199L77.9398 41.4599L78.0898 41.1799L78.2997 40.8199L78.5098 40.4599L78.7297 40.1799L78.8698 39.8998L79.0798 39.6099L79.1498 39.2599L79.3698 38.8998L79.5098 38.5499L79.5798 38.1899L79.6498 37.9099L79.8698 37.6199L79.9398 37.2699L80.0098 36.9099L80.0798 36.5499L80.2297 36.2699V35.9799L80.2997 35.5599V35.1999L80.3698 34.9199L80.4398 34.5599V34.2798V33.9199V33.5699V33.2099L80.3698 32.9299L80.2997 32.5699V32.2899L80.2297 31.9299V31.6498L80.1498 31.2899L80.0798 31.0099L79.9398 30.7199L79.8698 30.4399L79.7297 30.0799L79.6498 29.7999L79.5098 29.5799L79.3698 29.2999L79.2297 28.9399L79.0798 28.6599L78.8698 28.4499L78.7297 28.1599L78.5098 27.8799L78.2997 27.5898L78.0898 27.3799L77.9398 27.1699L77.6598 26.8799L77.4398 26.7399L77.1598 26.5199L76.9498 26.2399L76.5898 26.0298L76.3698 25.8899L76.0898 25.6699L75.7997 25.5298L75.5198 25.3199L75.1598 25.1699L74.8098 25.0298L74.4498 24.8899L74.0898 24.7499L73.8098 24.5999L73.4498 24.5298L73.0898 24.4599L72.7397 24.3199H72.4498L72.1697 24.2499H71.8098H71.4498H71.0997H70.7397H70.4598L70.1697 24.1799L69.8798 24.2499H69.5298H69.2397H68.8898L68.6697 24.3199H68.3898L68.1697 24.3899L67.8898 24.4599L67.6697 24.5298H67.3898H67.2498H67.0298L66.6798 24.5999L66.4598 24.6799L66.2498 24.7499L66.1798 24.6799L66.1097 24.5999L65.8898 24.5298L65.6798 24.3199L65.3898 24.1099L65.1798 23.9599L64.7498 23.6799L64.6097 23.6099L64.3198 23.4699L64.1097 23.3199L63.8898 23.1799L64.2498 23.0399L64.6097 22.8998L64.8898 22.7599L65.1798 22.6099L65.5298 22.5399L65.8898 22.3998L66.1798 22.3299L66.5298 22.1899H66.8198L67.0997 22.0399H67.4598L67.8198 21.9699L68.1697 21.8998H68.4598L68.8098 21.8299H69.0997H69.4598H69.8098H70.1697H70.4598L70.8098 21.8998L71.1697 21.9699H71.5198L71.8798 22.0399H72.2397L72.5997 22.1899L72.9498 22.2599L73.2397 22.3299L73.5198 22.3998H73.6598L73.8798 22.5399H74.0898L74.3798 22.6099L74.7297 22.6799L75.0898 22.8998L75.3798 22.9699L75.7297 23.1099L75.9498 23.1799L76.2997 23.3998L76.5198 23.4699L76.7297 23.6799L76.9498 23.8199L77.1598 23.9599L77.4398 24.1799L77.6598 24.3199L77.7997 24.5298L78.0098 24.7499L78.1598 24.8899L78.3698 25.0999L78.5098 25.2499L78.7997 25.5999L79.0798 25.9599L79.3698 26.2399L79.5098 26.4499L79.6498 26.6699L79.7997 26.8099L79.9398 26.8799V26.8099V26.7399V26.5199L79.7297 26.2399L79.6498 26.0298L79.5098 25.6699L79.3698 25.5298L79.2997 25.3899L79.1498 25.0999L78.9398 24.9599L78.8698 24.8199L78.7297 24.5999L78.5898 24.3899L78.3698 24.1799L78.1598 23.9599L78.0098 23.8199L77.7297 23.6099L77.5898 23.3998L77.3698 23.1799L77.1598 23.0399L76.8698 22.8998L76.5898 22.6799L76.3698 22.5399L76.0898 22.3299L75.7997 22.1899L75.5198 22.0399L75.2297 21.8998L74.9498 21.8299L74.6598 21.7599L74.3798 21.5499L74.0898 21.4699L73.7397 21.3998L73.4498 21.3299L73.0898 21.1899H72.8098L72.4498 21.1199H72.1697L71.8798 21.0499H71.5997L71.3098 20.9099H70.9598H70.6697H70.3798H70.0298H69.7397H69.4598H69.1697H68.8898H68.5997H68.3898H68.0997L67.8898 20.9799L67.6697 21.0499H67.3898L67.0997 21.1199H66.8898L66.6798 21.1899H66.4598L66.2498 21.2599L65.9598 21.3299L65.6798 21.3998L65.4598 21.4699L65.2498 21.5499L65.0397 21.6199L64.8198 21.7599H64.6097L64.3898 21.8299L64.1798 21.8998L64.0397 21.9699L63.7498 22.0399L63.4698 22.1899L63.1798 22.2599L62.8998 22.1899L62.6097 22.0399H62.3998L62.1798 21.8998L61.9698 21.8299L61.7498 21.7599H61.5397L61.3298 21.6199L60.9698 21.4699L60.7598 21.3998L60.5397 21.3299L60.4698 21.2599H60.5397L60.6898 21.1899L60.9698 21.0499L61.2598 20.8299L61.4698 20.7699L61.6097 20.6199H61.8998L62.1097 20.4099L62.3998 20.3398L62.6097 20.1199H62.9698L63.2498 19.8398H63.4698H63.6798L63.8898 19.7699L64.0397 19.6299H64.2498L64.4698 19.5599H64.6798L64.8898 19.4099L65.1097 19.3398L65.3198 19.2699H65.5298L65.6798 19.1999H65.9598L66.2498 19.0599H66.4598L66.6798 18.9899H66.9598H67.2498L67.4598 18.9199H67.7498H68.0298L68.2498 18.8398H68.5997L68.8098 18.7699H69.1697H69.3898H69.7397H70.0298H70.3098H70.6697H70.9598H71.3098L71.9498 18.9199L72.5997 18.9899L73.2397 19.0599L73.8098 19.1999L74.4498 19.3398L75.0198 19.5599L75.5198 19.6999L76.0898 19.8398L76.5898 20.1199L77.1598 20.4099L77.5898 20.6199L78.0098 20.9099L78.4398 21.1899L78.8698 21.4699L79.2297 21.8299L79.5798 22.1899L79.9398 22.5399L80.2297 22.8998L80.5798 23.3199L80.7997 23.6799L81.1498 24.1099L81.3698 24.5298L81.6498 24.9599L81.7897 25.3899L82.0098 25.8899L82.2198 26.3099L82.4398 26.8099L82.5098 27.3099L82.6498 27.7999L82.7198 28.2299L82.7897 28.7299V29.2299L82.9297 29.7999L83.0098 30.2899V30.7899V31.2899V31.8599L82.9297 32.3599V32.9299L82.7897 33.4199L82.7198 33.9899L82.6498 34.4899L82.5798 35.0599L82.4398 35.5599L82.2897 36.0599L82.1498 36.5499L81.9398 37.1199L81.6498 37.6199L81.5098 38.1199L81.3698 38.6899L81.0798 39.1799L80.7997 39.6099L80.5098 40.1799L80.2997 40.6799L79.9398 41.0999L79.6498 41.5298L79.3698 42.0999L78.9398 42.5298L78.5898 42.9499L78.2997 43.3799L77.8698 43.8099L77.4398 44.1599L77.0198 44.5898L76.5898 44.9499L76.4498 45.1599L76.2997 45.2999L76.0898 45.4399L75.7997 45.6599L75.6598 45.9399L75.3798 46.1599L75.0898 46.3699L74.7297 46.5799L74.5198 46.8699L74.1598 47.1498L73.8798 47.4299L73.5198 47.7198L73.2397 47.9299L72.9498 48.2198L72.6697 48.4999L72.3098 48.7899L72.0198 49.0699L71.7397 49.2798L71.4498 49.5699L71.1697 49.7798L70.8798 50.0699L70.6697 50.2099L70.4598 50.4899L70.1697 50.6399L69.9598 50.8499L69.8098 50.9899L69.6697 51.0599L69.5298 51.1999L69.3098 51.3499H69.2397Z" fill="black"/>
</svg>
