<?xml version="1.0" encoding="utf-8"?>
<!-- Generator: Adobe Illustrator 25.0.0, SVG Export Plug-In . SVG Version: 6.00 Build 0)  -->
<svg version="1.1" id="Layer_1" xmlns="http://www.w3.org/2000/svg" xmlns:xlink="http://www.w3.org/1999/xlink" x="0px" y="0px"
	 viewBox="0 0 2000 2000" style="enable-background:new 0 0 2000 2000;" xml:space="preserve">
<g>
	<g>
		<g>
			<path d="M725.37,1530.91c-0.72-0.21-1.14-0.16-1.24,0.15c-0.41,1.22-0.83,2.36-1.24,3.44c-0.41,1.06-0.93,2-1.55,2.81
				c-0.62,0.81-1.42,1.45-2.41,1.9c-0.98,0.46-2.25,0.69-3.8,0.69h-1.09c0.93-2.74,1.39-5.59,1.39-8.53c0-2.95-0.41-5.62-1.24-8.01
				c-0.83-2.39-2.17-4.34-4.04-5.87c-1.86-1.52-4.19-2.28-6.99-2.28c-3.63,0-6.76,1-9.4,2.97c-1.83,1.37-3.38,2.95-4.65,4.76
				c-0.58,0.81-1.1,1.66-1.57,2.56c-0.02,0.03-0.03,0.05-0.04,0.08c-1.48,2.86-2.45,5.99-2.91,9.36c-0.19,1.37-0.27,2.7-0.26,3.98
				c0.03,1.92,0.26,3.73,0.73,5.47c0.06,0.23,0.12,0.46,0.2,0.68c0.79,2.6,2.1,4.75,3.91,6.48c1.97,1.88,4.62,2.81,7.93,2.81
				c3.94-0.1,7.26-1.34,9.95-3.73c2.69-2.39,4.77-5.31,6.22-8.76c0.41,0.1,1.03,0.15,1.86,0.15c3.42,0,5.91-1.01,7.46-3.05
				c1.55-2.03,2.75-4.47,3.58-7.31C726.35,1531.37,726.1,1531.11,725.37,1530.91z M706.56,1548.44c-1.97,1.93-4.3,2.89-6.99,2.89
				c-1.77,0-3.08-0.93-3.96-2.82c-0.88-1.88-1.38-4.16-1.47-6.85c-0.11-2.69,0.15-5.57,0.78-8.61c0.62-3.05,1.55-5.79,2.8-8.23
				c0.2,1.63,0.7,3.31,1.47,5.04c0.78,1.72,1.77,3.35,2.96,4.87c1.18,1.52,2.56,2.87,4.11,4.04c1.55,1.17,3.21,2.05,4.98,2.67
				C710.08,1544.17,708.53,1546.51,706.56,1548.44z M713.4,1532.05c-0.2,2.49-0.67,4.95-1.39,7.39c-1.97-0.61-3.79-1.68-5.45-3.2
				c-1.66-1.52-3.05-3.2-4.19-5.03c-1.14-1.83-1.92-3.68-2.33-5.57c-0.41-1.88-0.31-3.48,0.31-4.79c1.66-1.83,3.47-2.74,5.44-2.74
				c1.87,0,3.4,0.66,4.59,1.98c1.19,1.32,2.04,3.02,2.56,5.1C713.46,1527.28,713.62,1529.56,713.4,1532.05z"/>
			<path d="M749,1551.18c1.76,0,3.39-0.76,4.9-2.29c1.5-1.52,2.82-3.38,3.96-5.56c1.14-2.18,2.1-4.42,2.88-6.7
				c0.78-2.29,1.42-4.14,1.94-5.56c0.1-0.3,0.52-0.35,1.24-0.15c0.72,0.2,0.98,0.46,0.78,0.76c-0.62,1.93-1.37,4.19-2.25,6.78
				c-0.88,2.59-2.02,5.06-3.42,7.39c-1.4,2.34-3.06,4.32-4.97,5.94c-1.92,1.63-4.17,2.44-6.76,2.44c-2.8,0-4.92-0.79-6.37-2.36
				c-1.45-1.57-2.44-3.63-2.95-6.17c-0.52-2.54-0.7-5.38-0.54-8.53c0.16-3.15,0.49-6.25,1.01-9.3c0.52-3.05,1.11-5.92,1.79-8.61
				c0.67-2.69,1.22-4.85,1.63-6.48c-1.66,0.2-3.29,0.33-4.9,0.38c-1.61,0.05-3.24-0.08-4.9-0.38c-1.04,3.45-2.12,7.01-3.26,10.67
				c-1.14,3.66-2.28,7.16-3.42,10.52c-0.1,0.31-0.49,0.33-1.17,0.08c-0.67-0.25-0.96-0.53-0.85-0.84c1.14-3.35,2.28-6.83,3.42-10.44
				c1.14-3.61,2.18-7.14,3.11-10.59c-2.18-0.71-3.76-1.8-4.74-3.28c-0.99-1.47-1.45-2.95-1.4-4.42c0.05-1.47,0.57-2.79,1.56-3.96
				c0.98-1.17,2.36-1.75,4.12-1.75c1.24,0,2.15,0.46,2.72,1.37c0.57,0.91,0.88,2.03,0.93,3.35c0.05,1.32-0.03,2.64-0.23,3.96
				c-0.21,1.32-0.36,2.39-0.47,3.2c1.56,0.31,3.08,0.43,4.59,0.38c1.5-0.05,3.03-0.18,4.59-0.38c3.63-0.4,6.35-0.38,8.16,0.08
				c1.81,0.46,2.46,1.55,1.94,3.28c-0.31,1.02-0.78,2.62-1.4,4.8c-0.62,2.19-1.27,4.65-1.94,7.39c-0.67,2.74-1.3,5.59-1.87,8.53
				c-0.57,2.95-0.91,5.64-1.01,8.08c-0.1,2.44,0.1,4.45,0.62,6.02C746.56,1550.39,747.55,1551.18,749,1551.18z"/>
			<path d="M801.38,1517.04c-0.42,1.42-0.96,3.25-1.63,5.49c-0.67,2.24-1.3,4.62-1.86,7.16c-0.57,2.54-1.09,5.08-1.55,7.62
				c-0.47,2.54-0.7,4.83-0.7,6.86c0,2.03,0.26,3.71,0.78,5.03c0.52,1.32,1.45,1.98,2.8,1.98c1.87,0,3.52-0.76,4.97-2.29
				c1.45-1.52,2.74-3.38,3.89-5.56c1.14-2.18,2.12-4.42,2.95-6.7c0.83-2.29,1.5-4.14,2.02-5.56c0.1-0.3,0.52-0.35,1.24-0.15
				c0.72,0.2,0.98,0.46,0.78,0.76c-0.62,1.93-1.4,4.19-2.33,6.78c-0.93,2.59-2.07,5.06-3.42,7.39c-1.35,2.34-2.98,4.32-4.9,5.94
				c-1.92,1.63-4.17,2.44-6.76,2.44c-3.83,0-6.45-1.42-7.85-4.27c-1.4-2.84-2.1-6.3-2.1-10.36c-0.73,1.83-1.58,3.61-2.56,5.33
				c-0.99,1.73-2.13,3.28-3.42,4.65c-1.3,1.37-2.72,2.46-4.27,3.28c-1.55,0.81-3.26,1.22-5.13,1.22c-3.21,0-5.73-0.96-7.54-2.9
				c-1.81-1.93-2.98-4.34-3.5-7.24c-0.52-2.9-0.44-6.02,0.23-9.37c0.67-3.35,1.89-6.48,3.65-9.37c1.76-2.9,4.01-5.31,6.76-7.24
				c2.74-1.93,5.93-2.9,9.56-2.9c2.07,0,3.89,0.46,5.44,1.37c1.55,0.91,2.74,2.13,3.57,3.66l0.93-3.81c0.21-0.81,0.91-1.4,2.1-1.75
				c1.19-0.35,2.41-0.48,3.65-0.38c1.24,0.1,2.33,0.41,3.26,0.91C801.38,1515.57,801.69,1516.23,801.38,1517.04z M789.41,1524.36
				c0-1.73-0.57-3.25-1.71-4.57c-1.14-1.32-2.64-1.98-4.51-1.98c-1.87,0-3.55,0.84-5.05,2.51c-1.5,1.68-2.83,3.76-3.96,6.25
				c-1.14,2.49-2.02,5.16-2.64,8c-0.62,2.85-0.96,5.51-1.01,8c-0.05,2.49,0.21,4.55,0.78,6.17c0.57,1.63,1.53,2.44,2.88,2.44
				c1.55,0,2.98-0.51,4.27-1.52c1.29-1.01,2.46-2.29,3.5-3.81c1.03-1.52,1.97-3.22,2.8-5.11c0.83-1.88,1.55-3.68,2.18-5.41
				c0.52-1.32,1.06-3.12,1.63-5.41C789.12,1527.63,789.41,1525.78,789.41,1524.36z"/>
			<path d="M823.45,1551.18c1.86,0,3.52-0.76,4.97-2.29c1.45-1.52,2.74-3.38,3.89-5.56c1.14-2.18,2.12-4.42,2.95-6.7
				c0.83-2.29,1.5-4.14,2.02-5.56c0.1-0.3,0.52-0.35,1.24-0.15c0.72,0.2,0.98,0.46,0.78,0.76c-0.62,1.93-1.4,4.19-2.33,6.78
				c-0.93,2.59-2.07,5.06-3.42,7.39c-1.35,2.34-2.98,4.32-4.9,5.94c-1.92,1.63-4.17,2.44-6.76,2.44c-2.7,0-4.77-0.76-6.22-2.29
				c-1.45-1.52-2.46-3.48-3.03-5.87c-0.57-2.39-0.8-5.08-0.7-8.08c0.1-3,0.39-5.99,0.86-8.99c0.47-3,1.03-5.81,1.71-8.46
				c0.67-2.64,1.22-4.77,1.63-6.4c0.52-1.93,1.19-4.37,2.02-7.31c0.83-2.95,1.84-6.1,3.03-9.45c1.19-3.35,2.56-6.71,4.12-10.06
				c1.56-3.35,3.29-6.37,5.21-9.07c1.92-2.69,4.07-4.9,6.45-6.63c2.38-1.73,4.97-2.59,7.77-2.59c3,0,4.74,1.04,5.21,3.12
				c0.47,2.08,0.08,4.7-1.17,7.85c-1.24,3.15-3.01,6.61-5.29,10.36c-2.28,3.76-4.61,7.34-6.99,10.74c-2.39,3.41-4.59,6.35-6.61,8.84
				c-2.02,2.49-3.29,4.09-3.81,4.8c-0.21,0.81-0.62,2.29-1.24,4.42c-0.62,2.13-1.27,4.55-1.94,7.24c-0.67,2.69-1.3,5.49-1.87,8.38
				c-0.57,2.9-0.91,5.56-1.01,8c-0.1,2.44,0.08,4.45,0.54,6.02C821.04,1550.39,821.99,1551.18,823.45,1551.18z M827.18,1509.73
				c0.31-0.4,1.24-1.62,2.8-3.66c1.55-2.03,3.31-4.47,5.28-7.32c1.97-2.84,3.96-5.87,5.98-9.07c2.02-3.2,3.65-6.15,4.9-8.84
				c1.24-2.69,1.89-4.93,1.94-6.7c0.05-1.78-0.91-2.67-2.87-2.67c-1.55,0-3.01,0.79-4.35,2.36c-1.35,1.58-2.64,3.58-3.89,6.02
				c-1.24,2.44-2.41,5.16-3.5,8.15c-1.09,3-2.05,5.89-2.88,8.69c-0.83,2.8-1.53,5.39-2.1,7.77
				C827.93,1506.86,827.49,1508.61,827.18,1509.73z"/>
			<path d="M849.87,1517.04c-0.42,1.42-0.96,3.25-1.63,5.49c-0.67,2.24-1.32,4.62-1.94,7.16c-0.62,2.54-1.14,5.08-1.55,7.62
				c-0.42,2.54-0.62,4.83-0.62,6.86c0,2.03,0.26,3.71,0.78,5.03c0.52,1.32,1.45,1.98,2.8,1.98c1.86,0,3.52-0.76,4.97-2.29
				c1.45-1.52,2.74-3.38,3.89-5.56c1.14-2.18,2.12-4.42,2.95-6.7c0.83-2.29,1.5-4.14,2.02-5.56c0.1-0.3,0.49-0.35,1.17-0.15
				c0.67,0.2,0.96,0.46,0.86,0.76c-0.62,1.93-1.4,4.19-2.33,6.78c-0.93,2.59-2.07,5.06-3.42,7.39c-1.35,2.34-2.98,4.32-4.9,5.94
				c-1.92,1.63-4.17,2.44-6.76,2.44c-2.59,0-4.59-0.69-5.98-2.06c-1.4-1.37-2.41-3.15-3.03-5.33c-0.62-2.18-0.93-4.67-0.93-7.47
				c0-2.79,0.21-5.59,0.62-8.38c0.41-2.79,0.91-5.49,1.48-8.08c0.57-2.59,1.11-4.8,1.63-6.63c0.21-0.81,0.88-1.4,2.02-1.75
				c1.14-0.35,2.33-0.48,3.57-0.38c1.24,0.1,2.33,0.41,3.26,0.91C849.71,1515.57,850.08,1516.23,849.87,1517.04z M846.99,1501.95
				c1.37,0,2.53,0.46,3.47,1.37c0.95,0.91,1.42,2.03,1.42,3.35c0,1.32-0.48,2.46-1.42,3.43c-0.95,0.97-2.11,1.45-3.47,1.45
				c-1.26,0-2.37-0.48-3.32-1.45c-0.95-0.96-1.42-2.11-1.42-3.43c0-1.32,0.47-2.44,1.42-3.35
				C844.62,1502.41,845.73,1501.95,846.99,1501.95z"/>
			<path d="M870.7,1533.65c-0.52,2.13-0.83,4.24-0.93,6.32c-0.1,2.08,0.08,3.94,0.54,5.56c0.47,1.63,1.19,2.95,2.18,3.96
				c0.98,1.02,2.36,1.52,4.12,1.52c2.49,0,4.74-0.66,6.76-1.98c2.02-1.32,3.86-3,5.52-5.03c1.66-2.03,3.03-4.19,4.12-6.48
				c1.09-2.29,1.94-4.44,2.56-6.48c0.21-0.3,0.65-0.35,1.32-0.15c0.67,0.2,0.96,0.46,0.86,0.76c-0.73,2.44-1.76,4.98-3.11,7.62
				c-1.35,2.64-3.03,5.08-5.05,7.32c-2.02,2.24-4.35,4.09-6.99,5.56c-2.64,1.47-5.57,2.21-8.78,2.21c-3.73,0-6.66-0.96-8.78-2.9
				c-2.12-1.93-3.55-4.37-4.27-7.31c-0.72-2.95-0.8-6.1-0.23-9.45c0.57-3.35,1.71-6.5,3.42-9.45c1.71-2.95,3.96-5.38,6.76-7.32
				c2.8-1.93,6.01-2.9,9.64-2.9c1.87,0,3.52,0.41,4.97,1.22c1.45,0.81,2.51,1.83,3.19,3.05c0.67,1.22,0.91,2.57,0.7,4.04
				c-0.21,1.47-0.99,2.9-2.33,4.27c-1.35,1.37-3.34,2.62-5.98,3.73C878.23,1532.49,874.84,1533.25,870.7,1533.65z M882.04,1517.8
				c-2.28,0-4.35,1.37-6.22,4.11c-1.86,2.74-3.37,5.89-4.51,9.45c4.87-0.61,8.49-1.65,10.88-3.12c2.38-1.47,3.86-3,4.43-4.57
				c0.57-1.57,0.39-2.95-0.54-4.11C885.15,1518.39,883.8,1517.8,882.04,1517.8z"/>
			<path d="M964.63,1517.04c-0.42,1.42-0.96,3.25-1.63,5.49c-0.67,2.24-1.3,4.62-1.86,7.16c-0.57,2.54-1.09,5.08-1.55,7.62
				c-0.47,2.54-0.7,4.83-0.7,6.86c0,2.03,0.26,3.71,0.78,5.03c0.52,1.32,1.45,1.98,2.8,1.98c1.87,0,3.52-0.76,4.97-2.29
				c1.45-1.52,2.74-3.38,3.89-5.56c1.14-2.18,2.12-4.42,2.95-6.7c0.83-2.29,1.5-4.14,2.02-5.56c0.1-0.3,0.52-0.35,1.24-0.15
				c0.72,0.2,0.98,0.46,0.78,0.76c-0.62,1.93-1.4,4.19-2.33,6.78c-0.93,2.59-2.07,5.06-3.42,7.39c-1.35,2.34-2.98,4.32-4.9,5.94
				c-1.92,1.63-4.17,2.44-6.76,2.44c-3.83,0-6.45-1.42-7.85-4.27c-1.4-2.84-2.1-6.3-2.1-10.36c-0.73,1.83-1.58,3.61-2.56,5.33
				c-0.99,1.73-2.13,3.28-3.42,4.65c-1.3,1.37-2.72,2.46-4.27,3.28c-1.55,0.81-3.26,1.22-5.13,1.22c-3.21,0-5.73-0.96-7.54-2.9
				c-1.81-1.93-2.98-4.34-3.5-7.24c-0.52-2.9-0.44-6.02,0.23-9.37c0.67-3.35,1.89-6.48,3.65-9.37c1.76-2.9,4.01-5.31,6.76-7.24
				c2.74-1.93,5.93-2.9,9.56-2.9c2.07,0,3.89,0.46,5.44,1.37c1.55,0.91,2.74,2.13,3.57,3.66l0.93-3.81c0.21-0.81,0.91-1.4,2.1-1.75
				c1.19-0.35,2.41-0.48,3.65-0.38c1.24,0.1,2.33,0.41,3.26,0.91C964.63,1515.57,964.94,1516.23,964.63,1517.04z M952.66,1524.36
				c0-1.73-0.57-3.25-1.71-4.57c-1.14-1.32-2.64-1.98-4.51-1.98c-1.87,0-3.55,0.84-5.05,2.51c-1.5,1.68-2.82,3.76-3.96,6.25
				c-1.14,2.49-2.02,5.16-2.64,8c-0.62,2.85-0.96,5.51-1.01,8c-0.05,2.49,0.21,4.55,0.78,6.17c0.57,1.63,1.53,2.44,2.88,2.44
				c1.55,0,2.98-0.51,4.27-1.52c1.29-1.01,2.46-2.29,3.5-3.81c1.03-1.52,1.97-3.22,2.8-5.11c0.83-1.88,1.55-3.68,2.18-5.41
				c0.52-1.32,1.06-3.12,1.63-5.41C952.37,1527.63,952.66,1525.78,952.66,1524.36z"/>
			<path d="M973.02,1550.87c0.52-3.76,1.19-8.41,2.02-13.94c0.83-5.54,1.92-11.35,3.26-17.45c0.31-1.52,1.09-2.61,2.33-3.28
				c1.24-0.66,2.49-0.94,3.73-0.84c1.24,0.1,2.31,0.53,3.19,1.29c0.88,0.76,1.17,1.86,0.86,3.28l-1.24,5.18
				c1.45-2.95,3.26-5.38,5.44-7.31c2.18-1.93,4.77-2.9,7.77-2.9c3.52,0,6.06,0.89,7.62,2.67c1.55,1.78,2.51,4.01,2.88,6.71
				c0.36,2.69,0.28,5.61-0.23,8.76c-0.52,3.15-1.01,6.07-1.48,8.76c-0.47,2.69-0.73,4.93-0.78,6.7c-0.05,1.78,0.54,2.67,1.79,2.67
				c1.87,0,3.52-0.79,4.97-2.36c1.45-1.57,2.74-3.43,3.89-5.56c1.14-2.13,2.1-4.34,2.88-6.63c0.78-2.29,1.42-4.14,1.94-5.56
				c0.21-0.3,0.65-0.35,1.32-0.15c0.67,0.2,0.96,0.46,0.85,0.76c-0.62,1.93-1.4,4.19-2.33,6.78c-0.93,2.59-2.07,5.06-3.42,7.39
				c-1.35,2.34-2.98,4.32-4.9,5.94c-1.92,1.63-4.17,2.44-6.76,2.44c-3.21,0-5.42-0.91-6.61-2.74c-1.19-1.83-1.84-4.09-1.94-6.78
				c-0.1-2.69,0.13-5.61,0.7-8.76c0.57-3.15,1.01-6.07,1.32-8.76c0.31-2.69,0.28-4.95-0.08-6.78c-0.36-1.83-1.48-2.74-3.34-2.74
				c-2.7,0-5,1.4-6.92,4.19c-1.92,2.8-3.5,6.1-4.74,9.91c-1.24,3.81-2.2,7.65-2.87,11.51c-0.68,3.86-1.17,6.91-1.48,9.14
				c-0.1,0.91-0.7,1.6-1.79,2.06c-1.09,0.46-2.23,0.63-3.42,0.53c-1.19-0.1-2.28-0.48-3.26-1.14
				C973.2,1553.19,972.81,1552.19,973.02,1550.87z"/>
			<path d="M1060.53,1551.18c1.86,0,3.52-0.76,4.97-2.29c1.45-1.52,2.74-3.38,3.89-5.56c1.14-2.18,2.1-4.42,2.88-6.7
				c0.78-2.29,1.42-4.14,1.94-5.56c0.1-0.3,0.52-0.35,1.24-0.15c0.72,0.2,0.98,0.46,0.78,0.76c-0.62,1.93-1.38,4.19-2.25,6.78
				c-0.88,2.59-2.02,5.06-3.42,7.39c-1.4,2.34-3.06,4.32-4.97,5.94c-1.92,1.63-4.17,2.44-6.76,2.44c-3.73,0-6.29-1.45-7.69-4.34
				c-1.4-2.9-2.15-6.37-2.25-10.44c-0.73,1.83-1.58,3.63-2.56,5.41c-0.99,1.78-2.13,3.35-3.42,4.72c-1.3,1.37-2.72,2.46-4.27,3.28
				c-1.55,0.81-3.26,1.22-5.13,1.22c-3.21,0-5.73-0.96-7.54-2.9c-1.81-1.93-2.98-4.34-3.5-7.24c-0.52-2.9-0.44-6.02,0.23-9.37
				c0.67-3.35,1.89-6.48,3.65-9.37c1.76-2.9,4.01-5.31,6.76-7.24c2.74-1.93,5.93-2.9,9.56-2.9c1.97,0,3.76,0.46,5.36,1.37
				c1.61,0.91,2.82,2.08,3.65,3.51c0.52-2.44,0.98-4.37,1.4-5.79c0.52-1.93,1.19-4.37,2.02-7.31c0.83-2.95,1.84-6.1,3.03-9.45
				c1.19-3.35,2.56-6.71,4.12-10.06s3.32-6.37,5.28-9.07c1.97-2.69,4.12-4.9,6.45-6.63c2.33-1.73,4.9-2.59,7.69-2.59
				c3,0,4.74,1.04,5.21,3.12c0.47,2.08,0.1,4.7-1.09,7.85c-1.19,3.15-2.95,6.61-5.29,10.36c-2.33,3.76-4.69,7.34-7.07,10.74
				c-2.38,3.41-4.59,6.35-6.61,8.84c-2.02,2.49-3.29,4.09-3.81,4.8c-0.21,0.81-0.62,2.29-1.24,4.42c-0.62,2.13-1.27,4.55-1.94,7.24
				c-0.68,2.69-1.27,5.49-1.79,8.38c-0.52,2.9-0.86,5.56-1.01,8c-0.16,2.44,0.02,4.45,0.54,6.02
				C1058.09,1550.39,1059.08,1551.18,1060.53,1551.18z M1050.58,1524.2c-0.1-1.73-0.7-3.22-1.79-4.5c-1.09-1.27-2.56-1.9-4.43-1.9
				c-1.87,0-3.55,0.84-5.05,2.51c-1.5,1.68-2.82,3.76-3.96,6.25c-1.14,2.49-2.02,5.16-2.64,8c-0.62,2.85-0.96,5.51-1.01,8
				c-0.05,2.49,0.21,4.55,0.78,6.17c0.57,1.63,1.53,2.44,2.88,2.44c1.66,0,3.19-0.58,4.59-1.75c1.4-1.17,2.64-2.64,3.73-4.42
				c1.09-1.78,2.07-3.68,2.95-5.71c0.88-2.03,1.58-3.96,2.1-5.79c0.31-1.12,0.7-2.67,1.17-4.65
				C1050.35,1526.87,1050.58,1525.32,1050.58,1524.2z M1064.26,1509.73c0.31-0.4,1.24-1.62,2.8-3.66c1.55-2.03,3.31-4.47,5.28-7.32
				c1.97-2.84,3.96-5.87,5.98-9.07s3.63-6.15,4.82-8.84c1.19-2.69,1.81-4.93,1.87-6.7c0.05-1.78-0.86-2.67-2.72-2.67
				c-1.55,0-3.01,0.79-4.35,2.36c-1.35,1.58-2.64,3.58-3.89,6.02c-1.24,2.44-2.41,5.16-3.5,8.15c-1.09,3-2.05,5.89-2.88,8.69
				c-0.83,2.8-1.53,5.39-2.1,7.77C1065.01,1506.86,1064.57,1508.61,1064.26,1509.73z"/>
			<path d="M1250.01,1566.91c-0.68-0.25-1.12-0.12-1.32,0.39c-0.81,2.02-1.86,3.91-3.14,5.68c-1.28,1.77-2.77,3.32-4.47,4.64
				c-1.7,1.32-3.53,2.39-5.49,3.21c-1.96,0.82-4.03,1.24-6.21,1.26c-4.25,0.03-7.7-0.95-10.36-2.94c-2.66-1.99-4.88-4.56-6.67-7.72
				c-1.79-3.15-3.29-6.69-4.52-10.6c-1.22-3.91-2.53-7.73-3.9-11.44c-1.38-3.71-3.04-7.12-4.98-10.22c-1.94-3.1-4.47-5.45-7.6-7.03
				c6.42-0.75,11.89-2.76,16.43-6.01c4.53-3.25,8.07-7.18,10.63-11.78c2.55-4.6,4.07-9.56,4.54-14.9
				c0.47-5.33-0.14-10.39-1.83-15.15c-1.7-4.76-4.56-8.97-8.57-12.61c-4.02-3.64-9.25-6.14-15.68-7.5c1.74-2.83,3.69-5.03,5.85-6.61
				c2.16-1.58,4.75-2.38,7.75-2.4c1.97,0.09,3.89,0.67,5.77,1.76c1.87,1.09,3.39,2.49,4.54,4.19c0.63,1,1.25,1.32,1.87,0.97
				c0.62-0.36,0.67-0.93,0.14-1.74c-1.47-2.4-3.45-4.27-5.95-5.61c-2.5-1.34-5.2-2-8.1-1.97c-3.94,0.13-7.43,1.11-10.47,2.95
				c-3.04,1.83-5.74,4.37-8.1,7.61l-3.42,0.03c-6.11,0.05-11.78,0.85-17,2.4c-5.22,1.55-10,3.65-14.33,6.3
				c-3.33-1.88-7.28-2.81-11.84-2.77c-5.08,0.04-9.71,1.21-13.88,3.5c-4.18,2.3-7.83,5.24-10.96,8.84
				c-3.13,3.6-5.66,7.64-7.59,12.13c-1.93,4.49-3.19,9-3.78,13.54c-0.09,1.01,0.22,1.51,0.95,1.5c0.72-0.01,1.14-0.41,1.23-1.22
				c0.48-4.23,1.64-8.46,3.47-12.7c1.83-4.24,4.21-8.11,7.13-11.6c2.92-3.49,6.37-6.34,10.34-8.53c3.97-2.19,8.34-3.31,13.11-3.35
				c3.63-0.03,6.9,0.65,9.81,2.04c-4.84,3.26-9.04,6.99-12.58,11.19c-3.54,4.2-6.38,8.53-8.52,12.97c-2.14,4.44-3.61,8.81-4.4,13.09
				c-0.8,4.28-0.82,8.11-0.06,11.47c0.75,3.37,2.25,6.09,4.5,8.19c2.24,2.1,5.28,3.18,9.12,3.25c4.14,0.07,7.84-0.99,11.09-3.18
				c3.25-2.19,5.99-5.03,8.25-8.52c2.25-3.49,3.95-7.43,5.11-11.81c1.15-4.39,1.69-8.77,1.6-13.14c-0.09-4.38-0.8-8.52-2.12-12.43
				c-1.33-3.91-3.4-7.17-6.22-9.76c3.92-2.65,8.22-4.79,12.93-6.44c4.7-1.65,9.75-2.49,15.13-2.53c0.52,0,0.93,0.04,1.25,0.14
				c-3.17,5.06-5.84,11.14-8.01,18.25c-2.17,7.11-4.16,14.52-5.96,22.23c-1.8,7.71-3.61,15.37-5.41,22.98
				c-1.8,7.61-3.95,14.42-6.44,20.42c-2.49,6-5.48,10.88-8.97,14.63c-3.49,3.75-7.88,5.65-13.17,5.69
				c-2.38,0.02-4.46-0.39-6.23-1.23c-1.77-0.84-3.31-1.99-4.61-3.43c-1.31-1.45-2.36-3.1-3.15-4.96c-0.79-1.86-1.3-3.84-1.53-5.95
				c-0.11-0.7-0.53-1.05-1.25-1.05c-0.73,0.01-1.03,0.41-0.92,1.21c0.56,5.33,2.51,9.71,5.86,13.16c3.34,3.44,8.07,5.14,14.19,5.09
				c5.18-0.04,9.68-1.18,13.5-3.43c3.81-2.24,7.16-5.29,10.03-9.13c2.87-3.85,5.29-8.29,7.27-13.34c1.98-5.04,3.75-10.42,5.31-16.11
				c1.56-5.69,2.91-11.54,4.05-17.54c1.14-5.99,2.31-11.81,3.51-17.46c1.2-5.64,2.5-10.96,3.91-15.95
				c1.41-4.99,3.03-9.35,4.87-13.09c4.99,1.37,8.92,3.88,11.8,7.53c2.88,3.65,4.78,7.81,5.7,12.48c0.92,4.67,0.93,9.53,0.04,14.56
				c-0.89,5.04-2.62,9.68-5.17,13.92c-2.56,4.25-5.84,7.74-9.86,10.49c-4.02,2.75-8.72,4.14-14.11,4.19
				c-0.42-0.1-0.99-0.14-1.71-0.14l0.01,1.06l-0.15,1.06c0.31,0.1,0.78,0.14,1.4,0.14c2.49,0.49,4.47,2.1,5.95,4.86
				c1.47,2.76,2.79,6.09,3.97,10c1.17,3.91,2.45,8.1,3.83,12.57c1.38,4.46,3.23,8.58,5.54,12.33c2.31,3.75,5.31,6.87,9.01,9.36
				c3.7,2.48,8.55,3.71,14.56,3.66c5.91-0.05,11-1.6,15.27-4.65c4.27-3.05,7.38-7.15,9.3-12.3
				C1250.92,1567.53,1250.69,1567.16,1250.01,1566.91z M1163.15,1485.05c1.27,3.66,1.95,7.56,2.04,11.68
				c0.09,4.13-0.37,8.25-1.38,12.39c-1,4.13-2.5,7.84-4.49,11.13c-1.99,3.29-4.43,5.95-7.32,7.98c-2.89,2.04-6.14,3.02-9.77,2.94
				c-2.9-0.08-5.11-1.07-6.63-2.97c-1.52-1.9-2.42-4.36-2.7-7.37c-0.28-3.02,0.08-6.49,1.08-10.42c1-3.93,2.55-7.92,4.64-11.96
				c2.09-4.04,4.7-8.01,7.83-11.91c3.13-3.9,6.75-7.37,10.87-10.42C1159.93,1478.41,1161.88,1481.39,1163.15,1485.05z"/>
			<path d="M1266.58,1517.04c-0.42,1.42-0.96,3.25-1.63,5.49c-0.67,2.24-1.3,4.62-1.86,7.16c-0.57,2.54-1.09,5.08-1.55,7.62
				c-0.47,2.54-0.7,4.83-0.7,6.86c0,2.03,0.26,3.71,0.78,5.03c0.52,1.32,1.45,1.98,2.8,1.98c1.87,0,3.52-0.76,4.97-2.29
				c1.45-1.52,2.74-3.38,3.89-5.56c1.14-2.18,2.12-4.42,2.95-6.7c0.83-2.29,1.5-4.14,2.02-5.56c0.1-0.3,0.52-0.35,1.24-0.15
				c0.72,0.2,0.98,0.46,0.78,0.76c-0.62,1.93-1.4,4.19-2.33,6.78c-0.93,2.59-2.07,5.06-3.42,7.39c-1.35,2.34-2.98,4.32-4.9,5.94
				c-1.92,1.63-4.17,2.44-6.76,2.44c-3.83,0-6.45-1.42-7.85-4.27c-1.4-2.84-2.1-6.3-2.1-10.36c-0.73,1.83-1.58,3.61-2.56,5.33
				c-0.99,1.73-2.13,3.28-3.42,4.65c-1.3,1.37-2.72,2.46-4.27,3.28c-1.55,0.81-3.26,1.22-5.13,1.22c-3.21,0-5.73-0.96-7.54-2.9
				c-1.81-1.93-2.98-4.34-3.5-7.24c-0.52-2.9-0.44-6.02,0.23-9.37c0.67-3.35,1.89-6.48,3.65-9.37c1.76-2.9,4.01-5.31,6.76-7.24
				c2.74-1.93,5.93-2.9,9.56-2.9c2.07,0,3.89,0.46,5.44,1.37c1.55,0.91,2.74,2.13,3.57,3.66l0.93-3.81c0.21-0.81,0.91-1.4,2.1-1.75
				c1.19-0.35,2.41-0.48,3.65-0.38c1.24,0.1,2.33,0.41,3.26,0.91C1266.58,1515.57,1266.89,1516.23,1266.58,1517.04z
				 M1254.61,1524.36c0-1.73-0.57-3.25-1.71-4.57c-1.14-1.32-2.64-1.98-4.51-1.98c-1.87,0-3.55,0.84-5.05,2.51
				c-1.5,1.68-2.82,3.76-3.96,6.25c-1.14,2.49-2.02,5.16-2.64,8c-0.62,2.85-0.96,5.51-1.01,8c-0.05,2.49,0.21,4.55,0.78,6.17
				c0.57,1.63,1.53,2.44,2.88,2.44c1.55,0,2.98-0.51,4.27-1.52c1.29-1.01,2.46-2.29,3.5-3.81c1.03-1.52,1.97-3.22,2.8-5.11
				c0.83-1.88,1.55-3.68,2.18-5.41c0.52-1.32,1.06-3.12,1.63-5.41C1254.33,1527.63,1254.61,1525.78,1254.61,1524.36z"/>
			<path d="M1288.65,1551.18c1.86,0,3.52-0.76,4.97-2.29c1.45-1.52,2.74-3.38,3.89-5.56c1.14-2.18,2.12-4.42,2.95-6.7
				c0.83-2.29,1.5-4.14,2.02-5.56c0.1-0.3,0.52-0.35,1.24-0.15c0.72,0.2,0.98,0.46,0.78,0.76c-0.62,1.93-1.4,4.19-2.33,6.78
				c-0.93,2.59-2.07,5.06-3.42,7.39c-1.35,2.34-2.98,4.32-4.9,5.94c-1.92,1.63-4.17,2.44-6.76,2.44c-2.7,0-4.77-0.76-6.22-2.29
				c-1.45-1.52-2.46-3.48-3.03-5.87c-0.57-2.39-0.8-5.08-0.7-8.08c0.1-3,0.39-5.99,0.86-8.99c0.47-3,1.03-5.81,1.71-8.46
				c0.67-2.64,1.22-4.77,1.63-6.4c0.52-1.93,1.19-4.37,2.02-7.31c0.83-2.95,1.84-6.1,3.03-9.45c1.19-3.35,2.56-6.71,4.12-10.06
				c1.56-3.35,3.29-6.37,5.21-9.07c1.92-2.69,4.07-4.9,6.45-6.63c2.38-1.73,4.97-2.59,7.77-2.59c3,0,4.74,1.04,5.21,3.12
				c0.47,2.08,0.08,4.7-1.17,7.85c-1.24,3.15-3.01,6.61-5.29,10.36c-2.28,3.76-4.61,7.34-6.99,10.74c-2.39,3.41-4.59,6.35-6.61,8.84
				c-2.02,2.49-3.29,4.09-3.81,4.8c-0.21,0.81-0.62,2.29-1.24,4.42c-0.62,2.13-1.27,4.55-1.94,7.24c-0.67,2.69-1.3,5.49-1.87,8.38
				c-0.57,2.9-0.91,5.56-1.01,8c-0.1,2.44,0.08,4.45,0.54,6.02C1286.24,1550.39,1287.2,1551.18,1288.65,1551.18z M1292.38,1509.73
				c0.31-0.4,1.24-1.62,2.8-3.66c1.55-2.03,3.31-4.47,5.28-7.32c1.97-2.84,3.96-5.87,5.98-9.07s3.65-6.15,4.9-8.84
				c1.24-2.69,1.89-4.93,1.94-6.7c0.05-1.78-0.91-2.67-2.88-2.67c-1.55,0-3.01,0.79-4.35,2.36c-1.35,1.58-2.64,3.58-3.89,6.02
				c-1.24,2.44-2.41,5.16-3.5,8.15c-1.09,3-2.05,5.89-2.88,8.69c-0.83,2.8-1.53,5.39-2.1,7.77
				C1293.13,1506.86,1292.7,1508.61,1292.38,1509.73z"/>
			<path d="M1293.32,1579.98c0.21-1.22,0.54-3.3,1.01-6.25c0.47-2.95,1.04-6.32,1.71-10.13c0.68-3.81,1.43-7.9,2.25-12.27
				c0.83-4.37,1.63-8.61,2.41-12.72c0.78-4.12,1.5-7.9,2.18-11.35c0.67-3.45,1.27-6.2,1.79-8.23c0.41-1.52,1.24-2.59,2.49-3.2
				c1.24-0.61,2.49-0.89,3.73-0.84c1.24,0.05,2.28,0.48,3.11,1.3c0.83,0.81,1.09,1.93,0.78,3.35l-0.62,2.44
				c1.24-2.03,2.8-3.68,4.66-4.95c1.87-1.27,4.14-1.91,6.84-1.91c3,0,5.46,0.66,7.38,1.98c1.92,1.32,3.37,3.07,4.35,5.26
				c0.98,2.19,1.5,4.6,1.55,7.24c0.05,2.64-0.29,5.31-1.01,8c-0.73,2.69-1.86,5.23-3.42,7.62c-1.55,2.39-3.47,4.34-5.75,5.87
				c4.97-1.01,9.02-3.05,12.12-6.1c3.11-3.05,5.65-7.62,7.62-13.72c0.21-0.51,0.67-0.66,1.4-0.46c0.72,0.2,0.98,0.56,0.78,1.07
				c-2.7,8.64-6.79,14.58-12.28,17.83c-2.59,1.63-5.6,2.8-9.02,3.51c-3.42,0.71-6.63,1.07-9.64,1.07c-3.01,0-5.36-0.58-7.07-1.75
				c-1.71-1.17-2.93-2.77-3.65-4.8c-0.62,3.46-1.27,6.93-1.94,10.44c-0.68,3.51-1.27,6.78-1.79,9.83c-0.52,3.05-0.99,5.77-1.4,8.15
				c-0.42,2.39-0.73,4.24-0.93,5.56c-0.21,0.91-0.86,1.6-1.94,2.06s-2.23,0.61-3.42,0.46c-1.19-0.15-2.25-0.59-3.19-1.3
				C1293.47,1582.32,1293.11,1581.3,1293.32,1579.98z M1310.57,1543.25c0.21,2.03,0.72,3.94,1.55,5.71
				c0.83,1.78,2.38,2.62,4.66,2.51c1.87,0,3.6-0.84,5.21-2.51c1.61-1.68,2.95-3.76,4.04-6.25c1.09-2.49,1.94-5.18,2.56-8.08
				c0.62-2.9,0.88-5.59,0.78-8.08c-0.1-2.49-0.57-4.57-1.4-6.25c-0.83-1.68-2.13-2.51-3.89-2.51c-1.55,0-2.95,0.43-4.2,1.29
				c-1.24,0.86-2.33,1.96-3.26,3.28c-0.93,1.32-1.76,2.8-2.49,4.42c-0.73,1.63-1.3,3.2-1.71,4.72c-0.52,1.83-1.01,3.76-1.48,5.79
				C1310.49,1539.34,1310.36,1541.32,1310.57,1543.25z"/>
			<path d="M1345.23,1550.87c0.42-3.76,1.06-8.38,1.94-13.87s1.99-11.25,3.34-17.3c1.35-6.04,2.95-12.09,4.82-18.13
				c1.87-6.04,4.01-11.45,6.45-16.23c2.43-4.77,5.21-8.69,8.32-11.73c3.11-3.05,6.53-4.57,10.26-4.57c3,0,4.74,1.04,5.21,3.12
				c0.47,2.08,0.1,4.7-1.09,7.85c-1.19,3.15-2.95,6.61-5.28,10.36c-2.33,3.76-4.69,7.34-7.07,10.74c-2.39,3.41-4.59,6.35-6.61,8.84
				c-2.02,2.49-3.29,4.09-3.81,4.8l-2.33,10.52c1.45-2.95,3.26-5.41,5.44-7.39c2.18-1.98,4.77-2.97,7.77-2.97
				c3.52,0,6.06,0.89,7.62,2.67c1.55,1.78,2.51,4.01,2.87,6.71c0.36,2.69,0.28,5.61-0.23,8.76c-0.52,3.15-1.01,6.07-1.48,8.76
				c-0.47,2.69-0.73,4.93-0.78,6.7c-0.05,1.78,0.54,2.67,1.79,2.67c1.87,0,3.52-0.79,4.97-2.36c1.45-1.57,2.74-3.43,3.89-5.56
				c1.14-2.13,2.1-4.34,2.88-6.63c0.78-2.29,1.42-4.14,1.94-5.56c0.21-0.3,0.65-0.35,1.32-0.15c0.67,0.2,0.96,0.46,0.86,0.76
				c-0.62,1.93-1.4,4.19-2.33,6.78c-0.93,2.59-2.07,5.06-3.42,7.39c-1.35,2.34-2.98,4.32-4.9,5.94c-1.92,1.63-4.17,2.44-6.76,2.44
				c-3.21,0-5.42-0.91-6.61-2.74c-1.19-1.83-1.84-4.09-1.94-6.78c-0.1-2.69,0.13-5.61,0.7-8.76c0.57-3.15,1.01-6.07,1.32-8.76
				c0.31-2.69,0.28-4.95-0.08-6.78c-0.36-1.83-1.48-2.74-3.34-2.74c-2.7,0-5,1.4-6.92,4.19c-1.92,2.8-3.5,6.1-4.74,9.91
				c-1.24,3.81-2.2,7.65-2.88,11.51c-0.67,3.86-1.17,6.91-1.48,9.14c-0.11,0.91-0.7,1.6-1.79,2.06c-1.09,0.46-2.23,0.63-3.42,0.53
				c-1.19-0.1-2.28-0.48-3.26-1.14C1345.41,1553.19,1345.02,1552.19,1345.23,1550.87z M1362.95,1509.73c0.31-0.4,1.24-1.62,2.8-3.66
				c1.55-2.03,3.32-4.47,5.28-7.32c1.97-2.84,3.96-5.87,5.98-9.07c2.02-3.2,3.65-6.15,4.9-8.84c1.24-2.69,1.89-4.93,1.94-6.7
				c0.05-1.78-0.91-2.67-2.88-2.67c-1.55,0-3.01,0.79-4.35,2.36c-1.35,1.58-2.64,3.58-3.89,6.02c-1.24,2.44-2.41,5.16-3.5,8.15
				c-1.09,3-2.05,5.89-2.88,8.69c-0.83,2.8-1.53,5.39-2.1,7.77C1363.7,1506.86,1363.26,1508.61,1362.95,1509.73z"/>
			<path d="M690.48,1524.28c-0.75,6.59-2.3,13.03-4.58,19.14c-0.21,0.56-0.42,1.12-0.65,1.66c-2.22,5.46-5.14,10.42-8.67,14.77
				c-3.88,4.78-8.54,8.72-13.82,11.7c-5.31,2.99-11.41,4.66-18.13,4.99c-0.73,0.03-1.45,0.05-2.16,0.05
				c-6.51,0-12.04-1.45-16.46-4.32c-4.9-3.18-8.72-7.54-11.35-12.96c-2.63-5.42-4.18-11.73-4.63-18.76
				c-0.45-7.02,0-14.32,1.32-21.69c1.32-7.37,3.54-14.75,6.6-21.93c3.07-7.19,6.88-13.74,11.32-19.45
				c4.46-5.73,9.59-10.45,15.25-14.06c5.68-3.61,11.97-5.6,18.71-5.92c3.79-0.16,7.11,0.31,9.9,1.45c2.79,1.14,5.13,2.77,6.97,4.84
				c1.84,2.07,3.29,4.58,4.34,7.45c1.04,2.86,1.69,5.98,1.93,9.27l0.1,2.29c-0.01,1.27-0.05,2.52-0.14,3.73l-0.02,0.24
				c-0.11,1.37-0.27,2.78-0.49,4.19c-0.37,2.37-0.89,4.79-1.57,7.21c-0.74,2.67-1.66,5.26-2.73,7.71c-0.26,0.58-0.51,1.15-0.79,1.72
				c-0.45,0.95-0.95,1.92-1.49,2.89c-0.39,0.7-0.81,1.43-1.31,2.23c-0.28,0.45-0.57,0.89-0.85,1.32c-2.55,3.81-5.56,7.05-8.95,9.64
				c-3.79,2.87-8.05,4.44-12.69,4.66c-4.33,0.19-7.9-0.85-10.58-3.11c-2.68-2.26-4.46-5.19-5.28-8.72
				c-0.82-3.51-0.64-7.37,0.52-11.51c1.03-3.63,2.9-7.11,5.57-10.35c0.41-0.49,1.11-0.64,1.7-0.37l0,0
				c0.83,0.38,1.07,1.43,0.49,2.13c-2.25,2.7-3.85,5.58-4.76,8.6c-1.1,3.64-1.39,7.05-0.87,10.12c0.52,3.05,1.87,5.56,4.03,7.46
				c2.15,1.9,4.99,2.79,8.45,2.62c3.57-0.16,6.94-1.6,10.02-4.25c3.1-2.67,5.78-6.11,7.97-10.2c2.2-4.09,3.95-8.67,5.22-13.6
				c1.25-4.93,1.9-9.78,1.91-14.42l-0.1-2.27c-0.11-2.79-0.53-5.44-1.24-7.88c-0.7-2.42-1.72-4.57-3.04-6.37
				c-1.32-1.8-2.98-3.2-4.94-4.17c-1.98-0.96-4.33-1.39-7.01-1.26c-5.2,0.24-10.11,2.05-14.58,5.37c-4.49,3.35-8.63,7.79-12.29,13.2
				c-3.66,5.42-6.81,11.61-9.36,18.39c-2.55,6.78-4.49,13.76-5.76,20.77c-1.28,6.98-1.79,13.92-1.51,20.62
				c0.27,6.68,1.39,12.65,3.32,17.75c1.91,5.06,4.82,9.15,8.65,12.13c3.81,2.97,8.79,4.34,14.79,4.06
				c5.82-0.28,11.18-1.92,15.92-4.89c4.76-2.98,8.91-6.81,12.34-11.4c3.44-4.6,6.28-9.8,8.4-15.46c0.31-0.81,0.6-1.63,0.87-2.44
				c1.5-4.41,2.56-8.89,3.18-13.35c0-0.01,0.01-0.02,0.01-0.02c0.47-0.92,1-1.79,1.6-2.61c0.04,0,0.08,0,0.12,0.01
				c0.52,0.06,0.87,0.23,1.08,0.51C690.46,1523.68,690.52,1523.96,690.48,1524.28z"/>
		</g>
		<g>
			<path d="M1271.82,1095.35c-0.54-1.05-1.53-1.81-2.95-2.27h-0.01c-0.76-0.24-1.43-0.33-2.03-0.29c-1.92,0.09-3.05,1.4-3.48,2.84
				c0,0.01-0.01,0.03-0.01,0.04c-1.53,4.98-3.62,9.77-6.22,14.23c-2.62,4.47-5.75,8.46-9.31,11.85c-3.59,3.43-7.55,6.32-11.79,8.57
				c-1.96,1.04-4.02,1.88-6.14,2.51c-2.35,0.71-4.78,1.16-7.26,1.35c-9.33,0.68-17.1-1.16-23.13-5.44
				c-6.2-4.42-11.58-10.39-16.01-17.74c-4.52-7.47-8.5-16.05-11.85-25.51c-3.34-9.44-6.97-18.93-10.75-28.21
				c-3.8-9.19-8.25-17.69-13.24-25.24c-4-6.04-8.85-10.88-14.46-14.45c12.7-3.24,23.64-8.88,32.61-16.81
				c10.18-9,18.04-19.72,23.38-31.87c5.32-12.13,8.17-25.21,8.48-38.86c0.31-13.68-1.91-26.66-6.63-38.58
				c-4.74-11.95-12.24-22.42-22.3-31.14c-9.48-8.2-21.45-13.71-35.6-16.41c3.17-5.9,6.78-10.69,10.78-14.28
				c4.4-3.94,9.9-6.18,16.35-6.68c4.18-0.07,8.41,1.05,12.58,3.32c4.21,2.3,7.73,5.4,10.41,9.16c1.35,2.01,2.71,3.13,4.2,3.41
				c1.08,0.2,2.15-0.06,3.09-0.74c1.3-0.92,1.73-2.06,1.87-2.85c0.23-1.38-0.2-2.88-1.28-4.43c-3.95-6.09-9.13-10.76-15.41-13.89
				c-6.26-3.12-13-4.44-20.1-3.93c-9.43,0.96-17.77,4.11-24.79,9.37c-6.71,5.01-12.63,11.72-17.62,19.98l-6.87,0.5
				c-14.27,1.05-27.57,3.99-39.56,8.72c-11.53,4.54-22.2,10.42-31.72,17.48c-8.05-3.97-17.39-5.59-27.74-4.83
				c-12.05,0.89-23.02,4.67-32.59,11.24c-6.4,4.37-12.25,9.53-17.47,15.38c0.06-1.37,0.11-2.76,0.13-4.17l-0.17-6.08
				c-0.51-8.74-2.14-17.06-4.84-24.74c-2.72-7.74-6.6-14.51-11.52-20.13c-4.94-5.64-11.27-10.12-18.81-13.32
				c-7.54-3.17-16.56-4.63-26.81-4.32c-18.19,0.55-35.25,5.55-50.71,14.87c-15.37,9.28-29.35,21.56-41.54,36.49
				c-12.15,14.88-22.63,31.98-31.14,50.8c-8.51,18.8-14.76,38.16-18.6,57.53c-3.85,19.4-5.34,38.64-4.42,57.18
				c0.91,18.63,4.85,35.42,11.72,49.89c6.9,14.55,17.05,26.32,30.17,34.99c13.15,8.69,30.04,12.79,50.17,12.19
				c18.11-0.53,34.62-4.71,49.06-12.41c14.36-7.67,27.04-17.89,37.69-30.37c10.64-12.46,19.3-26.94,25.72-43.02
				c6.39-16.04,10.79-32.97,13.06-50.28c0.22-1.48-0.24-2.5-0.67-3.09c-0.74-1.02-1.91-1.62-3.62-1.84
				c-3.03-0.35-5.05,1.17-5.44,4.05c-2,15-6,30.06-11.9,44.75c-5.87,14.66-13.57,28.09-22.86,39.91
				c-9.25,11.77-20.39,21.56-33.08,29.09c-12.62,7.48-26.79,11.51-42.13,11.97c-15.76,0.47-28.73-3.26-38.57-11.07
				c-9.92-7.86-17.4-18.52-22.23-31.69c-4.88-13.34-7.59-28.93-8.06-46.35c-0.48-17.53,1.15-35.63,4.83-53.8
				c3.67-18.24,9.1-36.43,16.15-54.04c7.04-17.59,15.64-33.61,25.58-47.61c9.89-13.92,21.01-25.29,33.04-33.8
				c11.88-8.41,24.83-12.87,38.5-13.28c6.97-0.2,13.05,0.98,18.11,3.52c5.04,2.55,9.29,6.18,12.61,10.8
				c3.37,4.68,5.95,10.23,7.68,16.48c1.76,6.34,2.74,13.22,2.94,20.45l0.16,5.9c-0.21,12.07-2.11,24.67-5.63,37.45
				c-3.53,12.79-8.36,24.63-14.34,35.19c-5.94,10.5-13.14,19.28-21.42,26.08c-8.13,6.65-16.95,10.17-26.23,10.45
				c-8.93,0.27-16.21-2.08-21.65-6.96c-5.46-4.92-8.84-11.33-10.05-19.06c-1.26-7.89-0.36-16.62,2.66-25.95
				c2.92-9.04,8.3-17.59,16.02-25.4l2.2-2.23l-9.68-4.14l-0.96,1.03c-8.57,9.22-14.53,19.27-17.74,29.86
				c-3.34,11.01-3.98,21.37-1.89,30.79c2.11,9.55,6.87,17.54,14.14,23.75c7.29,6.25,17,9.25,28.88,8.91
				c12.58-0.39,24.23-4.39,34.63-11.91c9.28-6.71,17.53-15.18,24.53-25.17c0.78-1.1,1.57-2.26,2.34-3.45
				c1.37-2.1,2.54-4.02,3.6-5.85c1.48-2.53,2.88-5.08,4.14-7.58c0.76-1.52,1.48-3,2.19-4.54c2.98-6.42,5.55-13.24,7.65-20.27
				c1.86-6.21,3.35-12.45,4.42-18.56c0.55-0.86,1.11-1.72,1.69-2.57c6.08-8.94,13.53-16.48,22.14-22.42
				c8.53-5.87,18.24-9.24,28.86-10.03c6.74-0.49,13.07,0.25,18.86,2.22c-9.68,8.42-18.11,17.85-25.1,28.05
				c-7.63,11.18-13.7,22.71-18.02,34.27c-4.35,11.63-7.17,23.07-8.37,34c-1.23,11.09-0.68,21.04,1.62,29.58
				c2.33,8.7,6.46,15.73,12.25,20.89c5.89,5.26,13.64,7.7,23.01,7.27c9.99-0.47,18.86-3.87,26.37-10.11
				c7.35-6.1,13.53-13.93,18.34-23.25c4.76-9.21,8.22-19.63,10.29-30.99c2.05-11.3,2.64-22.65,1.78-33.75
				c-0.86-11.12-3.18-21.71-6.89-31.46c-3.43-9.02-8.32-16.63-14.57-22.67c8.01-6.4,16.96-11.87,26.62-16.27
				c10.23-4.66,21.5-7.49,33.53-8.43c-5.99,12.67-10.9,27.63-14.59,44.54c-3.95,18.06-7.49,37.16-10.52,56.77
				c-2.98,19.26-6.04,38.92-9.11,58.44c-3.02,19.19-6.99,36.64-11.8,51.87c-4.77,15.1-10.92,27.69-18.28,37.4
				c-7.24,9.54-16.45,14.59-28.17,15.45c-5.17,0.38-9.78-0.29-13.67-2c-3.93-1.7-7.47-4.21-10.52-7.44
				c-3.09-3.26-5.66-7.1-7.66-11.39c-2-4.33-3.43-9.08-4.25-14.22c-0.57-2.75-2.49-4.29-5.18-4.09c-1.71,0.13-2.64,0.94-3.13,1.59
				c-0.75,1.03-0.97,2.41-0.67,4.03c2.15,13.67,7.56,24.87,16.11,33.29c8.65,8.53,20.47,12.31,35.14,11.21
				c12.27-0.89,22.95-4.59,31.74-10.99c8.7-6.36,16.23-14.78,22.42-25.04c6.15-10.22,11.22-22.01,15.07-35.03
				c3.83-12.9,7.18-26.83,9.95-41.42c2.76-14.51,5.05-29.57,6.8-44.75c1.71-14.81,3.57-29.7,5.54-44.26
				c1.93-14.33,4.18-27.94,6.66-40.45c2.34-11.81,5.22-22.4,8.59-31.53c10.47,2.72,19.1,8.1,25.64,16
				c6.97,8.45,11.89,18.4,14.61,29.58c2.75,11.31,3.49,23.35,2.21,35.77c-1.28,12.41-4.54,24.19-9.7,34.99
				c-5.14,10.71-12.12,19.83-20.75,27.1c-8.46,7.14-18.78,11.22-30.66,12.14c-1.11-0.18-2.5-0.2-4.22-0.06l-2.01,0.15l0.31,4.58
				l-0.3,4.25l1.61,0.46c0.9,0.25,2.06,0.32,3.72,0.22c5.14,0.81,9.34,4.16,12.83,10.24c3.72,6.53,7.25,14.65,10.49,24.13
				c3.42,10,7.04,20.42,10.74,30.96c3.89,11.06,8.89,21.34,14.87,30.55c6.04,9.27,13.75,16.92,22.88,22.72
				c7.86,5,17.64,7.52,29.15,7.52c2.05,0,4.14-0.08,6.3-0.24c2.22-0.16,4.39-0.43,6.52-0.79c11.26-1.87,21.1-6.46,29.3-13.66
				c9.71-8.54,16.56-19.73,20.33-33.22C1272.44,1097.05,1272.14,1095.99,1271.82,1095.35z M1053.22,903.71
				c3.38,8.74,5.51,18.28,6.31,28.36c0.78,10.12,0.33,20.47-1.33,30.74c-1.67,10.29-4.56,19.7-8.58,27.99
				c-3.98,8.23-9.1,15.12-15.25,20.45c-5.99,5.21-13.04,8.03-20.94,8.36c-6.13,0.22-10.78-1.64-14.19-5.71
				c-3.52-4.21-5.83-9.93-6.89-17.02c-1.05-7.26-0.74-15.88,0.95-25.6c1.71-9.83,4.69-20.01,8.86-30.25
				c4.16-10.27,9.6-20.58,16.16-30.67c6.23-9.59,13.62-18.39,21.97-26.18C1045.79,889.17,1050.12,895.73,1053.22,903.71z"/>
			<g>
				<g>
					<path d="M1202.56,641.68c3.39-0.49,6.8-0.89,10.23-1.2C1209.35,640.76,1205.94,641.16,1202.56,641.68z M833.8,600.66
						c2.41,0.78,4.9,1.62,7.44,2.52C838.31,602.09,835.8,601.27,833.8,600.66z M1202.56,641.68c3.39-0.49,6.8-0.89,10.23-1.2
						C1209.35,640.76,1205.94,641.16,1202.56,641.68z M1438.86,1071.4c-5.27-4.79-11.31-9.11-17.93-12.74
						c-1.63-0.95-3.41-1.62-5.2-2.25c-1.82-0.56-3.7-0.97-5.54-1.46c-1.87-0.38-3.7-0.89-5.55-1.28c-1.87-0.36-3.72-0.8-5.59-1.06
						c-6.96-1.15-14-1.62-20.96-1.56c-6.05,9.05-12.51,17.7-19.33,26.07v0.01c-4.63,5.67-9.41,11.21-14.3,16.64
						c-22.7,25.17-48.03,46.21-74.77,64.85c-11.34,7.89-23.01,15.16-34.59,22.57h-0.01c-4.71,2.99-9.41,6.02-14.06,9.12
						l-18.48,12.31c-97.55,67.28-195.75,157.86-201.79,163.45c-0.02,0.02-0.03,0.04-0.05,0.05l-0.21,0.24c0,0-0.01-0.01-0.02-0.02
						c-1.6-1.59-84.63-84.66-157.74-136.61c-21.07-13.66-38.85-24.26-48.94-30.14c-0.02-0.01-0.04-0.02-0.06-0.03h-0.01
						c-5.63-3.28-8.85-5.07-8.85-5.07c-5.41-3.07-10.92-6.03-16.3-9.24c-2.2-1.3-4.37-2.62-6.56-3.95
						c-33.03-20.08-64.73-42.79-93-71.27c-10.35-10.41-20.19-21.27-29.37-32.67c-6.81-8.45-13.26-17.2-19.29-26.29
						c-7.39-0.15-14.89,0.32-22.31,1.54c-1.88,0.26-3.73,0.7-5.6,1.06c-1.85,0.39-3.69,0.9-5.56,1.28c-1.83,0.49-3.72,0.9-5.53,1.46
						c-1.79,0.63-3.57,1.3-5.2,2.25c-6.63,3.63-12.66,7.95-17.93,12.74c-2.12,1.94-4.12,3.96-6,6.03
						c11.22,4.07,22.29,5.49,32.06,3.92c0.39-0.06,0.79-0.05,1.23,0c0.8,0.11,1.69,0.34,2.75,0.48
						c37,57.24,86.53,96.71,140.05,132.25l36.23,23.18c5.18,3.48,10.44,6.78,15.72,10.06c5.48,3.4,10.99,6.78,16.41,10.28
						c5.91,3.8,11.8,7.65,17.67,11.55c32.06,21.25,63.35,43.89,92.91,69.55l0.12,0.13l16.97,15.25l0.27,0.25l73.93,66.51
						c0.02-0.02,0.05-0.05,0.07-0.08c1.37-1.28,27.73-26.01,58.8-53.68c47.36-40.7,91.8-73.26,124.6-95.78
						c7.57-5.2,14.54-9.87,20.77-13.97c4.54-2.9,9.07-5.79,13.63-8.66c6.79-4.3,13.61-8.57,20.41-12.84l34.3-20.01
						c52.32-37.17,101.73-77.02,138.9-134.29c0.85,0,1.67,0.02,2.47,0.05h0.01c2.51,0.07,4.79,0.19,7.06-0.11
						c8.41-1.12,17.16-1.2,25.15-4.07c0.04-0.01,0.07-0.02,0.1-0.03C1442.94,1075.32,1440.95,1073.32,1438.86,1071.4z"/>
					<path d="M1541.67,945.53c-6.84,4.85-13.72,9.7-20.65,14.6c-1.22-10.72-1.8-21.12-3.67-31.21
						c-6.12-33.23-20.35-61.04-41.92-83.59c-4.2-4.39-7.19-8.89-8.1-15.98c-5.93-46.42-20.26-88.96-43.69-127.1
						c-1.77-2.87-3.78-5.85-4.63-9.15c-4.14-16.29-5.91-32.89-3.91-49.87c0.26-2.45,0.59-4.91,0.9-7.38
						c-6.52,12.5-7.84,26.46-9.43,41.51c-1.87-2.04-2.75-2.94-3.57-3.92c-18.71-21.86-39.58-40.39-63.28-53.97
						c-34.86-19.98-70.09-29.59-105.59-29.9l0.01-0.01h-1.33c-1.22,0-2.42,0.01-3.64,0.03c-1.21,0.03-2.4,0.06-3.59,0.09
						c-1.27,0.05-2.5,0.1-3.75,0.16c-1.24,0.07-2.46,0.14-3.7,0.22c-1.18,0.08-2.37,0.19-3.55,0.27c-1,0.09-2,0.18-3.02,0.28
						c-0.85,0.09-1.71,0.18-2.56,0.28c-0.17,0.01-0.33,0.03-0.52,0.06c-1.76,0.2-3.52,0.42-5.28,0.66c-4.33,0.6-8.61,1.34-12.8,2.19
						c-0.87,0.17-1.74,0.36-2.6,0.53c-0.53,0.11-1.06,0.24-1.61,0.36c-3.38,0.76-6.71,1.59-10,2.49c-0.01,0-0.02,0-0.03,0.01
						c-93.05,19.45-177.64,145.8-177.64,145.8C951,657.31,887.43,619.87,842.21,603.54c-0.33-0.13-0.65-0.24-0.97-0.36
						c-2.54-0.9-5.03-1.74-7.44-2.52c-0.21-0.07-0.43-0.14-0.63-0.2c-2.64-0.78-4.28-1.17-4.78-1.27c-0.12-0.02-0.17-0.03-0.17-0.03
						c-13.87-4.07-27.99-6.86-42.33-8.23c-4.1-0.4-8.21-0.68-12.35-0.84c-62.36-2.46-117.25,20.29-164.75,67.83
						c-5.88,5.88-11.49,12.1-17.82,18.81c-1.43-15.04-2.54-28.89-8.93-41.27c3.2,17.29,1.46,34.26-2.1,51.01
						c-1,4.73-2.69,9.56-5.07,13.54c-22.29,37.1-37.19,77.89-43.57,122.71c-1.52,10.68-4.74,18.97-11.61,26.6
						c-23.95,26.47-37.99,59.05-40.68,97.94c-0.31,4.48-0.9,8.92-1.48,14.43c-7.21-6.41-13.14-12.87-23.33-15.47
						c12.52,10.67,18.77,23.67,23.59,37.78c2.28,6.63,4.38,13.34,6.48,20.03c11.68,37.14,40.24,63.35,67.96,73.4
						c1.88-2.07,3.89-4.09,6-6.03c5.28-4.79,11.3-9.11,17.93-12.74c1.63-0.95,3.41-1.62,5.2-2.25c1.81-0.56,3.7-0.97,5.53-1.46
						c1.87-0.38,3.71-0.89,5.56-1.28c1.87-0.36,3.72-0.8,5.6-1.06c7.41-1.22,14.91-1.69,22.31-1.54
						c-19.3-29.05-34.31-61.59-43.04-99.05c-8.15-34.89-11.22-70.29-6.9-106.32c0.23-1.74,0.65-3.43,1.14-6.05
						c6.28-4.15,12.84-8.54,19.44-12.84c26.34-17.14,52.97-33.67,78.94-51.54c21.29-14.68,40.87-32.39,58.62-52.68
						c13.08-14.97,28.44-24.22,46.68-26.67c0.57-0.08,1.11-0.49,1.62-0.83c0.22-0.13,0.29-0.55,1.17-2.42h-29.49
						c6.37-17.44,12.53-34.42,19.4-53.22c0,0,37.38-7.15,73.93,15.23c40.89,20.1,95.71,63.98,156.67,158.11
						c0,0,52.56-91.5,129.86-141.33c4.03-2.87,8.16-5.58,12.4-8.16c19.46-11.78,39.93-18.41,61.1-21.52
						c0.22-0.05,0.44-0.08,0.66-0.1c3.38-0.52,6.79-0.92,10.23-1.2c1.26-0.12,2.49-0.23,3.74-0.31c0.02-0.01,0.05-0.01,0.07-0.01
						h0.01c0.6-0.04,1.2-0.09,1.8-0.12c3.17-0.21,6.36-0.35,9.57-0.43c0.89-0.02,1.78,0.36,2.6,0.57
						c6.42,17.3,12.78,34.48,19.33,52.17c-11.99,0.17-24.22-2.11-37.37,3.74c22.86-1.42,40.51,8.32,55.5,25.44
						c28.19,32.26,61.06,56.56,95.47,78.27c20.89,13.15,41.73,26.39,62.9,39.78c2.05,15.99,3.15,32.04,2.41,48.12
						c-1.77,39.74-9.35,77.84-24.1,113.8c-7.36,17.87-16.38,34.26-26.63,49.55c6.96-0.06,14,0.41,20.96,1.56
						c1.87,0.26,3.72,0.7,5.59,1.06c1.85,0.39,3.68,0.9,5.55,1.28c1.84,0.49,3.72,0.9,5.54,1.46c1.79,0.63,3.57,1.3,5.2,2.25
						c6.62,3.63,12.67,7.95,17.93,12.74c2.09,1.92,4.08,3.92,5.95,5.97c36.1-13.14,60.65-41.04,72.89-83.23
						c5.23-18.06,11.85-34.82,25.2-46.89C1542.5,946.66,1542.07,946.09,1541.67,945.53z M572.86,1056.37
						c-5.31,0.74-9.56-0.41-13.71-1.89c-35.39-12.67-59.01-45.07-55.93-93.32c1.36-20.98,6.62-40.69,15.75-58.83
						c1.98-3.94,4.39-7.55,6.6-11.31C530.43,950.48,545.13,1005.42,572.86,1056.37z M739.7,648.03
						c-6.5,23.81-17.82,43.63-34.66,59.15c-15.63,14.41-32.55,26.38-50.15,36.99c-23.25,14.01-46.62,27.7-71.45,42.39
						c10.48-65.79,98.9-146.19,157.1-144.55C740.27,644.09,740.24,646.15,739.7,648.03z M1413.63,785.28
						c-10.61-5.84-21.36-11.42-31.84-17.59c-25.23-14.85-50.93-28.69-74.38-47.44c-18.63-14.89-34.56-32.68-44.1-57.2
						c-2.38-6.12-4.05-12.57-6.67-20.79c5.23,0.44,9.08,0.28,12.73,1.16c61.16,14.32,106.82,53.87,137.43,117.61
						c3.39,7.05,5.67,14.87,8.43,22.34C1414.71,784,1414.17,784.65,1413.63,785.28z M1492.86,990.48
						c-6.62,35.67-28.37,55.29-57.12,65.28c-2.32,0.82-4.72,1.35-7.11,1.86c-0.83,0.18-1.75-0.15-4.01-0.37
						c27.63-51.27,42.8-106.67,46.97-166.59C1491.3,920.56,1499.6,953.98,1492.86,990.48z"/>
					<g>
						<path d="M906.61,1433.68c-6.45-0.65-12.44-1.96-17.96-3.78c-0.01,0-0.02,0-0.03-0.02c-40.41-13.32-56.7-53.46-57.23-54.84
							c-0.01-0.03-0.02-0.04-0.02-0.04c-5.74,16.47-11.59,31.74-22.36,44.33c1.14-3.11,2.3-6.2,3.38-9.3
							c6.18-17.19,9.11-34.79,9.79-52.6c-6.41-12.93-12.15-26-17.43-39.19c-9.31-23.42-17.29-47.11-24.49-70.91
							c-0.13-0.45-0.27-0.89-0.4-1.35c-1.76-6.09-3.66-12.13-5.31-18.22l-5.05-18.28l-4.74-18.31c-0.38-1.5-0.79-3.11-1.18-4.52
							l-1.21-4.14l-0.34-1.2l-0.85-2.93c-0.44-1.37-1-2.71-1.49-4.07c-3.95-10.85-9.35-21.28-16.02-31.02
							c-6.73-9.7-14.74-18.66-23.72-26.7c-17.96-16.02-39.86-28.4-63.62-35.2c-2.94-0.94-5.93-1.74-8.92-2.43
							c-1.5-0.35-2.99-0.69-4.49-0.99c-1.1-0.23-2.18-0.44-3.27-0.62c-0.4-0.08-0.82-0.15-1.22-0.22c-6-1.02-11.99-1.68-17.89-1.79
							c-5.9-0.13-11.71,0.25-17.34,1.18c-2.81,0.47-5.6,1.03-8.28,1.86c-2.64,0.92-5.16,2.03-7.95,2.62
							c-0.49,0.11-0.97,0.22-1.46,0.35c-10.61,2.56-20.92,7.59-30.37,14.5c-9.88,7.23-18.72,16.41-26.77,26.4
							c1.66-6.09,3.84-12.07,6.42-18.02c2.66-5.9,5.88-11.66,9.74-17.19c2.31-3.32,4.87-6.54,7.7-9.61c1.88-2.07,3.89-4.09,6-6.03
							c5.28-4.79,11.31-9.11,17.93-12.74c1.63-0.95,3.41-1.62,5.2-2.25c1.82-0.56,3.7-0.97,5.54-1.46c1.87-0.38,3.7-0.89,5.56-1.28
							c1.87-0.36,3.71-0.8,5.6-1.06c7.41-1.22,14.91-1.68,22.31-1.53h0.21c7.47,0.14,14.85,0.96,22.05,2.19
							c1.8,0.29,3.6,0.63,5.37,1c1.8,0.36,3.56,0.76,5.32,1.18c3.52,0.81,7,1.73,10.43,2.82c27.71,7.96,53.26,22.35,74.2,41.06
							c10.48,9.36,19.83,19.84,27.7,31.23c7.82,11.39,14.19,23.66,18.85,36.45c0.58,1.6,1.2,3.18,1.74,4.8l1.43,4.88l1.41,4.9
							c0.47,1.6,0.8,3.03,1.2,4.56l3.47,13.43h0.01v0.01l1.18,4.57l4.96,17.95c1.62,5.98,3.48,11.9,5.22,17.86
							c2.93,9.77,6,19.52,9.24,29.2c4.63,13.84,9.58,27.56,14.95,41.08c2.36,5.78,4.75,11.56,7.24,17.29
							c2.43,5.61,4.97,11.17,7.65,16.65l0.25,0.5l13.51,29.35l0.59,1.28v0.01c5.63,12.13,12.17,22.2,18.6,30.4
							C892.22,1424.93,906.61,1433.68,906.61,1433.68z"/>
						<path d="M1468.71,1122.25c-8.05-10-16.88-19.17-26.77-26.4c-9.16-6.72-19.16-11.63-29.44-14.27h-0.01
							c-0.79-0.21-1.58-0.4-2.38-0.58c-2.78-0.59-5.3-1.69-7.95-2.62c-2.68-0.83-5.46-1.39-8.28-1.86
							c-5.62-0.92-11.44-1.3-17.34-1.18c-5.87,0.11-11.83,0.76-17.79,1.77v0.01c-0.03,0-0.06,0-0.09,0.01c-1.5,0.25-3,0.53-4.5,0.84
							c-1.49,0.29-2.99,0.64-4.48,0.99c-3,0.68-5.99,1.49-8.93,2.43c-23.75,6.8-45.65,19.18-63.62,35.2
							c-8.98,8.04-16.99,16.99-23.72,26.7c-6.65,9.73-12.07,20.17-16.02,31.02c-0.48,1.36-1.03,2.7-1.49,4.07l-0.81,2.82h-0.01
							l-0.37,1.31l-1.21,4.14c-0.39,1.41-0.79,3.02-1.18,4.52l-4.74,18.31l-5.04,18.28c-1.66,6.1-3.56,12.14-5.32,18.22
							c-0.27,0.9-0.54,1.8-0.82,2.7c-7.09,23.34-14.94,46.58-24.07,69.56c-5.28,13.19-11.03,26.26-17.43,39.19
							c0.67,17.81,3.6,35.41,9.78,52.6c1.09,3.1,2.25,6.19,3.38,9.3c-10.76-12.59-16.61-27.86-22.36-44.33c0,0-0.01,0.01-0.02,0.04
							c-0.54,1.38-16.82,41.53-57.23,54.84c-0.01,0.02-0.02,0.02-0.03,0.02c-5.53,1.83-11.51,3.13-17.95,3.78
							c0,0,14.38-8.74,29.48-27.97c6.42-8.2,12.97-18.27,18.58-30.4v-0.01l0.59-1.28l13.51-29.35l0.25-0.5
							c2.69-5.48,5.22-11.04,7.66-16.65c2.49-5.73,4.88-11.51,7.24-17.29c5.09-12.82,9.81-25.81,14.22-38.93
							c3.51-10.38,6.82-20.84,9.96-31.35c1.74-5.96,3.6-11.88,5.23-17.86l4.95-17.95l0.39-1.52l4.27-16.49
							c0.39-1.53,0.73-2.96,1.19-4.56l1.41-4.9l1.44-4.88c0.53-1.62,1.16-3.21,1.74-4.8c4.66-12.79,11.02-25.06,18.85-36.45
							c7.86-11.38,17.22-21.86,27.69-31.23c20.94-18.71,46.5-33.11,74.2-41.06c3.44-1.08,6.91-2.01,10.44-2.82
							c1.75-0.42,3.52-0.82,5.31-1.18c1.77-0.37,3.57-0.7,5.38-1c7.2-1.23,14.57-2.05,22.04-2.19c0.52-0.01,1.05-0.02,1.57-0.02
							c6.95-0.06,14,0.41,20.95,1.56c1.87,0.26,3.73,0.7,5.6,1.06c1.85,0.39,3.67,0.9,5.55,1.28c1.84,0.49,3.71,0.9,5.54,1.46
							c1.79,0.63,3.57,1.3,5.2,2.25c6.62,3.63,12.67,7.95,17.93,12.74c2.09,1.92,4.08,3.92,5.95,5.97c2.85,3.09,5.43,6.33,7.75,9.67
							c3.86,5.54,7.09,11.3,9.75,17.19C1464.87,1110.19,1467.07,1116.17,1468.71,1122.25z"/>
					</g>
				</g>
				<g>
					<g>
						<path d="M1403.87,497.19c-8.83-23.25-24.35-43.34-43.98-61.37c-7.74-7.11-16.1-13.76-24.4-20.81
							c0.85,6.31,2.04,11.82,2.26,17.35c0.48,11.73-6.05,21.72-11.42,32.01c-6.2,11.88-12.77,23.69-17.88,35.92
							c-6.24,14.98-9.58,30.58-6.15,46.67c1.15,5.4,2.99,10.41,5.52,15.02c0.03,0.04,0.05,0.09,0.08,0.13
							c0.22,0.4,0.45,0.81,0.68,1.2c0.26,0.44,0.52,0.88,0.78,1.3c8.33,13.66,18.19,20.08,26.87,22.9c12.2,4,22.07,0.9,22.07,0.9
							c-6.02-6.64-12.83-12.69-17.59-19.69c-10-14.71-12.28-30.84-9.46-47.15c0.73-4.23,1.81-8.41,3.01-12.58l14.44-36.44
							c-0.74,7.41-2,14.83-4,22.2c-2.63,9.66-5.15,19.44-6.14,29.3c-2.64,26.33,9,47.49,36.16,62.56c1.76,0.98,3.38,1.44,5.05,1.34
							c0,0,20.64-3.7,29.96-47.6C1411.41,526.19,1409.41,511.78,1403.87,497.19z"/>
						<path d="M1422.6,614.09c2.43-8.61,3.94-17.57,7.35-25.3c7.17-16.26,19.66-26.79,35.04-33.14c3.99-1.65,8.12-2.97,12.3-4.19
							l38.7-7.33c-6.7,3.33-13.68,6.24-21.01,8.5c-9.62,2.95-19.28,6.06-28.19,10.49c-23.8,11.85-35.58,32.93-33.88,63.81
							c0.1,2,0.58,3.61,1.56,4.96c0,0,14.18,15.36,56.48-0.26c12.93-6.16,24.11-15.53,33.56-27.99
							c15.05-19.84,23.85-43.62,28.69-69.74c1.91-10.31,3.1-20.88,4.66-31.62c-4.91,4.09-8.97,8.03-13.55,11.16
							c-9.72,6.67-21.7,6.52-33.32,7.51c-13.42,1.14-26.96,1.92-40.09,4.17c-16.07,2.76-31.12,8.29-42.97,19.77
							c-3.98,3.85-7.26,8.07-9.82,12.66c-0.02,0.04-0.05,0.09-0.07,0.13c-0.22,0.4-0.45,0.81-0.66,1.21
							c-0.24,0.45-0.47,0.9-0.69,1.35c-7.17,14.3-7.36,26.02-5.12,34.81C1414.69,607.45,1422.6,614.09,1422.6,614.09z"/>
						<path d="M1507.33,792.71c-2.13,5.1-3.46,10.26-3.99,15.49c0,0.05-0.01,0.1-0.01,0.15c-0.04,0.46-0.09,0.92-0.12,1.37
							c-0.04,0.51-0.07,1.01-0.1,1.51c-0.91,15.95,3.57,26.79,9.12,34c7.79,10.16,17.69,13.15,17.69,13.15
							c-1.19-8.86-3.36-17.68-3.3-26.13c0.12-17.76,7.42-32.33,19.03-44.2c3.01-3.08,6.28-5.92,9.64-8.68l32.65-21.92
							c-4.83,5.69-10.09,11.1-15.93,16.05c-7.66,6.49-15.31,13.14-21.73,20.7c-17.16,20.23-19.61,44.22-5.78,71.93
							c0.89,1.8,1.96,3.09,3.4,3.94c0,0,19.12,8.55,51.79-22.4c9.44-10.73,15.99-23.73,19.72-38.89
							c5.95-24.13,4.59-49.43-1.34-75.34c-2.34-10.22-5.45-20.4-8.28-30.88c-2.89,5.68-5.05,10.9-8.01,15.57
							c-6.28,9.94-17.35,14.51-27.63,19.97c-11.88,6.31-24.01,12.35-35.18,19.57C1525.3,766.52,1513.66,777.51,1507.33,792.71z"/>
						<path d="M1709.63,917.48c-11.81,0.03-21.61-6.83-31.75-12.55c-11.71-6.61-23.33-13.58-35.43-19.11
							c-14.82-6.76-30.38-10.67-46.69-7.87c-5.47,0.94-10.58,2.57-15.31,4.92c-0.04,0.02-0.09,0.05-0.13,0.07
							c-0.41,0.21-0.83,0.41-1.23,0.63c-0.45,0.24-0.9,0.48-1.33,0.73c-14.05,7.76-20.87,17.31-24.04,25.83
							c-4.48,11.97-1.73,21.89-1.73,21.89c6.9-5.73,13.24-12.27,20.46-16.73c15.16-9.38,31.46-11.04,47.75-7.62
							c4.23,0.89,8.39,2.12,12.53,3.46l36.08,15.72c-7.42-1.02-14.83-2.54-22.16-4.81c-9.61-2.97-19.35-5.85-29.22-7.2
							c-26.37-3.61-48.08,7.15-64.25,33.57c-1.05,1.71-1.58,3.3-1.53,4.96c0,0,2.95,20.64,46.72,31.55
							c14.17,2.2,28.72,0.75,43.6-4.2c23.7-7.89,44.49-22.56,63.34-41.38c7.44-7.43,14.44-15.48,21.83-23.45
							C1720.78,916.51,1715.19,917.48,1709.63,917.48z"/>
						<path d="M1604.18,1094.91c-9.02-7.94-17.89-16.18-27.46-23.25c-11.72-8.65-24.61-14.93-39.41-15.48
							c-4.96-0.19-9.74,0.31-14.32,1.49c-0.04,0.01-0.09,0.03-0.13,0.04c-0.4,0.11-0.8,0.21-1.2,0.32c-0.44,0.13-0.88,0.25-1.3,0.39
							c-13.74,4.21-21.5,11.32-25.85,18.19c-6.15,9.65-5.59,18.84-5.59,18.84c7.11-3.75,13.88-8.3,21.03-10.88
							c15.02-5.42,29.6-3.87,43.22,2.12c3.54,1.55,6.95,3.4,10.32,5.34l28.66,20.4c-6.31-2.26-12.51-4.96-18.51-8.29
							c-7.86-4.37-15.85-8.68-24.24-11.68c-22.41-8.02-43.42-2.59-62.5,17.56c-1.24,1.3-2,2.6-2.27,4.06c0,0-1.26,18.61,35.03,36.22
							c12,4.53,25.01,5.95,38.96,4.35c22.22-2.55,43.15-11.56,63.16-24.57c7.9-5.13,15.52-10.89,23.48-16.51
							c-5.69-0.64-10.77-0.82-15.64-1.84C1619.29,1109.59,1611.99,1101.78,1604.18,1094.91z"/>
						<path d="M1495.68,1233.35c1.93-11.83,4.2-23.68,5.1-35.5c1.09-14.47-0.45-28.66-7.89-41.38c-2.49-4.27-5.46-8.02-8.92-11.23
							c-0.03-0.03-0.07-0.06-0.1-0.09c-0.3-0.28-0.61-0.56-0.91-0.83c-0.34-0.3-0.68-0.6-1.03-0.89
							c-10.92-9.3-21.11-12.02-29.28-12.01c-11.49-0.01-19.01,5.37-19.01,5.37c6.98,3.97,14.48,7.23,20.49,11.86
							c12.64,9.73,19.11,22.8,21.29,37.46c0.57,3.8,0.82,7.66,0.98,11.53l-2.04,34.99c-1.45-6.51-2.47-13.16-2.84-19.98
							c-0.48-8.94-1.09-17.96-3.01-26.61c-5.16-23.11-21-37.87-48.33-43.14c-1.77-0.35-3.28-0.29-4.67,0.27
							c0,0-16.5,8.88-12.09,48.79c2.56,12.5,8.3,24.19,17.12,35.06c14.04,17.31,32.88,30.08,54.64,39.95
							c8.58,3.89,17.56,7.23,26.59,10.91c-2.5-5.13-5.06-9.49-6.79-14.12C1491.27,1253.89,1494,1243.59,1495.68,1233.35z"/>
						<path d="M1275.95,1329.26c-13.13-4.97-26.08-6.78-38.83-5.33c-39.54,8.18-42.92,26.53-42.92,26.53
							c-0.1,1.49,0.31,2.93,1.19,4.49c13.5,24.2,32.52,34.61,56.23,32.32c8.87-0.86,17.69-3.08,26.39-5.39
							c6.64-1.76,13.32-2.86,19.99-3.5l-32.83,12.76c-3.75,1.06-7.52,2.01-11.33,2.65c-14.69,2.47-29.2,0.41-42.42-8.53
							c-6.29-4.25-11.72-10.32-17.68-15.7c0,0-2.82,8.77,0.75,19.63c2.52,7.73,8.27,16.51,20.55,23.96c0.38,0.24,0.77,0.47,1.17,0.7
							c0.35,0.21,0.72,0.41,1.08,0.61c0.04,0.02,0.08,0.05,0.12,0.07c4.14,2.27,8.65,3.91,13.51,4.95
							c14.48,3.09,28.53,0.16,42.03-5.35c11.02-4.51,21.66-10.32,32.38-15.81c9.27-4.75,18.28-10.53,28.84-10.08
							c4.97,0.21,9.93,1.28,15.61,2.05c-6.32-7.4-12.29-14.85-18.67-21.75C1314.91,1351.03,1296.85,1337.17,1275.95,1329.26z"/>
						<path d="M1378.34,1217.59c-22.48-33.35-40.86-29.57-40.86-29.57c-1.42,0.47-2.61,1.39-3.74,2.79
							c-17.49,21.53-20.04,42.96-9,63.94c4.13,7.85,9.51,15.14,14.94,22.28c4.14,5.45,7.67,11.19,10.78,17.1l-24.23-25.45
							c-2.39-3.06-4.7-6.17-6.72-9.44c-7.82-12.6-11.35-26.75-7.99-42.28c1.6-7.39,5.22-14.68,7.99-22.19c0,0-9.23,0.7-18.02,8.07
							c-6.26,5.22-12.28,13.83-14.61,27.93c-0.08,0.44-0.15,0.88-0.21,1.34c-0.06,0.4-0.11,0.81-0.16,1.22
							c-0.01,0.04-0.01,0.09-0.02,0.13c-0.56,4.67-0.4,9.44,0.46,14.3c2.56,14.5,10.57,26.34,20.78,36.71
							c8.35,8.46,17.76,16.08,26.91,23.89c7.91,6.76,16.68,12.89,20.23,22.78c1.67,4.66,2.54,9.63,3.95,15.15
							c4.52-8.6,9.22-16.9,13.27-25.37c10.24-21.48,16.38-43.32,15.9-65.55C1387.66,1241.41,1384.48,1228.79,1378.34,1217.59z"/>
					</g>
					<g>
						<path d="M596.13,497.19c8.83-23.25,24.35-43.34,43.98-61.37c7.74-7.11,16.1-13.76,24.4-20.81
							c-0.85,6.31-2.04,11.82-2.26,17.35c-0.48,11.73,6.05,21.72,11.42,32.01c6.2,11.88,12.77,23.69,17.88,35.92
							c6.24,14.98,9.58,30.58,6.15,46.67c-1.15,5.4-2.99,10.41-5.52,15.02c-0.03,0.04-0.05,0.09-0.08,0.13
							c-0.22,0.4-0.45,0.81-0.68,1.2c-0.26,0.44-0.52,0.88-0.78,1.3c-8.33,13.66-18.19,20.08-26.87,22.9
							c-12.2,4-22.07,0.9-22.07,0.9c6.02-6.64,12.83-12.69,17.59-19.69c10-14.71,12.28-30.84,9.46-47.15
							c-0.73-4.23-1.81-8.41-3.01-12.58l-14.44-36.44c0.74,7.41,2,14.83,4,22.2c2.63,9.66,5.15,19.44,6.14,29.3
							c2.64,26.33-9,47.49-36.16,62.56c-1.76,0.98-3.38,1.44-5.05,1.34c0,0-20.64-3.7-29.96-47.6
							C588.59,526.19,590.59,511.78,596.13,497.19z"/>
						<path d="M577.4,614.09c-2.43-8.61-3.94-17.57-7.35-25.3c-7.17-16.26-19.66-26.79-35.04-33.14c-3.99-1.65-8.12-2.97-12.3-4.19
							l-38.7-7.33c6.7,3.33,13.68,6.24,21.01,8.5c9.62,2.95,19.28,6.06,28.19,10.49c23.8,11.85,35.58,32.93,33.88,63.81
							c-0.1,2-0.58,3.61-1.56,4.96c0,0-14.18,15.36-56.48-0.26c-12.93-6.16-24.11-15.53-33.56-27.99
							c-15.05-19.84-23.85-43.62-28.69-69.74c-1.91-10.31-3.1-20.88-4.66-31.62c4.91,4.09,8.97,8.03,13.55,11.16
							c9.72,6.67,21.7,6.52,33.32,7.51c13.42,1.14,26.96,1.92,40.09,4.17c16.07,2.76,31.12,8.29,42.97,19.77
							c3.98,3.85,7.26,8.07,9.82,12.66c0.02,0.04,0.05,0.09,0.07,0.13c0.22,0.4,0.45,0.81,0.66,1.21c0.24,0.45,0.47,0.9,0.69,1.35
							c7.17,14.3,7.36,26.02,5.12,34.81C585.31,607.45,577.4,614.09,577.4,614.09z"/>
						<path d="M492.67,792.71c2.13,5.1,3.46,10.26,3.99,15.49c0,0.05,0.01,0.1,0.01,0.15c0.04,0.46,0.09,0.92,0.12,1.37
							c0.04,0.51,0.07,1.01,0.1,1.51c0.91,15.95-3.57,26.79-9.12,34c-7.79,10.16-17.69,13.15-17.69,13.15
							c1.19-8.86,3.36-17.68,3.3-26.13c-0.12-17.76-7.42-32.33-19.03-44.2c-3.01-3.08-6.28-5.92-9.64-8.68l-32.65-21.92
							c4.83,5.69,10.09,11.1,15.93,16.05c7.66,6.49,15.31,13.14,21.73,20.7c17.16,20.23,19.61,44.22,5.78,71.93
							c-0.89,1.8-1.96,3.09-3.4,3.94c0,0-19.12,8.55-51.79-22.4c-9.44-10.73-15.99-23.73-19.72-38.89
							c-5.95-24.13-4.59-49.43,1.34-75.34c2.34-10.22,5.45-20.4,8.28-30.88c2.89,5.68,5.05,10.9,8.01,15.57
							c6.28,9.94,17.35,14.51,27.63,19.97c11.88,6.31,24.01,12.35,35.18,19.57C474.7,766.52,486.34,777.51,492.67,792.71z"/>
						<path d="M290.37,917.48c11.81,0.03,21.61-6.83,31.75-12.55c11.71-6.61,23.33-13.58,35.43-19.11
							c14.82-6.76,30.38-10.67,46.69-7.87c5.47,0.94,10.58,2.57,15.31,4.92c0.04,0.02,0.09,0.05,0.13,0.07
							c0.41,0.21,0.83,0.41,1.23,0.63c0.45,0.24,0.9,0.48,1.33,0.73c14.05,7.76,20.87,17.31,24.04,25.83
							c4.48,11.97,1.73,21.89,1.73,21.89c-6.9-5.73-13.24-12.27-20.46-16.73c-15.16-9.38-31.46-11.04-47.75-7.62
							c-4.23,0.89-8.39,2.12-12.53,3.46l-36.08,15.72c7.42-1.02,14.83-2.54,22.16-4.81c9.61-2.97,19.35-5.85,29.22-7.2
							c26.37-3.61,48.08,7.15,64.25,33.57c1.05,1.71,1.58,3.3,1.53,4.96c0,0-2.95,20.64-46.72,31.55c-14.17,2.2-28.72,0.75-43.6-4.2
							c-23.7-7.89-44.49-22.56-63.34-41.38c-7.44-7.43-14.44-15.48-21.83-23.45C279.22,916.51,284.81,917.48,290.37,917.48z"/>
						<path d="M395.82,1094.91c9.02-7.94,17.89-16.18,27.46-23.25c11.72-8.65,24.61-14.93,39.41-15.48
							c4.96-0.19,9.74,0.31,14.32,1.49c0.04,0.01,0.09,0.03,0.13,0.04c0.4,0.11,0.8,0.21,1.2,0.32c0.44,0.13,0.88,0.25,1.3,0.39
							c13.74,4.21,21.5,11.32,25.85,18.19c6.15,9.65,5.59,18.84,5.59,18.84c-7.11-3.75-13.88-8.3-21.03-10.88
							c-15.02-5.42-29.6-3.87-43.22,2.12c-3.54,1.55-6.95,3.4-10.32,5.34l-28.66,20.4c6.31-2.26,12.51-4.96,18.51-8.29
							c7.86-4.37,15.85-8.68,24.24-11.68c22.41-8.02,43.42-2.59,62.5,17.56c1.24,1.3,2,2.6,2.27,4.06c0,0,1.26,18.61-35.03,36.22
							c-12,4.53-25.01,5.95-38.96,4.35c-22.22-2.55-43.15-11.56-63.16-24.57c-7.9-5.13-15.52-10.89-23.48-16.51
							c5.69-0.64,10.77-0.82,15.64-1.84C380.71,1109.59,388.01,1101.78,395.82,1094.91z"/>
						<path d="M504.32,1233.35c-1.93-11.83-4.2-23.68-5.1-35.5c-1.09-14.47,0.45-28.66,7.89-41.38c2.49-4.27,5.46-8.02,8.92-11.23
							c0.03-0.03,0.07-0.06,0.1-0.09c0.3-0.28,0.61-0.56,0.91-0.83c0.34-0.3,0.68-0.6,1.03-0.89c10.92-9.3,21.11-12.02,29.28-12.01
							c11.49-0.01,19.01,5.37,19.01,5.37c-6.98,3.97-14.48,7.23-20.49,11.86c-12.64,9.73-19.11,22.8-21.29,37.46
							c-0.57,3.8-0.82,7.66-0.98,11.53l2.04,34.99c1.45-6.51,2.47-13.16,2.84-19.98c0.48-8.94,1.09-17.96,3.01-26.61
							c5.16-23.11,21-37.87,48.33-43.14c1.77-0.35,3.27-0.29,4.67,0.27c0,0,16.5,8.88,12.09,48.79c-2.56,12.5-8.3,24.19-17.12,35.06
							c-14.04,17.31-32.88,30.08-54.64,39.95c-8.58,3.89-17.56,7.23-26.59,10.91c2.5-5.13,5.06-9.49,6.79-14.12
							C508.73,1253.89,506,1243.59,504.32,1233.35z"/>
						<path d="M724.05,1329.26c13.12-4.97,26.08-6.78,38.83-5.33c39.54,8.18,42.92,26.53,42.92,26.53c0.1,1.49-0.31,2.93-1.19,4.49
							c-13.5,24.2-32.52,34.61-56.23,32.32c-8.87-0.86-17.68-3.08-26.39-5.39c-6.64-1.76-13.32-2.86-19.99-3.5l32.83,12.76
							c3.75,1.06,7.52,2.01,11.33,2.65c14.69,2.47,29.2,0.41,42.42-8.53c6.29-4.25,11.72-10.32,17.68-15.7c0,0,2.82,8.77-0.75,19.63
							c-2.52,7.73-8.27,16.51-20.55,23.96c-0.38,0.24-0.77,0.47-1.17,0.7c-0.35,0.21-0.72,0.41-1.08,0.61
							c-0.04,0.02-0.08,0.05-0.12,0.07c-4.14,2.27-8.65,3.91-13.51,4.95c-14.48,3.09-28.53,0.16-42.03-5.35
							c-11.02-4.51-21.66-10.32-32.38-15.81c-9.27-4.75-18.28-10.53-28.84-10.08c-4.97,0.21-9.93,1.28-15.61,2.05
							c6.32-7.4,12.29-14.85,18.67-21.75C685.09,1351.03,703.15,1337.17,724.05,1329.26z"/>
						<path d="M621.66,1217.59c22.48-33.35,40.86-29.57,40.86-29.57c1.42,0.47,2.61,1.39,3.74,2.79c17.49,21.53,20.04,42.96,9,63.94
							c-4.13,7.85-9.51,15.14-14.94,22.28c-4.14,5.45-7.67,11.19-10.78,17.1l24.23-25.45c2.39-3.06,4.7-6.17,6.72-9.44
							c7.82-12.6,11.35-26.75,7.99-42.28c-1.6-7.39-5.22-14.68-7.99-22.19c0,0,9.23,0.7,18.02,8.07
							c6.26,5.22,12.28,13.83,14.61,27.93c0.08,0.44,0.15,0.88,0.21,1.34c0.06,0.4,0.11,0.81,0.16,1.22
							c0.01,0.04,0.01,0.09,0.02,0.13c0.56,4.67,0.4,9.44-0.46,14.3c-2.56,14.5-10.57,26.34-20.78,36.71
							c-8.35,8.46-17.76,16.08-26.91,23.89c-7.91,6.76-16.68,12.89-20.23,22.78c-1.67,4.66-2.54,9.63-3.95,15.15
							c-4.52-8.6-9.22-16.9-13.27-25.37c-10.24-21.48-16.38-43.32-15.9-65.55C612.34,1241.41,615.52,1228.79,621.66,1217.59z"/>
					</g>
				</g>
			</g>
			<path d="M1225.63,640.18l-12.35-0.02C1217.36,639.98,1221.47,639.98,1225.63,640.18z"/>
			<path d="M836.76,600.46c-2.58-0.78-4.19-1.17-4.68-1.27c-0.11-0.02-0.16-0.03-0.16-0.03c-13.58-4.07-27.39-6.86-41.43-8.23
				l-0.01-0.01C790.47,590.92,809.16,591.46,836.76,600.46z"/>
			<path d="M798.24,1199.59c-0.02-0.01-0.04-0.02-0.06-0.02v-0.01C798.2,1199.57,798.22,1199.58,798.24,1199.59z"/>
		</g>
	</g>
	<g>
		<path d="M1010.76,682.3c0.25,0.12,0.49,0.24,0.74,0.36c34.05-40.55,68.11-81.09,102.58-122.15c-22.62,0-44.3,0-66.15,0
			C1035.51,601.22,1023.13,641.76,1010.76,682.3z"/>
		<path d="M887.84,560.5c34.57,41.16,68.63,81.71,102.7,122.27c0.22-0.14,0.44-0.28,0.66-0.42
			c-12.38-40.57-24.76-81.13-37.19-121.84C931.88,560.5,910.32,560.5,887.84,560.5z"/>
		<path d="M1080.36,489.26c-23.72,0-46.7,0-70.36,0c11.62,19.03,22.93,37.56,34.56,56.62
			C1056.71,526.66,1068.4,508.17,1080.36,489.26z"/>
		<path d="M991.89,489.34c-23.71,0-46.65,0-70.28,0c12.04,19.02,23.74,37.49,35.79,56.53C969.1,526.7,980.36,508.24,991.89,489.34z"
			/>
		<path d="M1035.38,549.74c-11.55-18.93-22.75-37.28-34.41-56.39c-11.71,19.19-22.96,37.64-34.4,56.39
			C989.72,549.74,1012.22,549.74,1035.38,549.74z"/>
		<path d="M913.22,494.47c-8.93,18.83-17.51,36.92-26.22,55.27c20.63,0,40.61,0,61.18,0C936.48,531.23,925.12,513.28,913.22,494.47z
			"/>
		<path d="M1115.02,549.89c-8.87-18.68-17.45-36.74-26.32-55.4c-11.89,18.79-23.3,36.82-35.05,55.4
			C1074.41,549.89,1094.34,549.89,1115.02,549.89z"/>
		<path d="M964.18,560.48l36.79,121.62l36.79-121.62C1012.98,560.48,988.88,560.48,964.18,560.48z"/>
	</g>
</g>
</svg>
